M48
METRIC,TZ
T1C0.200
T2C0.400
T3C0.450
T4C0.760
T5C0.800
T6C1.000
T7C1.100
T8C1.320
T9C1.800
T10C2.590
%
G90
G05
T1
X89630Y-161743
X89630Y-163577
X90548Y-160825
X90548Y-162660
X90548Y-164495
X91465Y-161743
X91465Y-163577
X92383Y-160825
X92383Y-162660
X92383Y-164495
X93300Y-161743
X93300Y-163577
T2
X19650Y-167300
X20350Y-175200
X25650Y-175550
X25750Y-173500
X26200Y-168350
X30200Y-171600
X30950Y-168250
X30950Y-170749
X31050Y-175900
X31100Y-177250
X35050Y-170200
X35750Y-171600
X36595Y-156200
X42555Y-159694
X42700Y-176450
X43650Y-159700
X43650Y-160700
X44750Y-159700
X48500Y-166200
X50958Y-166200
X53417Y-166200
X55875Y-166200
X58333Y-166200
X60792Y-166200
X63250Y-166200
X67275Y-51175
X69250Y-160300
X70450Y-133850
X71500Y-157500
X72690Y-171650
X73540Y-167600
X74550Y-159550
X75300Y-160800
X77640Y-148900
X77750Y-49600
X78050Y-163750
X79390Y-167600
X79890Y-153650
X79940Y-163800
X80000Y-178150
X81290Y-145600
X81775Y-178150
X83550Y-178150
X84700Y-150200
X85090Y-170530
X85325Y-178150
X85725Y-157830
X86050Y-149050
X87100Y-178150
X87630Y-157830
X88875Y-178150
X89535Y-170530
X90170Y-157830
X90650Y-178150
X92425Y-178150
X92710Y-158465
X92710Y-170530
X94200Y-178150
X94615Y-157830
X95250Y-170530
X95975Y-178150
X96400Y-168900
X97750Y-178150
X99525Y-178150
X100300Y-66400
X101300Y-178150
X101440Y-155100
X107040Y-167850
X113550Y-40450
X133858Y-54198
X133858Y-111856
X137922Y-178404
T4
X147670Y-166130
X148940Y-168670
X150210Y-166130
X151480Y-168670
X152750Y-166130
X154020Y-168670
T5
X27420Y-149350
X27440Y-145350
X27490Y-141300
X35040Y-149350
X35060Y-145350
X35110Y-141300
X40300Y-140600
X43800Y-140600
X51850Y-164100
X54350Y-164100
X61200Y-153150
X61200Y-155650
X103797Y-170250
X107200Y-79700
X107200Y-83200
X107297Y-170250
X114918Y-19343
X114918Y-22843
T6
X37385Y-28735
X37385Y-87885
X39925Y-28735
X39925Y-87885
X42465Y-28735
X42465Y-87885
X45005Y-28735
X45005Y-87885
X47545Y-28735
X47545Y-87885
X50085Y-28735
X50085Y-87885
X52625Y-28735
X52625Y-87885
X55165Y-28735
X55165Y-87885
X57705Y-28735
X57705Y-87885
X60245Y-28735
X60245Y-87885
X62785Y-28735
X62785Y-87885
X65325Y-28735
X65325Y-87885
X67865Y-28735
X67865Y-87885
X68640Y-177950
X70405Y-28735
X70405Y-87885
X71180Y-177950
X72945Y-28735
X72945Y-87885
X73720Y-177950
X75485Y-28735
X75485Y-87885
X76260Y-177950
X78025Y-28735
X78025Y-87885
X80565Y-28735
X80565Y-87885
X83105Y-28735
X83105Y-87885
X85645Y-28735
X85645Y-87885
X114430Y-151700
X115900Y-28750
X115900Y-87900
X116970Y-151700
X118440Y-28750
X118440Y-87900
X119510Y-151700
X120980Y-28750
X120980Y-87900
X122050Y-151700
X123520Y-28750
X123520Y-87900
X124590Y-151700
X126060Y-28750
X126060Y-87900
X127130Y-151700
X128600Y-28750
X128600Y-87900
X129670Y-151700
X131140Y-28750
X131140Y-87900
X132210Y-151700
X133680Y-28750
X133680Y-87900
X136220Y-28750
X136220Y-87900
X138760Y-28750
X138760Y-87900
X141300Y-28750
X141300Y-87900
X143840Y-28750
X143840Y-87900
X168800Y-158780
X168800Y-161320
X168800Y-163860
X168800Y-166400
X172212Y-37688
X172212Y-40228
X172212Y-42768
X172212Y-45308
X172212Y-47848
X172212Y-50388
X172212Y-52928
X172212Y-55468
X172212Y-97124
X172212Y-99664
X172212Y-102204
X172212Y-104744
X172212Y-107284
X172212Y-109824
X172212Y-112364
X172212Y-114904
T7
X112295Y-170625
X112295Y-175125
X118795Y-170625
X118795Y-175125
X126495Y-170625
X126495Y-175125
X132995Y-170625
X132995Y-175125
T8
X17650Y-39550
X17650Y-44550
X17700Y-26150
X17700Y-31150
X18300Y-79050
X18300Y-84050
X18350Y-127500
X18350Y-132500
T9
X15586Y-92178
X20586Y-92178
T10
X17700Y-54450
X17700Y-59530
X17700Y-63590
X17700Y-68670
X18250Y-104970
X18250Y-110050
X18250Y-114110
X18250Y-119190
T3
G00X15300Y-179450
M15
G01X15300Y-178650
M16
G05
G00X22450Y-178650
M15
G01X22450Y-179450
M16
G05
T0
M30
