%TF.GenerationSoftware,KiCad,Pcbnew,7.0.1*%
%TF.CreationDate,2024-06-25T12:01:32+02:00*%
%TF.ProjectId,ODRIVE_V1.0,4f445249-5645-45f5-9631-2e302e6b6963,rev?*%
%TF.SameCoordinates,Original*%
%TF.FileFunction,Legend,Top*%
%TF.FilePolarity,Positive*%
%FSLAX46Y46*%
G04 Gerber Fmt 4.6, Leading zero omitted, Abs format (unit mm)*
G04 Created by KiCad (PCBNEW 7.0.1) date 2024-06-25 12:01:32*
%MOMM*%
%LPD*%
G01*
G04 APERTURE LIST*
%ADD10C,0.300000*%
%ADD11C,0.150000*%
%ADD12C,0.125000*%
%ADD13C,0.100000*%
%ADD14C,0.120000*%
%ADD15C,0.127000*%
%ADD16C,0.200000*%
%ADD17C,0.350000*%
%ADD18C,0.200000*%
%ADD19O,0.450000X1.250000*%
G04 APERTURE END LIST*
D10*
X174578571Y-53360285D02*
X175150000Y-53360285D01*
X174464285Y-53703142D02*
X174864285Y-52503142D01*
X174864285Y-52503142D02*
X175264285Y-53703142D01*
X175264285Y-37110285D02*
X175150000Y-37053142D01*
X175150000Y-37053142D02*
X174978571Y-37053142D01*
X174978571Y-37053142D02*
X174807142Y-37110285D01*
X174807142Y-37110285D02*
X174692857Y-37224571D01*
X174692857Y-37224571D02*
X174635714Y-37338857D01*
X174635714Y-37338857D02*
X174578571Y-37567428D01*
X174578571Y-37567428D02*
X174578571Y-37738857D01*
X174578571Y-37738857D02*
X174635714Y-37967428D01*
X174635714Y-37967428D02*
X174692857Y-38081714D01*
X174692857Y-38081714D02*
X174807142Y-38196000D01*
X174807142Y-38196000D02*
X174978571Y-38253142D01*
X174978571Y-38253142D02*
X175092857Y-38253142D01*
X175092857Y-38253142D02*
X175264285Y-38196000D01*
X175264285Y-38196000D02*
X175321428Y-38138857D01*
X175321428Y-38138857D02*
X175321428Y-37738857D01*
X175321428Y-37738857D02*
X175092857Y-37738857D01*
D11*
X170564285Y-149565142D02*
X170964285Y-150765142D01*
X170964285Y-150765142D02*
X171364285Y-149565142D01*
X172449999Y-150650857D02*
X172392856Y-150708000D01*
X172392856Y-150708000D02*
X172221428Y-150765142D01*
X172221428Y-150765142D02*
X172107142Y-150765142D01*
X172107142Y-150765142D02*
X171935713Y-150708000D01*
X171935713Y-150708000D02*
X171821428Y-150593714D01*
X171821428Y-150593714D02*
X171764285Y-150479428D01*
X171764285Y-150479428D02*
X171707142Y-150250857D01*
X171707142Y-150250857D02*
X171707142Y-150079428D01*
X171707142Y-150079428D02*
X171764285Y-149850857D01*
X171764285Y-149850857D02*
X171821428Y-149736571D01*
X171821428Y-149736571D02*
X171935713Y-149622285D01*
X171935713Y-149622285D02*
X172107142Y-149565142D01*
X172107142Y-149565142D02*
X172221428Y-149565142D01*
X172221428Y-149565142D02*
X172392856Y-149622285D01*
X172392856Y-149622285D02*
X172449999Y-149679428D01*
X173649999Y-150650857D02*
X173592856Y-150708000D01*
X173592856Y-150708000D02*
X173421428Y-150765142D01*
X173421428Y-150765142D02*
X173307142Y-150765142D01*
X173307142Y-150765142D02*
X173135713Y-150708000D01*
X173135713Y-150708000D02*
X173021428Y-150593714D01*
X173021428Y-150593714D02*
X172964285Y-150479428D01*
X172964285Y-150479428D02*
X172907142Y-150250857D01*
X172907142Y-150250857D02*
X172907142Y-150079428D01*
X172907142Y-150079428D02*
X172964285Y-149850857D01*
X172964285Y-149850857D02*
X173021428Y-149736571D01*
X173021428Y-149736571D02*
X173135713Y-149622285D01*
X173135713Y-149622285D02*
X173307142Y-149565142D01*
X173307142Y-149565142D02*
X173421428Y-149565142D01*
X173421428Y-149565142D02*
X173592856Y-149622285D01*
X173592856Y-149622285D02*
X173649999Y-149679428D01*
X170735714Y-152709142D02*
X170735714Y-151509142D01*
X171535714Y-151509142D02*
X171764286Y-151509142D01*
X171764286Y-151509142D02*
X171878571Y-151566285D01*
X171878571Y-151566285D02*
X171992857Y-151680571D01*
X171992857Y-151680571D02*
X172050000Y-151909142D01*
X172050000Y-151909142D02*
X172050000Y-152309142D01*
X172050000Y-152309142D02*
X171992857Y-152537714D01*
X171992857Y-152537714D02*
X171878571Y-152652000D01*
X171878571Y-152652000D02*
X171764286Y-152709142D01*
X171764286Y-152709142D02*
X171535714Y-152709142D01*
X171535714Y-152709142D02*
X171421429Y-152652000D01*
X171421429Y-152652000D02*
X171307143Y-152537714D01*
X171307143Y-152537714D02*
X171250000Y-152309142D01*
X171250000Y-152309142D02*
X171250000Y-151909142D01*
X171250000Y-151909142D02*
X171307143Y-151680571D01*
X171307143Y-151680571D02*
X171421429Y-151566285D01*
X171421429Y-151566285D02*
X171535714Y-151509142D01*
X173192857Y-152709142D02*
X172507143Y-152709142D01*
X172850000Y-152709142D02*
X172850000Y-151509142D01*
X172850000Y-151509142D02*
X172735714Y-151680571D01*
X172735714Y-151680571D02*
X172621429Y-151794857D01*
X172621429Y-151794857D02*
X172507143Y-151852000D01*
X173592857Y-151509142D02*
X174335714Y-151509142D01*
X174335714Y-151509142D02*
X173935714Y-151966285D01*
X173935714Y-151966285D02*
X174107143Y-151966285D01*
X174107143Y-151966285D02*
X174221429Y-152023428D01*
X174221429Y-152023428D02*
X174278571Y-152080571D01*
X174278571Y-152080571D02*
X174335714Y-152194857D01*
X174335714Y-152194857D02*
X174335714Y-152480571D01*
X174335714Y-152480571D02*
X174278571Y-152594857D01*
X174278571Y-152594857D02*
X174221429Y-152652000D01*
X174221429Y-152652000D02*
X174107143Y-152709142D01*
X174107143Y-152709142D02*
X173764286Y-152709142D01*
X173764286Y-152709142D02*
X173650000Y-152652000D01*
X173650000Y-152652000D02*
X173592857Y-152594857D01*
X171364285Y-153510285D02*
X171250000Y-153453142D01*
X171250000Y-153453142D02*
X171078571Y-153453142D01*
X171078571Y-153453142D02*
X170907142Y-153510285D01*
X170907142Y-153510285D02*
X170792857Y-153624571D01*
X170792857Y-153624571D02*
X170735714Y-153738857D01*
X170735714Y-153738857D02*
X170678571Y-153967428D01*
X170678571Y-153967428D02*
X170678571Y-154138857D01*
X170678571Y-154138857D02*
X170735714Y-154367428D01*
X170735714Y-154367428D02*
X170792857Y-154481714D01*
X170792857Y-154481714D02*
X170907142Y-154596000D01*
X170907142Y-154596000D02*
X171078571Y-154653142D01*
X171078571Y-154653142D02*
X171192857Y-154653142D01*
X171192857Y-154653142D02*
X171364285Y-154596000D01*
X171364285Y-154596000D02*
X171421428Y-154538857D01*
X171421428Y-154538857D02*
X171421428Y-154138857D01*
X171421428Y-154138857D02*
X171192857Y-154138857D01*
X171935714Y-154653142D02*
X171935714Y-153453142D01*
X171935714Y-153453142D02*
X172621428Y-154653142D01*
X172621428Y-154653142D02*
X172621428Y-153453142D01*
X173192857Y-154653142D02*
X173192857Y-153453142D01*
X173192857Y-153453142D02*
X173478571Y-153453142D01*
X173478571Y-153453142D02*
X173650000Y-153510285D01*
X173650000Y-153510285D02*
X173764285Y-153624571D01*
X173764285Y-153624571D02*
X173821428Y-153738857D01*
X173821428Y-153738857D02*
X173878571Y-153967428D01*
X173878571Y-153967428D02*
X173878571Y-154138857D01*
X173878571Y-154138857D02*
X173821428Y-154367428D01*
X173821428Y-154367428D02*
X173764285Y-154481714D01*
X173764285Y-154481714D02*
X173650000Y-154596000D01*
X173650000Y-154596000D02*
X173478571Y-154653142D01*
X173478571Y-154653142D02*
X173192857Y-154653142D01*
D12*
X67945238Y-174927619D02*
X68278571Y-175927619D01*
X68278571Y-175927619D02*
X68611904Y-174927619D01*
X68897619Y-175880000D02*
X69040476Y-175927619D01*
X69040476Y-175927619D02*
X69278571Y-175927619D01*
X69278571Y-175927619D02*
X69373809Y-175880000D01*
X69373809Y-175880000D02*
X69421428Y-175832380D01*
X69421428Y-175832380D02*
X69469047Y-175737142D01*
X69469047Y-175737142D02*
X69469047Y-175641904D01*
X69469047Y-175641904D02*
X69421428Y-175546666D01*
X69421428Y-175546666D02*
X69373809Y-175499047D01*
X69373809Y-175499047D02*
X69278571Y-175451428D01*
X69278571Y-175451428D02*
X69088095Y-175403809D01*
X69088095Y-175403809D02*
X68992857Y-175356190D01*
X68992857Y-175356190D02*
X68945238Y-175308571D01*
X68945238Y-175308571D02*
X68897619Y-175213333D01*
X68897619Y-175213333D02*
X68897619Y-175118095D01*
X68897619Y-175118095D02*
X68945238Y-175022857D01*
X68945238Y-175022857D02*
X68992857Y-174975238D01*
X68992857Y-174975238D02*
X69088095Y-174927619D01*
X69088095Y-174927619D02*
X69326190Y-174927619D01*
X69326190Y-174927619D02*
X69469047Y-174975238D01*
X171095238Y-158377619D02*
X171428571Y-159377619D01*
X171428571Y-159377619D02*
X171761904Y-158377619D01*
X172666666Y-159282380D02*
X172619047Y-159330000D01*
X172619047Y-159330000D02*
X172476190Y-159377619D01*
X172476190Y-159377619D02*
X172380952Y-159377619D01*
X172380952Y-159377619D02*
X172238095Y-159330000D01*
X172238095Y-159330000D02*
X172142857Y-159234761D01*
X172142857Y-159234761D02*
X172095238Y-159139523D01*
X172095238Y-159139523D02*
X172047619Y-158949047D01*
X172047619Y-158949047D02*
X172047619Y-158806190D01*
X172047619Y-158806190D02*
X172095238Y-158615714D01*
X172095238Y-158615714D02*
X172142857Y-158520476D01*
X172142857Y-158520476D02*
X172238095Y-158425238D01*
X172238095Y-158425238D02*
X172380952Y-158377619D01*
X172380952Y-158377619D02*
X172476190Y-158377619D01*
X172476190Y-158377619D02*
X172619047Y-158425238D01*
X172619047Y-158425238D02*
X172666666Y-158472857D01*
X173666666Y-159282380D02*
X173619047Y-159330000D01*
X173619047Y-159330000D02*
X173476190Y-159377619D01*
X173476190Y-159377619D02*
X173380952Y-159377619D01*
X173380952Y-159377619D02*
X173238095Y-159330000D01*
X173238095Y-159330000D02*
X173142857Y-159234761D01*
X173142857Y-159234761D02*
X173095238Y-159139523D01*
X173095238Y-159139523D02*
X173047619Y-158949047D01*
X173047619Y-158949047D02*
X173047619Y-158806190D01*
X173047619Y-158806190D02*
X173095238Y-158615714D01*
X173095238Y-158615714D02*
X173142857Y-158520476D01*
X173142857Y-158520476D02*
X173238095Y-158425238D01*
X173238095Y-158425238D02*
X173380952Y-158377619D01*
X173380952Y-158377619D02*
X173476190Y-158377619D01*
X173476190Y-158377619D02*
X173619047Y-158425238D01*
X173619047Y-158425238D02*
X173666666Y-158472857D01*
D10*
X10595000Y-31792857D02*
X10595000Y-30650000D01*
X11166428Y-31221428D02*
X10023571Y-31221428D01*
X128914285Y-167916428D02*
X128414285Y-167202142D01*
X128057142Y-167916428D02*
X128057142Y-166416428D01*
X128057142Y-166416428D02*
X128628571Y-166416428D01*
X128628571Y-166416428D02*
X128771428Y-166487857D01*
X128771428Y-166487857D02*
X128842857Y-166559285D01*
X128842857Y-166559285D02*
X128914285Y-166702142D01*
X128914285Y-166702142D02*
X128914285Y-166916428D01*
X128914285Y-166916428D02*
X128842857Y-167059285D01*
X128842857Y-167059285D02*
X128771428Y-167130714D01*
X128771428Y-167130714D02*
X128628571Y-167202142D01*
X128628571Y-167202142D02*
X128057142Y-167202142D01*
X129557142Y-167130714D02*
X130057142Y-167130714D01*
X130271428Y-167916428D02*
X129557142Y-167916428D01*
X129557142Y-167916428D02*
X129557142Y-166416428D01*
X129557142Y-166416428D02*
X130271428Y-166416428D01*
X130842857Y-167845000D02*
X131057143Y-167916428D01*
X131057143Y-167916428D02*
X131414285Y-167916428D01*
X131414285Y-167916428D02*
X131557143Y-167845000D01*
X131557143Y-167845000D02*
X131628571Y-167773571D01*
X131628571Y-167773571D02*
X131700000Y-167630714D01*
X131700000Y-167630714D02*
X131700000Y-167487857D01*
X131700000Y-167487857D02*
X131628571Y-167345000D01*
X131628571Y-167345000D02*
X131557143Y-167273571D01*
X131557143Y-167273571D02*
X131414285Y-167202142D01*
X131414285Y-167202142D02*
X131128571Y-167130714D01*
X131128571Y-167130714D02*
X130985714Y-167059285D01*
X130985714Y-167059285D02*
X130914285Y-166987857D01*
X130914285Y-166987857D02*
X130842857Y-166845000D01*
X130842857Y-166845000D02*
X130842857Y-166702142D01*
X130842857Y-166702142D02*
X130914285Y-166559285D01*
X130914285Y-166559285D02*
X130985714Y-166487857D01*
X130985714Y-166487857D02*
X131128571Y-166416428D01*
X131128571Y-166416428D02*
X131485714Y-166416428D01*
X131485714Y-166416428D02*
X131700000Y-166487857D01*
X132342856Y-167130714D02*
X132842856Y-167130714D01*
X133057142Y-167916428D02*
X132342856Y-167916428D01*
X132342856Y-167916428D02*
X132342856Y-166416428D01*
X132342856Y-166416428D02*
X133057142Y-166416428D01*
X133485714Y-166416428D02*
X134342857Y-166416428D01*
X133914285Y-167916428D02*
X133914285Y-166416428D01*
X161423571Y-178585714D02*
X161495000Y-178657142D01*
X161495000Y-178657142D02*
X161566428Y-178871428D01*
X161566428Y-178871428D02*
X161566428Y-179014285D01*
X161566428Y-179014285D02*
X161495000Y-179228571D01*
X161495000Y-179228571D02*
X161352142Y-179371428D01*
X161352142Y-179371428D02*
X161209285Y-179442857D01*
X161209285Y-179442857D02*
X160923571Y-179514285D01*
X160923571Y-179514285D02*
X160709285Y-179514285D01*
X160709285Y-179514285D02*
X160423571Y-179442857D01*
X160423571Y-179442857D02*
X160280714Y-179371428D01*
X160280714Y-179371428D02*
X160137857Y-179228571D01*
X160137857Y-179228571D02*
X160066428Y-179014285D01*
X160066428Y-179014285D02*
X160066428Y-178871428D01*
X160066428Y-178871428D02*
X160137857Y-178657142D01*
X160137857Y-178657142D02*
X160209285Y-178585714D01*
X161137857Y-178014285D02*
X161137857Y-177300000D01*
X161566428Y-178157142D02*
X160066428Y-177657142D01*
X160066428Y-177657142D02*
X161566428Y-177157142D01*
X161566428Y-176657143D02*
X160066428Y-176657143D01*
X160066428Y-176657143D02*
X161566428Y-175800000D01*
X161566428Y-175800000D02*
X160066428Y-175800000D01*
X161709285Y-175442857D02*
X161709285Y-174299999D01*
X161566428Y-173942857D02*
X160066428Y-173942857D01*
X161566428Y-173228571D02*
X160066428Y-173228571D01*
X160066428Y-173228571D02*
X161566428Y-172371428D01*
X161566428Y-172371428D02*
X160066428Y-172371428D01*
X160066428Y-171871427D02*
X160066428Y-171014285D01*
X161566428Y-171442856D02*
X160066428Y-171442856D01*
X160780714Y-170514285D02*
X160780714Y-170014285D01*
X161566428Y-169799999D02*
X161566428Y-170514285D01*
X161566428Y-170514285D02*
X160066428Y-170514285D01*
X160066428Y-170514285D02*
X160066428Y-169799999D01*
X161566428Y-168299999D02*
X160852142Y-168799999D01*
X161566428Y-169157142D02*
X160066428Y-169157142D01*
X160066428Y-169157142D02*
X160066428Y-168585713D01*
X160066428Y-168585713D02*
X160137857Y-168442856D01*
X160137857Y-168442856D02*
X160209285Y-168371427D01*
X160209285Y-168371427D02*
X160352142Y-168299999D01*
X160352142Y-168299999D02*
X160566428Y-168299999D01*
X160566428Y-168299999D02*
X160709285Y-168371427D01*
X160709285Y-168371427D02*
X160780714Y-168442856D01*
X160780714Y-168442856D02*
X160852142Y-168585713D01*
X160852142Y-168585713D02*
X160852142Y-169157142D01*
X160780714Y-167157142D02*
X160780714Y-167657142D01*
X161566428Y-167657142D02*
X160066428Y-167657142D01*
X160066428Y-167657142D02*
X160066428Y-166942856D01*
X161137857Y-166442856D02*
X161137857Y-165728571D01*
X161566428Y-166585713D02*
X160066428Y-166085713D01*
X160066428Y-166085713D02*
X161566428Y-165585713D01*
X161423571Y-164228571D02*
X161495000Y-164299999D01*
X161495000Y-164299999D02*
X161566428Y-164514285D01*
X161566428Y-164514285D02*
X161566428Y-164657142D01*
X161566428Y-164657142D02*
X161495000Y-164871428D01*
X161495000Y-164871428D02*
X161352142Y-165014285D01*
X161352142Y-165014285D02*
X161209285Y-165085714D01*
X161209285Y-165085714D02*
X160923571Y-165157142D01*
X160923571Y-165157142D02*
X160709285Y-165157142D01*
X160709285Y-165157142D02*
X160423571Y-165085714D01*
X160423571Y-165085714D02*
X160280714Y-165014285D01*
X160280714Y-165014285D02*
X160137857Y-164871428D01*
X160137857Y-164871428D02*
X160066428Y-164657142D01*
X160066428Y-164657142D02*
X160066428Y-164514285D01*
X160066428Y-164514285D02*
X160137857Y-164299999D01*
X160137857Y-164299999D02*
X160209285Y-164228571D01*
X160780714Y-163585714D02*
X160780714Y-163085714D01*
X161566428Y-162871428D02*
X161566428Y-163585714D01*
X161566428Y-163585714D02*
X160066428Y-163585714D01*
X160066428Y-163585714D02*
X160066428Y-162871428D01*
D12*
X171809523Y-164482380D02*
X171761904Y-164530000D01*
X171761904Y-164530000D02*
X171619047Y-164577619D01*
X171619047Y-164577619D02*
X171523809Y-164577619D01*
X171523809Y-164577619D02*
X171380952Y-164530000D01*
X171380952Y-164530000D02*
X171285714Y-164434761D01*
X171285714Y-164434761D02*
X171238095Y-164339523D01*
X171238095Y-164339523D02*
X171190476Y-164149047D01*
X171190476Y-164149047D02*
X171190476Y-164006190D01*
X171190476Y-164006190D02*
X171238095Y-163815714D01*
X171238095Y-163815714D02*
X171285714Y-163720476D01*
X171285714Y-163720476D02*
X171380952Y-163625238D01*
X171380952Y-163625238D02*
X171523809Y-163577619D01*
X171523809Y-163577619D02*
X171619047Y-163577619D01*
X171619047Y-163577619D02*
X171761904Y-163625238D01*
X171761904Y-163625238D02*
X171809523Y-163672857D01*
X172190476Y-164291904D02*
X172666666Y-164291904D01*
X172095238Y-164577619D02*
X172428571Y-163577619D01*
X172428571Y-163577619D02*
X172761904Y-164577619D01*
X173095238Y-164577619D02*
X173095238Y-163577619D01*
X173095238Y-163577619D02*
X173666666Y-164577619D01*
X173666666Y-164577619D02*
X173666666Y-163577619D01*
X173904762Y-164672857D02*
X174666666Y-164672857D01*
X175380952Y-164577619D02*
X174904762Y-164577619D01*
X174904762Y-164577619D02*
X174904762Y-163577619D01*
D11*
X150814285Y-149565142D02*
X151214285Y-150765142D01*
X151214285Y-150765142D02*
X151614285Y-149565142D01*
X152699999Y-150650857D02*
X152642856Y-150708000D01*
X152642856Y-150708000D02*
X152471428Y-150765142D01*
X152471428Y-150765142D02*
X152357142Y-150765142D01*
X152357142Y-150765142D02*
X152185713Y-150708000D01*
X152185713Y-150708000D02*
X152071428Y-150593714D01*
X152071428Y-150593714D02*
X152014285Y-150479428D01*
X152014285Y-150479428D02*
X151957142Y-150250857D01*
X151957142Y-150250857D02*
X151957142Y-150079428D01*
X151957142Y-150079428D02*
X152014285Y-149850857D01*
X152014285Y-149850857D02*
X152071428Y-149736571D01*
X152071428Y-149736571D02*
X152185713Y-149622285D01*
X152185713Y-149622285D02*
X152357142Y-149565142D01*
X152357142Y-149565142D02*
X152471428Y-149565142D01*
X152471428Y-149565142D02*
X152642856Y-149622285D01*
X152642856Y-149622285D02*
X152699999Y-149679428D01*
X153899999Y-150650857D02*
X153842856Y-150708000D01*
X153842856Y-150708000D02*
X153671428Y-150765142D01*
X153671428Y-150765142D02*
X153557142Y-150765142D01*
X153557142Y-150765142D02*
X153385713Y-150708000D01*
X153385713Y-150708000D02*
X153271428Y-150593714D01*
X153271428Y-150593714D02*
X153214285Y-150479428D01*
X153214285Y-150479428D02*
X153157142Y-150250857D01*
X153157142Y-150250857D02*
X153157142Y-150079428D01*
X153157142Y-150079428D02*
X153214285Y-149850857D01*
X153214285Y-149850857D02*
X153271428Y-149736571D01*
X153271428Y-149736571D02*
X153385713Y-149622285D01*
X153385713Y-149622285D02*
X153557142Y-149565142D01*
X153557142Y-149565142D02*
X153671428Y-149565142D01*
X153671428Y-149565142D02*
X153842856Y-149622285D01*
X153842856Y-149622285D02*
X153899999Y-149679428D01*
X150985714Y-152709142D02*
X150985714Y-151509142D01*
X151785714Y-151509142D02*
X152014286Y-151509142D01*
X152014286Y-151509142D02*
X152128571Y-151566285D01*
X152128571Y-151566285D02*
X152242857Y-151680571D01*
X152242857Y-151680571D02*
X152300000Y-151909142D01*
X152300000Y-151909142D02*
X152300000Y-152309142D01*
X152300000Y-152309142D02*
X152242857Y-152537714D01*
X152242857Y-152537714D02*
X152128571Y-152652000D01*
X152128571Y-152652000D02*
X152014286Y-152709142D01*
X152014286Y-152709142D02*
X151785714Y-152709142D01*
X151785714Y-152709142D02*
X151671429Y-152652000D01*
X151671429Y-152652000D02*
X151557143Y-152537714D01*
X151557143Y-152537714D02*
X151500000Y-152309142D01*
X151500000Y-152309142D02*
X151500000Y-151909142D01*
X151500000Y-151909142D02*
X151557143Y-151680571D01*
X151557143Y-151680571D02*
X151671429Y-151566285D01*
X151671429Y-151566285D02*
X151785714Y-151509142D01*
X152757143Y-151623428D02*
X152814286Y-151566285D01*
X152814286Y-151566285D02*
X152928572Y-151509142D01*
X152928572Y-151509142D02*
X153214286Y-151509142D01*
X153214286Y-151509142D02*
X153328572Y-151566285D01*
X153328572Y-151566285D02*
X153385714Y-151623428D01*
X153385714Y-151623428D02*
X153442857Y-151737714D01*
X153442857Y-151737714D02*
X153442857Y-151852000D01*
X153442857Y-151852000D02*
X153385714Y-152023428D01*
X153385714Y-152023428D02*
X152700000Y-152709142D01*
X152700000Y-152709142D02*
X153442857Y-152709142D01*
X153842857Y-151509142D02*
X154642857Y-151509142D01*
X154642857Y-151509142D02*
X154128571Y-152709142D01*
X151614285Y-153510285D02*
X151500000Y-153453142D01*
X151500000Y-153453142D02*
X151328571Y-153453142D01*
X151328571Y-153453142D02*
X151157142Y-153510285D01*
X151157142Y-153510285D02*
X151042857Y-153624571D01*
X151042857Y-153624571D02*
X150985714Y-153738857D01*
X150985714Y-153738857D02*
X150928571Y-153967428D01*
X150928571Y-153967428D02*
X150928571Y-154138857D01*
X150928571Y-154138857D02*
X150985714Y-154367428D01*
X150985714Y-154367428D02*
X151042857Y-154481714D01*
X151042857Y-154481714D02*
X151157142Y-154596000D01*
X151157142Y-154596000D02*
X151328571Y-154653142D01*
X151328571Y-154653142D02*
X151442857Y-154653142D01*
X151442857Y-154653142D02*
X151614285Y-154596000D01*
X151614285Y-154596000D02*
X151671428Y-154538857D01*
X151671428Y-154538857D02*
X151671428Y-154138857D01*
X151671428Y-154138857D02*
X151442857Y-154138857D01*
X152185714Y-154653142D02*
X152185714Y-153453142D01*
X152185714Y-153453142D02*
X152871428Y-154653142D01*
X152871428Y-154653142D02*
X152871428Y-153453142D01*
X153442857Y-154653142D02*
X153442857Y-153453142D01*
X153442857Y-153453142D02*
X153728571Y-153453142D01*
X153728571Y-153453142D02*
X153900000Y-153510285D01*
X153900000Y-153510285D02*
X154014285Y-153624571D01*
X154014285Y-153624571D02*
X154071428Y-153738857D01*
X154071428Y-153738857D02*
X154128571Y-153967428D01*
X154128571Y-153967428D02*
X154128571Y-154138857D01*
X154128571Y-154138857D02*
X154071428Y-154367428D01*
X154071428Y-154367428D02*
X154014285Y-154481714D01*
X154014285Y-154481714D02*
X153900000Y-154596000D01*
X153900000Y-154596000D02*
X153728571Y-154653142D01*
X153728571Y-154653142D02*
X153442857Y-154653142D01*
X137414285Y-149565142D02*
X137814285Y-150765142D01*
X137814285Y-150765142D02*
X138214285Y-149565142D01*
X139299999Y-150650857D02*
X139242856Y-150708000D01*
X139242856Y-150708000D02*
X139071428Y-150765142D01*
X139071428Y-150765142D02*
X138957142Y-150765142D01*
X138957142Y-150765142D02*
X138785713Y-150708000D01*
X138785713Y-150708000D02*
X138671428Y-150593714D01*
X138671428Y-150593714D02*
X138614285Y-150479428D01*
X138614285Y-150479428D02*
X138557142Y-150250857D01*
X138557142Y-150250857D02*
X138557142Y-150079428D01*
X138557142Y-150079428D02*
X138614285Y-149850857D01*
X138614285Y-149850857D02*
X138671428Y-149736571D01*
X138671428Y-149736571D02*
X138785713Y-149622285D01*
X138785713Y-149622285D02*
X138957142Y-149565142D01*
X138957142Y-149565142D02*
X139071428Y-149565142D01*
X139071428Y-149565142D02*
X139242856Y-149622285D01*
X139242856Y-149622285D02*
X139299999Y-149679428D01*
X140499999Y-150650857D02*
X140442856Y-150708000D01*
X140442856Y-150708000D02*
X140271428Y-150765142D01*
X140271428Y-150765142D02*
X140157142Y-150765142D01*
X140157142Y-150765142D02*
X139985713Y-150708000D01*
X139985713Y-150708000D02*
X139871428Y-150593714D01*
X139871428Y-150593714D02*
X139814285Y-150479428D01*
X139814285Y-150479428D02*
X139757142Y-150250857D01*
X139757142Y-150250857D02*
X139757142Y-150079428D01*
X139757142Y-150079428D02*
X139814285Y-149850857D01*
X139814285Y-149850857D02*
X139871428Y-149736571D01*
X139871428Y-149736571D02*
X139985713Y-149622285D01*
X139985713Y-149622285D02*
X140157142Y-149565142D01*
X140157142Y-149565142D02*
X140271428Y-149565142D01*
X140271428Y-149565142D02*
X140442856Y-149622285D01*
X140442856Y-149622285D02*
X140499999Y-149679428D01*
X137585714Y-152709142D02*
X137585714Y-151509142D01*
X138385714Y-151509142D02*
X138614286Y-151509142D01*
X138614286Y-151509142D02*
X138728571Y-151566285D01*
X138728571Y-151566285D02*
X138842857Y-151680571D01*
X138842857Y-151680571D02*
X138900000Y-151909142D01*
X138900000Y-151909142D02*
X138900000Y-152309142D01*
X138900000Y-152309142D02*
X138842857Y-152537714D01*
X138842857Y-152537714D02*
X138728571Y-152652000D01*
X138728571Y-152652000D02*
X138614286Y-152709142D01*
X138614286Y-152709142D02*
X138385714Y-152709142D01*
X138385714Y-152709142D02*
X138271429Y-152652000D01*
X138271429Y-152652000D02*
X138157143Y-152537714D01*
X138157143Y-152537714D02*
X138100000Y-152309142D01*
X138100000Y-152309142D02*
X138100000Y-151909142D01*
X138100000Y-151909142D02*
X138157143Y-151680571D01*
X138157143Y-151680571D02*
X138271429Y-151566285D01*
X138271429Y-151566285D02*
X138385714Y-151509142D01*
X139300000Y-151509142D02*
X140042857Y-151509142D01*
X140042857Y-151509142D02*
X139642857Y-151966285D01*
X139642857Y-151966285D02*
X139814286Y-151966285D01*
X139814286Y-151966285D02*
X139928572Y-152023428D01*
X139928572Y-152023428D02*
X139985714Y-152080571D01*
X139985714Y-152080571D02*
X140042857Y-152194857D01*
X140042857Y-152194857D02*
X140042857Y-152480571D01*
X140042857Y-152480571D02*
X139985714Y-152594857D01*
X139985714Y-152594857D02*
X139928572Y-152652000D01*
X139928572Y-152652000D02*
X139814286Y-152709142D01*
X139814286Y-152709142D02*
X139471429Y-152709142D01*
X139471429Y-152709142D02*
X139357143Y-152652000D01*
X139357143Y-152652000D02*
X139300000Y-152594857D01*
X140442857Y-151509142D02*
X141185714Y-151509142D01*
X141185714Y-151509142D02*
X140785714Y-151966285D01*
X140785714Y-151966285D02*
X140957143Y-151966285D01*
X140957143Y-151966285D02*
X141071429Y-152023428D01*
X141071429Y-152023428D02*
X141128571Y-152080571D01*
X141128571Y-152080571D02*
X141185714Y-152194857D01*
X141185714Y-152194857D02*
X141185714Y-152480571D01*
X141185714Y-152480571D02*
X141128571Y-152594857D01*
X141128571Y-152594857D02*
X141071429Y-152652000D01*
X141071429Y-152652000D02*
X140957143Y-152709142D01*
X140957143Y-152709142D02*
X140614286Y-152709142D01*
X140614286Y-152709142D02*
X140500000Y-152652000D01*
X140500000Y-152652000D02*
X140442857Y-152594857D01*
X138214285Y-153510285D02*
X138100000Y-153453142D01*
X138100000Y-153453142D02*
X137928571Y-153453142D01*
X137928571Y-153453142D02*
X137757142Y-153510285D01*
X137757142Y-153510285D02*
X137642857Y-153624571D01*
X137642857Y-153624571D02*
X137585714Y-153738857D01*
X137585714Y-153738857D02*
X137528571Y-153967428D01*
X137528571Y-153967428D02*
X137528571Y-154138857D01*
X137528571Y-154138857D02*
X137585714Y-154367428D01*
X137585714Y-154367428D02*
X137642857Y-154481714D01*
X137642857Y-154481714D02*
X137757142Y-154596000D01*
X137757142Y-154596000D02*
X137928571Y-154653142D01*
X137928571Y-154653142D02*
X138042857Y-154653142D01*
X138042857Y-154653142D02*
X138214285Y-154596000D01*
X138214285Y-154596000D02*
X138271428Y-154538857D01*
X138271428Y-154538857D02*
X138271428Y-154138857D01*
X138271428Y-154138857D02*
X138042857Y-154138857D01*
X138785714Y-154653142D02*
X138785714Y-153453142D01*
X138785714Y-153453142D02*
X139471428Y-154653142D01*
X139471428Y-154653142D02*
X139471428Y-153453142D01*
X140042857Y-154653142D02*
X140042857Y-153453142D01*
X140042857Y-153453142D02*
X140328571Y-153453142D01*
X140328571Y-153453142D02*
X140500000Y-153510285D01*
X140500000Y-153510285D02*
X140614285Y-153624571D01*
X140614285Y-153624571D02*
X140671428Y-153738857D01*
X140671428Y-153738857D02*
X140728571Y-153967428D01*
X140728571Y-153967428D02*
X140728571Y-154138857D01*
X140728571Y-154138857D02*
X140671428Y-154367428D01*
X140671428Y-154367428D02*
X140614285Y-154481714D01*
X140614285Y-154481714D02*
X140500000Y-154596000D01*
X140500000Y-154596000D02*
X140328571Y-154653142D01*
X140328571Y-154653142D02*
X140042857Y-154653142D01*
D10*
X174521428Y-39853142D02*
X175321428Y-39853142D01*
X175321428Y-39853142D02*
X174521428Y-41053142D01*
X174521428Y-41053142D02*
X175321428Y-41053142D01*
X176407142Y-41053142D02*
X175721428Y-41053142D01*
X176064285Y-41053142D02*
X176064285Y-39853142D01*
X176064285Y-39853142D02*
X175949999Y-40024571D01*
X175949999Y-40024571D02*
X175835714Y-40138857D01*
X175835714Y-40138857D02*
X175721428Y-40196000D01*
D11*
X164114285Y-149565142D02*
X164514285Y-150765142D01*
X164514285Y-150765142D02*
X164914285Y-149565142D01*
X165999999Y-150650857D02*
X165942856Y-150708000D01*
X165942856Y-150708000D02*
X165771428Y-150765142D01*
X165771428Y-150765142D02*
X165657142Y-150765142D01*
X165657142Y-150765142D02*
X165485713Y-150708000D01*
X165485713Y-150708000D02*
X165371428Y-150593714D01*
X165371428Y-150593714D02*
X165314285Y-150479428D01*
X165314285Y-150479428D02*
X165257142Y-150250857D01*
X165257142Y-150250857D02*
X165257142Y-150079428D01*
X165257142Y-150079428D02*
X165314285Y-149850857D01*
X165314285Y-149850857D02*
X165371428Y-149736571D01*
X165371428Y-149736571D02*
X165485713Y-149622285D01*
X165485713Y-149622285D02*
X165657142Y-149565142D01*
X165657142Y-149565142D02*
X165771428Y-149565142D01*
X165771428Y-149565142D02*
X165942856Y-149622285D01*
X165942856Y-149622285D02*
X165999999Y-149679428D01*
X167199999Y-150650857D02*
X167142856Y-150708000D01*
X167142856Y-150708000D02*
X166971428Y-150765142D01*
X166971428Y-150765142D02*
X166857142Y-150765142D01*
X166857142Y-150765142D02*
X166685713Y-150708000D01*
X166685713Y-150708000D02*
X166571428Y-150593714D01*
X166571428Y-150593714D02*
X166514285Y-150479428D01*
X166514285Y-150479428D02*
X166457142Y-150250857D01*
X166457142Y-150250857D02*
X166457142Y-150079428D01*
X166457142Y-150079428D02*
X166514285Y-149850857D01*
X166514285Y-149850857D02*
X166571428Y-149736571D01*
X166571428Y-149736571D02*
X166685713Y-149622285D01*
X166685713Y-149622285D02*
X166857142Y-149565142D01*
X166857142Y-149565142D02*
X166971428Y-149565142D01*
X166971428Y-149565142D02*
X167142856Y-149622285D01*
X167142856Y-149622285D02*
X167199999Y-149679428D01*
X164285714Y-152709142D02*
X164285714Y-151509142D01*
X165085714Y-151509142D02*
X165314286Y-151509142D01*
X165314286Y-151509142D02*
X165428571Y-151566285D01*
X165428571Y-151566285D02*
X165542857Y-151680571D01*
X165542857Y-151680571D02*
X165600000Y-151909142D01*
X165600000Y-151909142D02*
X165600000Y-152309142D01*
X165600000Y-152309142D02*
X165542857Y-152537714D01*
X165542857Y-152537714D02*
X165428571Y-152652000D01*
X165428571Y-152652000D02*
X165314286Y-152709142D01*
X165314286Y-152709142D02*
X165085714Y-152709142D01*
X165085714Y-152709142D02*
X164971429Y-152652000D01*
X164971429Y-152652000D02*
X164857143Y-152537714D01*
X164857143Y-152537714D02*
X164800000Y-152309142D01*
X164800000Y-152309142D02*
X164800000Y-151909142D01*
X164800000Y-151909142D02*
X164857143Y-151680571D01*
X164857143Y-151680571D02*
X164971429Y-151566285D01*
X164971429Y-151566285D02*
X165085714Y-151509142D01*
X166742857Y-152709142D02*
X166057143Y-152709142D01*
X166400000Y-152709142D02*
X166400000Y-151509142D01*
X166400000Y-151509142D02*
X166285714Y-151680571D01*
X166285714Y-151680571D02*
X166171429Y-151794857D01*
X166171429Y-151794857D02*
X166057143Y-151852000D01*
X167200000Y-151623428D02*
X167257143Y-151566285D01*
X167257143Y-151566285D02*
X167371429Y-151509142D01*
X167371429Y-151509142D02*
X167657143Y-151509142D01*
X167657143Y-151509142D02*
X167771429Y-151566285D01*
X167771429Y-151566285D02*
X167828571Y-151623428D01*
X167828571Y-151623428D02*
X167885714Y-151737714D01*
X167885714Y-151737714D02*
X167885714Y-151852000D01*
X167885714Y-151852000D02*
X167828571Y-152023428D01*
X167828571Y-152023428D02*
X167142857Y-152709142D01*
X167142857Y-152709142D02*
X167885714Y-152709142D01*
X164914285Y-153510285D02*
X164800000Y-153453142D01*
X164800000Y-153453142D02*
X164628571Y-153453142D01*
X164628571Y-153453142D02*
X164457142Y-153510285D01*
X164457142Y-153510285D02*
X164342857Y-153624571D01*
X164342857Y-153624571D02*
X164285714Y-153738857D01*
X164285714Y-153738857D02*
X164228571Y-153967428D01*
X164228571Y-153967428D02*
X164228571Y-154138857D01*
X164228571Y-154138857D02*
X164285714Y-154367428D01*
X164285714Y-154367428D02*
X164342857Y-154481714D01*
X164342857Y-154481714D02*
X164457142Y-154596000D01*
X164457142Y-154596000D02*
X164628571Y-154653142D01*
X164628571Y-154653142D02*
X164742857Y-154653142D01*
X164742857Y-154653142D02*
X164914285Y-154596000D01*
X164914285Y-154596000D02*
X164971428Y-154538857D01*
X164971428Y-154538857D02*
X164971428Y-154138857D01*
X164971428Y-154138857D02*
X164742857Y-154138857D01*
X165485714Y-154653142D02*
X165485714Y-153453142D01*
X165485714Y-153453142D02*
X166171428Y-154653142D01*
X166171428Y-154653142D02*
X166171428Y-153453142D01*
X166742857Y-154653142D02*
X166742857Y-153453142D01*
X166742857Y-153453142D02*
X167028571Y-153453142D01*
X167028571Y-153453142D02*
X167200000Y-153510285D01*
X167200000Y-153510285D02*
X167314285Y-153624571D01*
X167314285Y-153624571D02*
X167371428Y-153738857D01*
X167371428Y-153738857D02*
X167428571Y-153967428D01*
X167428571Y-153967428D02*
X167428571Y-154138857D01*
X167428571Y-154138857D02*
X167371428Y-154367428D01*
X167371428Y-154367428D02*
X167314285Y-154481714D01*
X167314285Y-154481714D02*
X167200000Y-154596000D01*
X167200000Y-154596000D02*
X167028571Y-154653142D01*
X167028571Y-154653142D02*
X166742857Y-154653142D01*
D10*
X10595000Y-26692857D02*
X10595000Y-25550000D01*
X10357142Y-127445000D02*
X11500000Y-127445000D01*
X10928571Y-128016428D02*
X10928571Y-126873571D01*
D12*
X76511904Y-175075238D02*
X76416666Y-175027619D01*
X76416666Y-175027619D02*
X76273809Y-175027619D01*
X76273809Y-175027619D02*
X76130952Y-175075238D01*
X76130952Y-175075238D02*
X76035714Y-175170476D01*
X76035714Y-175170476D02*
X75988095Y-175265714D01*
X75988095Y-175265714D02*
X75940476Y-175456190D01*
X75940476Y-175456190D02*
X75940476Y-175599047D01*
X75940476Y-175599047D02*
X75988095Y-175789523D01*
X75988095Y-175789523D02*
X76035714Y-175884761D01*
X76035714Y-175884761D02*
X76130952Y-175980000D01*
X76130952Y-175980000D02*
X76273809Y-176027619D01*
X76273809Y-176027619D02*
X76369047Y-176027619D01*
X76369047Y-176027619D02*
X76511904Y-175980000D01*
X76511904Y-175980000D02*
X76559523Y-175932380D01*
X76559523Y-175932380D02*
X76559523Y-175599047D01*
X76559523Y-175599047D02*
X76369047Y-175599047D01*
D10*
X59807142Y-176816428D02*
X59807142Y-178030714D01*
X59807142Y-178030714D02*
X59878571Y-178173571D01*
X59878571Y-178173571D02*
X59950000Y-178245000D01*
X59950000Y-178245000D02*
X60092857Y-178316428D01*
X60092857Y-178316428D02*
X60378571Y-178316428D01*
X60378571Y-178316428D02*
X60521428Y-178245000D01*
X60521428Y-178245000D02*
X60592857Y-178173571D01*
X60592857Y-178173571D02*
X60664285Y-178030714D01*
X60664285Y-178030714D02*
X60664285Y-176816428D01*
X61307143Y-177887857D02*
X62021429Y-177887857D01*
X61164286Y-178316428D02*
X61664286Y-176816428D01*
X61664286Y-176816428D02*
X62164286Y-178316428D01*
X63521428Y-178316428D02*
X63021428Y-177602142D01*
X62664285Y-178316428D02*
X62664285Y-176816428D01*
X62664285Y-176816428D02*
X63235714Y-176816428D01*
X63235714Y-176816428D02*
X63378571Y-176887857D01*
X63378571Y-176887857D02*
X63450000Y-176959285D01*
X63450000Y-176959285D02*
X63521428Y-177102142D01*
X63521428Y-177102142D02*
X63521428Y-177316428D01*
X63521428Y-177316428D02*
X63450000Y-177459285D01*
X63450000Y-177459285D02*
X63378571Y-177530714D01*
X63378571Y-177530714D02*
X63235714Y-177602142D01*
X63235714Y-177602142D02*
X62664285Y-177602142D01*
X63950000Y-176816428D02*
X64807143Y-176816428D01*
X64378571Y-178316428D02*
X64378571Y-176816428D01*
X174478571Y-105110285D02*
X175050000Y-105110285D01*
X174364285Y-105453142D02*
X174764285Y-104253142D01*
X174764285Y-104253142D02*
X175164285Y-105453142D01*
X176192856Y-105453142D02*
X175507142Y-105453142D01*
X175849999Y-105453142D02*
X175849999Y-104253142D01*
X175849999Y-104253142D02*
X175735713Y-104424571D01*
X175735713Y-104424571D02*
X175621428Y-104538857D01*
X175621428Y-104538857D02*
X175507142Y-104596000D01*
X175107142Y-114453142D02*
X174535714Y-114453142D01*
X174535714Y-114453142D02*
X174478571Y-115024571D01*
X174478571Y-115024571D02*
X174535714Y-114967428D01*
X174535714Y-114967428D02*
X174650000Y-114910285D01*
X174650000Y-114910285D02*
X174935714Y-114910285D01*
X174935714Y-114910285D02*
X175050000Y-114967428D01*
X175050000Y-114967428D02*
X175107142Y-115024571D01*
X175107142Y-115024571D02*
X175164285Y-115138857D01*
X175164285Y-115138857D02*
X175164285Y-115424571D01*
X175164285Y-115424571D02*
X175107142Y-115538857D01*
X175107142Y-115538857D02*
X175050000Y-115596000D01*
X175050000Y-115596000D02*
X174935714Y-115653142D01*
X174935714Y-115653142D02*
X174650000Y-115653142D01*
X174650000Y-115653142D02*
X174535714Y-115596000D01*
X174535714Y-115596000D02*
X174478571Y-115538857D01*
X175507142Y-114453142D02*
X175907142Y-115653142D01*
X175907142Y-115653142D02*
X176307142Y-114453142D01*
X10495000Y-39942857D02*
X10495000Y-38800000D01*
D12*
X73659523Y-175927619D02*
X73326190Y-175451428D01*
X73088095Y-175927619D02*
X73088095Y-174927619D01*
X73088095Y-174927619D02*
X73469047Y-174927619D01*
X73469047Y-174927619D02*
X73564285Y-174975238D01*
X73564285Y-174975238D02*
X73611904Y-175022857D01*
X73611904Y-175022857D02*
X73659523Y-175118095D01*
X73659523Y-175118095D02*
X73659523Y-175260952D01*
X73659523Y-175260952D02*
X73611904Y-175356190D01*
X73611904Y-175356190D02*
X73564285Y-175403809D01*
X73564285Y-175403809D02*
X73469047Y-175451428D01*
X73469047Y-175451428D02*
X73088095Y-175451428D01*
X73992857Y-174927619D02*
X74659523Y-175927619D01*
X74659523Y-174927619D02*
X73992857Y-175927619D01*
D10*
X13542857Y-74966428D02*
X13828571Y-74966428D01*
X13828571Y-74966428D02*
X13971428Y-75037857D01*
X13971428Y-75037857D02*
X14114285Y-75180714D01*
X14114285Y-75180714D02*
X14185714Y-75466428D01*
X14185714Y-75466428D02*
X14185714Y-75966428D01*
X14185714Y-75966428D02*
X14114285Y-76252142D01*
X14114285Y-76252142D02*
X13971428Y-76395000D01*
X13971428Y-76395000D02*
X13828571Y-76466428D01*
X13828571Y-76466428D02*
X13542857Y-76466428D01*
X13542857Y-76466428D02*
X13400000Y-76395000D01*
X13400000Y-76395000D02*
X13257142Y-76252142D01*
X13257142Y-76252142D02*
X13185714Y-75966428D01*
X13185714Y-75966428D02*
X13185714Y-75466428D01*
X13185714Y-75466428D02*
X13257142Y-75180714D01*
X13257142Y-75180714D02*
X13400000Y-75037857D01*
X13400000Y-75037857D02*
X13542857Y-74966428D01*
X14828571Y-76466428D02*
X14828571Y-74966428D01*
X14828571Y-74966428D02*
X15185714Y-74966428D01*
X15185714Y-74966428D02*
X15400000Y-75037857D01*
X15400000Y-75037857D02*
X15542857Y-75180714D01*
X15542857Y-75180714D02*
X15614286Y-75323571D01*
X15614286Y-75323571D02*
X15685714Y-75609285D01*
X15685714Y-75609285D02*
X15685714Y-75823571D01*
X15685714Y-75823571D02*
X15614286Y-76109285D01*
X15614286Y-76109285D02*
X15542857Y-76252142D01*
X15542857Y-76252142D02*
X15400000Y-76395000D01*
X15400000Y-76395000D02*
X15185714Y-76466428D01*
X15185714Y-76466428D02*
X14828571Y-76466428D01*
X16257143Y-75109285D02*
X16328571Y-75037857D01*
X16328571Y-75037857D02*
X16471429Y-74966428D01*
X16471429Y-74966428D02*
X16828571Y-74966428D01*
X16828571Y-74966428D02*
X16971429Y-75037857D01*
X16971429Y-75037857D02*
X17042857Y-75109285D01*
X17042857Y-75109285D02*
X17114286Y-75252142D01*
X17114286Y-75252142D02*
X17114286Y-75395000D01*
X17114286Y-75395000D02*
X17042857Y-75609285D01*
X17042857Y-75609285D02*
X16185714Y-76466428D01*
X16185714Y-76466428D02*
X17114286Y-76466428D01*
X17400000Y-76609285D02*
X18542857Y-76609285D01*
X18899999Y-76466428D02*
X18899999Y-74966428D01*
X18899999Y-74966428D02*
X19471428Y-74966428D01*
X19471428Y-74966428D02*
X19614285Y-75037857D01*
X19614285Y-75037857D02*
X19685714Y-75109285D01*
X19685714Y-75109285D02*
X19757142Y-75252142D01*
X19757142Y-75252142D02*
X19757142Y-75466428D01*
X19757142Y-75466428D02*
X19685714Y-75609285D01*
X19685714Y-75609285D02*
X19614285Y-75680714D01*
X19614285Y-75680714D02*
X19471428Y-75752142D01*
X19471428Y-75752142D02*
X18899999Y-75752142D01*
X20257142Y-74966428D02*
X20614285Y-76466428D01*
X20614285Y-76466428D02*
X20899999Y-75395000D01*
X20899999Y-75395000D02*
X21185714Y-76466428D01*
X21185714Y-76466428D02*
X21542857Y-74966428D01*
X22971428Y-76466428D02*
X22471428Y-75752142D01*
X22114285Y-76466428D02*
X22114285Y-74966428D01*
X22114285Y-74966428D02*
X22685714Y-74966428D01*
X22685714Y-74966428D02*
X22828571Y-75037857D01*
X22828571Y-75037857D02*
X22900000Y-75109285D01*
X22900000Y-75109285D02*
X22971428Y-75252142D01*
X22971428Y-75252142D02*
X22971428Y-75466428D01*
X22971428Y-75466428D02*
X22900000Y-75609285D01*
X22900000Y-75609285D02*
X22828571Y-75680714D01*
X22828571Y-75680714D02*
X22685714Y-75752142D01*
X22685714Y-75752142D02*
X22114285Y-75752142D01*
X10307142Y-132645000D02*
X11450000Y-132645000D01*
X174478571Y-112810285D02*
X175050000Y-112810285D01*
X174364285Y-113153142D02*
X174764285Y-111953142D01*
X174764285Y-111953142D02*
X175164285Y-113153142D01*
X175035714Y-50424571D02*
X175207142Y-50481714D01*
X175207142Y-50481714D02*
X175264285Y-50538857D01*
X175264285Y-50538857D02*
X175321428Y-50653142D01*
X175321428Y-50653142D02*
X175321428Y-50824571D01*
X175321428Y-50824571D02*
X175264285Y-50938857D01*
X175264285Y-50938857D02*
X175207142Y-50996000D01*
X175207142Y-50996000D02*
X175092857Y-51053142D01*
X175092857Y-51053142D02*
X174635714Y-51053142D01*
X174635714Y-51053142D02*
X174635714Y-49853142D01*
X174635714Y-49853142D02*
X175035714Y-49853142D01*
X175035714Y-49853142D02*
X175150000Y-49910285D01*
X175150000Y-49910285D02*
X175207142Y-49967428D01*
X175207142Y-49967428D02*
X175264285Y-50081714D01*
X175264285Y-50081714D02*
X175264285Y-50196000D01*
X175264285Y-50196000D02*
X175207142Y-50310285D01*
X175207142Y-50310285D02*
X175150000Y-50367428D01*
X175150000Y-50367428D02*
X175035714Y-50424571D01*
X175035714Y-50424571D02*
X174635714Y-50424571D01*
D12*
X171809523Y-161832380D02*
X171761904Y-161880000D01*
X171761904Y-161880000D02*
X171619047Y-161927619D01*
X171619047Y-161927619D02*
X171523809Y-161927619D01*
X171523809Y-161927619D02*
X171380952Y-161880000D01*
X171380952Y-161880000D02*
X171285714Y-161784761D01*
X171285714Y-161784761D02*
X171238095Y-161689523D01*
X171238095Y-161689523D02*
X171190476Y-161499047D01*
X171190476Y-161499047D02*
X171190476Y-161356190D01*
X171190476Y-161356190D02*
X171238095Y-161165714D01*
X171238095Y-161165714D02*
X171285714Y-161070476D01*
X171285714Y-161070476D02*
X171380952Y-160975238D01*
X171380952Y-160975238D02*
X171523809Y-160927619D01*
X171523809Y-160927619D02*
X171619047Y-160927619D01*
X171619047Y-160927619D02*
X171761904Y-160975238D01*
X171761904Y-160975238D02*
X171809523Y-161022857D01*
X172190476Y-161641904D02*
X172666666Y-161641904D01*
X172095238Y-161927619D02*
X172428571Y-160927619D01*
X172428571Y-160927619D02*
X172761904Y-161927619D01*
X173095238Y-161927619D02*
X173095238Y-160927619D01*
X173095238Y-160927619D02*
X173666666Y-161927619D01*
X173666666Y-161927619D02*
X173666666Y-160927619D01*
X173904762Y-162022857D02*
X174666666Y-162022857D01*
X174904762Y-161927619D02*
X174904762Y-160927619D01*
X174904762Y-161403809D02*
X175476190Y-161403809D01*
X175476190Y-161927619D02*
X175476190Y-160927619D01*
D10*
X175164285Y-96560285D02*
X175050000Y-96503142D01*
X175050000Y-96503142D02*
X174878571Y-96503142D01*
X174878571Y-96503142D02*
X174707142Y-96560285D01*
X174707142Y-96560285D02*
X174592857Y-96674571D01*
X174592857Y-96674571D02*
X174535714Y-96788857D01*
X174535714Y-96788857D02*
X174478571Y-97017428D01*
X174478571Y-97017428D02*
X174478571Y-97188857D01*
X174478571Y-97188857D02*
X174535714Y-97417428D01*
X174535714Y-97417428D02*
X174592857Y-97531714D01*
X174592857Y-97531714D02*
X174707142Y-97646000D01*
X174707142Y-97646000D02*
X174878571Y-97703142D01*
X174878571Y-97703142D02*
X174992857Y-97703142D01*
X174992857Y-97703142D02*
X175164285Y-97646000D01*
X175164285Y-97646000D02*
X175221428Y-97588857D01*
X175221428Y-97588857D02*
X175221428Y-97188857D01*
X175221428Y-97188857D02*
X174992857Y-97188857D01*
X174421428Y-99303142D02*
X175221428Y-99303142D01*
X175221428Y-99303142D02*
X174421428Y-100503142D01*
X174421428Y-100503142D02*
X175221428Y-100503142D01*
X176307142Y-100503142D02*
X175621428Y-100503142D01*
X175964285Y-100503142D02*
X175964285Y-99303142D01*
X175964285Y-99303142D02*
X175849999Y-99474571D01*
X175849999Y-99474571D02*
X175735714Y-99588857D01*
X175735714Y-99588857D02*
X175621428Y-99646000D01*
D11*
X144014285Y-149565142D02*
X144414285Y-150765142D01*
X144414285Y-150765142D02*
X144814285Y-149565142D01*
X145899999Y-150650857D02*
X145842856Y-150708000D01*
X145842856Y-150708000D02*
X145671428Y-150765142D01*
X145671428Y-150765142D02*
X145557142Y-150765142D01*
X145557142Y-150765142D02*
X145385713Y-150708000D01*
X145385713Y-150708000D02*
X145271428Y-150593714D01*
X145271428Y-150593714D02*
X145214285Y-150479428D01*
X145214285Y-150479428D02*
X145157142Y-150250857D01*
X145157142Y-150250857D02*
X145157142Y-150079428D01*
X145157142Y-150079428D02*
X145214285Y-149850857D01*
X145214285Y-149850857D02*
X145271428Y-149736571D01*
X145271428Y-149736571D02*
X145385713Y-149622285D01*
X145385713Y-149622285D02*
X145557142Y-149565142D01*
X145557142Y-149565142D02*
X145671428Y-149565142D01*
X145671428Y-149565142D02*
X145842856Y-149622285D01*
X145842856Y-149622285D02*
X145899999Y-149679428D01*
X147099999Y-150650857D02*
X147042856Y-150708000D01*
X147042856Y-150708000D02*
X146871428Y-150765142D01*
X146871428Y-150765142D02*
X146757142Y-150765142D01*
X146757142Y-150765142D02*
X146585713Y-150708000D01*
X146585713Y-150708000D02*
X146471428Y-150593714D01*
X146471428Y-150593714D02*
X146414285Y-150479428D01*
X146414285Y-150479428D02*
X146357142Y-150250857D01*
X146357142Y-150250857D02*
X146357142Y-150079428D01*
X146357142Y-150079428D02*
X146414285Y-149850857D01*
X146414285Y-149850857D02*
X146471428Y-149736571D01*
X146471428Y-149736571D02*
X146585713Y-149622285D01*
X146585713Y-149622285D02*
X146757142Y-149565142D01*
X146757142Y-149565142D02*
X146871428Y-149565142D01*
X146871428Y-149565142D02*
X147042856Y-149622285D01*
X147042856Y-149622285D02*
X147099999Y-149679428D01*
X144185714Y-152709142D02*
X144185714Y-151509142D01*
X144985714Y-151509142D02*
X145214286Y-151509142D01*
X145214286Y-151509142D02*
X145328571Y-151566285D01*
X145328571Y-151566285D02*
X145442857Y-151680571D01*
X145442857Y-151680571D02*
X145500000Y-151909142D01*
X145500000Y-151909142D02*
X145500000Y-152309142D01*
X145500000Y-152309142D02*
X145442857Y-152537714D01*
X145442857Y-152537714D02*
X145328571Y-152652000D01*
X145328571Y-152652000D02*
X145214286Y-152709142D01*
X145214286Y-152709142D02*
X144985714Y-152709142D01*
X144985714Y-152709142D02*
X144871429Y-152652000D01*
X144871429Y-152652000D02*
X144757143Y-152537714D01*
X144757143Y-152537714D02*
X144700000Y-152309142D01*
X144700000Y-152309142D02*
X144700000Y-151909142D01*
X144700000Y-151909142D02*
X144757143Y-151680571D01*
X144757143Y-151680571D02*
X144871429Y-151566285D01*
X144871429Y-151566285D02*
X144985714Y-151509142D01*
X145957143Y-151623428D02*
X146014286Y-151566285D01*
X146014286Y-151566285D02*
X146128572Y-151509142D01*
X146128572Y-151509142D02*
X146414286Y-151509142D01*
X146414286Y-151509142D02*
X146528572Y-151566285D01*
X146528572Y-151566285D02*
X146585714Y-151623428D01*
X146585714Y-151623428D02*
X146642857Y-151737714D01*
X146642857Y-151737714D02*
X146642857Y-151852000D01*
X146642857Y-151852000D02*
X146585714Y-152023428D01*
X146585714Y-152023428D02*
X145900000Y-152709142D01*
X145900000Y-152709142D02*
X146642857Y-152709142D01*
X147671429Y-151509142D02*
X147442857Y-151509142D01*
X147442857Y-151509142D02*
X147328571Y-151566285D01*
X147328571Y-151566285D02*
X147271429Y-151623428D01*
X147271429Y-151623428D02*
X147157143Y-151794857D01*
X147157143Y-151794857D02*
X147100000Y-152023428D01*
X147100000Y-152023428D02*
X147100000Y-152480571D01*
X147100000Y-152480571D02*
X147157143Y-152594857D01*
X147157143Y-152594857D02*
X147214286Y-152652000D01*
X147214286Y-152652000D02*
X147328571Y-152709142D01*
X147328571Y-152709142D02*
X147557143Y-152709142D01*
X147557143Y-152709142D02*
X147671429Y-152652000D01*
X147671429Y-152652000D02*
X147728571Y-152594857D01*
X147728571Y-152594857D02*
X147785714Y-152480571D01*
X147785714Y-152480571D02*
X147785714Y-152194857D01*
X147785714Y-152194857D02*
X147728571Y-152080571D01*
X147728571Y-152080571D02*
X147671429Y-152023428D01*
X147671429Y-152023428D02*
X147557143Y-151966285D01*
X147557143Y-151966285D02*
X147328571Y-151966285D01*
X147328571Y-151966285D02*
X147214286Y-152023428D01*
X147214286Y-152023428D02*
X147157143Y-152080571D01*
X147157143Y-152080571D02*
X147100000Y-152194857D01*
X144814285Y-153510285D02*
X144700000Y-153453142D01*
X144700000Y-153453142D02*
X144528571Y-153453142D01*
X144528571Y-153453142D02*
X144357142Y-153510285D01*
X144357142Y-153510285D02*
X144242857Y-153624571D01*
X144242857Y-153624571D02*
X144185714Y-153738857D01*
X144185714Y-153738857D02*
X144128571Y-153967428D01*
X144128571Y-153967428D02*
X144128571Y-154138857D01*
X144128571Y-154138857D02*
X144185714Y-154367428D01*
X144185714Y-154367428D02*
X144242857Y-154481714D01*
X144242857Y-154481714D02*
X144357142Y-154596000D01*
X144357142Y-154596000D02*
X144528571Y-154653142D01*
X144528571Y-154653142D02*
X144642857Y-154653142D01*
X144642857Y-154653142D02*
X144814285Y-154596000D01*
X144814285Y-154596000D02*
X144871428Y-154538857D01*
X144871428Y-154538857D02*
X144871428Y-154138857D01*
X144871428Y-154138857D02*
X144642857Y-154138857D01*
X145385714Y-154653142D02*
X145385714Y-153453142D01*
X145385714Y-153453142D02*
X146071428Y-154653142D01*
X146071428Y-154653142D02*
X146071428Y-153453142D01*
X146642857Y-154653142D02*
X146642857Y-153453142D01*
X146642857Y-153453142D02*
X146928571Y-153453142D01*
X146928571Y-153453142D02*
X147100000Y-153510285D01*
X147100000Y-153510285D02*
X147214285Y-153624571D01*
X147214285Y-153624571D02*
X147271428Y-153738857D01*
X147271428Y-153738857D02*
X147328571Y-153967428D01*
X147328571Y-153967428D02*
X147328571Y-154138857D01*
X147328571Y-154138857D02*
X147271428Y-154367428D01*
X147271428Y-154367428D02*
X147214285Y-154481714D01*
X147214285Y-154481714D02*
X147100000Y-154596000D01*
X147100000Y-154596000D02*
X146928571Y-154653142D01*
X146928571Y-154653142D02*
X146642857Y-154653142D01*
D10*
X113857142Y-167130714D02*
X114071428Y-167202142D01*
X114071428Y-167202142D02*
X114142857Y-167273571D01*
X114142857Y-167273571D02*
X114214285Y-167416428D01*
X114214285Y-167416428D02*
X114214285Y-167630714D01*
X114214285Y-167630714D02*
X114142857Y-167773571D01*
X114142857Y-167773571D02*
X114071428Y-167845000D01*
X114071428Y-167845000D02*
X113928571Y-167916428D01*
X113928571Y-167916428D02*
X113357142Y-167916428D01*
X113357142Y-167916428D02*
X113357142Y-166416428D01*
X113357142Y-166416428D02*
X113857142Y-166416428D01*
X113857142Y-166416428D02*
X114000000Y-166487857D01*
X114000000Y-166487857D02*
X114071428Y-166559285D01*
X114071428Y-166559285D02*
X114142857Y-166702142D01*
X114142857Y-166702142D02*
X114142857Y-166845000D01*
X114142857Y-166845000D02*
X114071428Y-166987857D01*
X114071428Y-166987857D02*
X114000000Y-167059285D01*
X114000000Y-167059285D02*
X113857142Y-167130714D01*
X113857142Y-167130714D02*
X113357142Y-167130714D01*
X115142857Y-166416428D02*
X115428571Y-166416428D01*
X115428571Y-166416428D02*
X115571428Y-166487857D01*
X115571428Y-166487857D02*
X115714285Y-166630714D01*
X115714285Y-166630714D02*
X115785714Y-166916428D01*
X115785714Y-166916428D02*
X115785714Y-167416428D01*
X115785714Y-167416428D02*
X115714285Y-167702142D01*
X115714285Y-167702142D02*
X115571428Y-167845000D01*
X115571428Y-167845000D02*
X115428571Y-167916428D01*
X115428571Y-167916428D02*
X115142857Y-167916428D01*
X115142857Y-167916428D02*
X115000000Y-167845000D01*
X115000000Y-167845000D02*
X114857142Y-167702142D01*
X114857142Y-167702142D02*
X114785714Y-167416428D01*
X114785714Y-167416428D02*
X114785714Y-166916428D01*
X114785714Y-166916428D02*
X114857142Y-166630714D01*
X114857142Y-166630714D02*
X115000000Y-166487857D01*
X115000000Y-166487857D02*
X115142857Y-166416428D01*
X116714286Y-166416428D02*
X117000000Y-166416428D01*
X117000000Y-166416428D02*
X117142857Y-166487857D01*
X117142857Y-166487857D02*
X117285714Y-166630714D01*
X117285714Y-166630714D02*
X117357143Y-166916428D01*
X117357143Y-166916428D02*
X117357143Y-167416428D01*
X117357143Y-167416428D02*
X117285714Y-167702142D01*
X117285714Y-167702142D02*
X117142857Y-167845000D01*
X117142857Y-167845000D02*
X117000000Y-167916428D01*
X117000000Y-167916428D02*
X116714286Y-167916428D01*
X116714286Y-167916428D02*
X116571429Y-167845000D01*
X116571429Y-167845000D02*
X116428571Y-167702142D01*
X116428571Y-167702142D02*
X116357143Y-167416428D01*
X116357143Y-167416428D02*
X116357143Y-166916428D01*
X116357143Y-166916428D02*
X116428571Y-166630714D01*
X116428571Y-166630714D02*
X116571429Y-166487857D01*
X116571429Y-166487857D02*
X116714286Y-166416428D01*
X117785715Y-166416428D02*
X118642858Y-166416428D01*
X118214286Y-167916428D02*
X118214286Y-166416428D01*
X13707142Y-20930714D02*
X14207142Y-20930714D01*
X14421428Y-21716428D02*
X13707142Y-21716428D01*
X13707142Y-21716428D02*
X13707142Y-20216428D01*
X13707142Y-20216428D02*
X14421428Y-20216428D01*
X14921428Y-20216428D02*
X15921428Y-21716428D01*
X15921428Y-20216428D02*
X14921428Y-21716428D01*
X16278571Y-20216428D02*
X17135714Y-20216428D01*
X16707142Y-21716428D02*
X16707142Y-20216428D01*
X17278571Y-21859285D02*
X18421428Y-21859285D01*
X18778570Y-21716428D02*
X18778570Y-20216428D01*
X18778570Y-20216428D02*
X19349999Y-20216428D01*
X19349999Y-20216428D02*
X19492856Y-20287857D01*
X19492856Y-20287857D02*
X19564285Y-20359285D01*
X19564285Y-20359285D02*
X19635713Y-20502142D01*
X19635713Y-20502142D02*
X19635713Y-20716428D01*
X19635713Y-20716428D02*
X19564285Y-20859285D01*
X19564285Y-20859285D02*
X19492856Y-20930714D01*
X19492856Y-20930714D02*
X19349999Y-21002142D01*
X19349999Y-21002142D02*
X18778570Y-21002142D01*
X20135713Y-20216428D02*
X20492856Y-21716428D01*
X20492856Y-21716428D02*
X20778570Y-20645000D01*
X20778570Y-20645000D02*
X21064285Y-21716428D01*
X21064285Y-21716428D02*
X21421428Y-20216428D01*
X22849999Y-21716428D02*
X22349999Y-21002142D01*
X21992856Y-21716428D02*
X21992856Y-20216428D01*
X21992856Y-20216428D02*
X22564285Y-20216428D01*
X22564285Y-20216428D02*
X22707142Y-20287857D01*
X22707142Y-20287857D02*
X22778571Y-20359285D01*
X22778571Y-20359285D02*
X22849999Y-20502142D01*
X22849999Y-20502142D02*
X22849999Y-20716428D01*
X22849999Y-20716428D02*
X22778571Y-20859285D01*
X22778571Y-20859285D02*
X22707142Y-20930714D01*
X22707142Y-20930714D02*
X22564285Y-21002142D01*
X22564285Y-21002142D02*
X21992856Y-21002142D01*
X174935714Y-109874571D02*
X175107142Y-109931714D01*
X175107142Y-109931714D02*
X175164285Y-109988857D01*
X175164285Y-109988857D02*
X175221428Y-110103142D01*
X175221428Y-110103142D02*
X175221428Y-110274571D01*
X175221428Y-110274571D02*
X175164285Y-110388857D01*
X175164285Y-110388857D02*
X175107142Y-110446000D01*
X175107142Y-110446000D02*
X174992857Y-110503142D01*
X174992857Y-110503142D02*
X174535714Y-110503142D01*
X174535714Y-110503142D02*
X174535714Y-109303142D01*
X174535714Y-109303142D02*
X174935714Y-109303142D01*
X174935714Y-109303142D02*
X175050000Y-109360285D01*
X175050000Y-109360285D02*
X175107142Y-109417428D01*
X175107142Y-109417428D02*
X175164285Y-109531714D01*
X175164285Y-109531714D02*
X175164285Y-109646000D01*
X175164285Y-109646000D02*
X175107142Y-109760285D01*
X175107142Y-109760285D02*
X175050000Y-109817428D01*
X175050000Y-109817428D02*
X174935714Y-109874571D01*
X174935714Y-109874571D02*
X174535714Y-109874571D01*
X174521428Y-47303142D02*
X175321428Y-47303142D01*
X175321428Y-47303142D02*
X174521428Y-48503142D01*
X174521428Y-48503142D02*
X175321428Y-48503142D01*
D11*
X157714285Y-149565142D02*
X158114285Y-150765142D01*
X158114285Y-150765142D02*
X158514285Y-149565142D01*
X159599999Y-150650857D02*
X159542856Y-150708000D01*
X159542856Y-150708000D02*
X159371428Y-150765142D01*
X159371428Y-150765142D02*
X159257142Y-150765142D01*
X159257142Y-150765142D02*
X159085713Y-150708000D01*
X159085713Y-150708000D02*
X158971428Y-150593714D01*
X158971428Y-150593714D02*
X158914285Y-150479428D01*
X158914285Y-150479428D02*
X158857142Y-150250857D01*
X158857142Y-150250857D02*
X158857142Y-150079428D01*
X158857142Y-150079428D02*
X158914285Y-149850857D01*
X158914285Y-149850857D02*
X158971428Y-149736571D01*
X158971428Y-149736571D02*
X159085713Y-149622285D01*
X159085713Y-149622285D02*
X159257142Y-149565142D01*
X159257142Y-149565142D02*
X159371428Y-149565142D01*
X159371428Y-149565142D02*
X159542856Y-149622285D01*
X159542856Y-149622285D02*
X159599999Y-149679428D01*
X160799999Y-150650857D02*
X160742856Y-150708000D01*
X160742856Y-150708000D02*
X160571428Y-150765142D01*
X160571428Y-150765142D02*
X160457142Y-150765142D01*
X160457142Y-150765142D02*
X160285713Y-150708000D01*
X160285713Y-150708000D02*
X160171428Y-150593714D01*
X160171428Y-150593714D02*
X160114285Y-150479428D01*
X160114285Y-150479428D02*
X160057142Y-150250857D01*
X160057142Y-150250857D02*
X160057142Y-150079428D01*
X160057142Y-150079428D02*
X160114285Y-149850857D01*
X160114285Y-149850857D02*
X160171428Y-149736571D01*
X160171428Y-149736571D02*
X160285713Y-149622285D01*
X160285713Y-149622285D02*
X160457142Y-149565142D01*
X160457142Y-149565142D02*
X160571428Y-149565142D01*
X160571428Y-149565142D02*
X160742856Y-149622285D01*
X160742856Y-149622285D02*
X160799999Y-149679428D01*
X157885714Y-152709142D02*
X157885714Y-151509142D01*
X158685714Y-151509142D02*
X158914286Y-151509142D01*
X158914286Y-151509142D02*
X159028571Y-151566285D01*
X159028571Y-151566285D02*
X159142857Y-151680571D01*
X159142857Y-151680571D02*
X159200000Y-151909142D01*
X159200000Y-151909142D02*
X159200000Y-152309142D01*
X159200000Y-152309142D02*
X159142857Y-152537714D01*
X159142857Y-152537714D02*
X159028571Y-152652000D01*
X159028571Y-152652000D02*
X158914286Y-152709142D01*
X158914286Y-152709142D02*
X158685714Y-152709142D01*
X158685714Y-152709142D02*
X158571429Y-152652000D01*
X158571429Y-152652000D02*
X158457143Y-152537714D01*
X158457143Y-152537714D02*
X158400000Y-152309142D01*
X158400000Y-152309142D02*
X158400000Y-151909142D01*
X158400000Y-151909142D02*
X158457143Y-151680571D01*
X158457143Y-151680571D02*
X158571429Y-151566285D01*
X158571429Y-151566285D02*
X158685714Y-151509142D01*
X160342857Y-152709142D02*
X159657143Y-152709142D01*
X160000000Y-152709142D02*
X160000000Y-151509142D01*
X160000000Y-151509142D02*
X159885714Y-151680571D01*
X159885714Y-151680571D02*
X159771429Y-151794857D01*
X159771429Y-151794857D02*
X159657143Y-151852000D01*
X161371429Y-151909142D02*
X161371429Y-152709142D01*
X161085714Y-151452000D02*
X160800000Y-152309142D01*
X160800000Y-152309142D02*
X161542857Y-152309142D01*
X158514285Y-153510285D02*
X158400000Y-153453142D01*
X158400000Y-153453142D02*
X158228571Y-153453142D01*
X158228571Y-153453142D02*
X158057142Y-153510285D01*
X158057142Y-153510285D02*
X157942857Y-153624571D01*
X157942857Y-153624571D02*
X157885714Y-153738857D01*
X157885714Y-153738857D02*
X157828571Y-153967428D01*
X157828571Y-153967428D02*
X157828571Y-154138857D01*
X157828571Y-154138857D02*
X157885714Y-154367428D01*
X157885714Y-154367428D02*
X157942857Y-154481714D01*
X157942857Y-154481714D02*
X158057142Y-154596000D01*
X158057142Y-154596000D02*
X158228571Y-154653142D01*
X158228571Y-154653142D02*
X158342857Y-154653142D01*
X158342857Y-154653142D02*
X158514285Y-154596000D01*
X158514285Y-154596000D02*
X158571428Y-154538857D01*
X158571428Y-154538857D02*
X158571428Y-154138857D01*
X158571428Y-154138857D02*
X158342857Y-154138857D01*
X159085714Y-154653142D02*
X159085714Y-153453142D01*
X159085714Y-153453142D02*
X159771428Y-154653142D01*
X159771428Y-154653142D02*
X159771428Y-153453142D01*
X160342857Y-154653142D02*
X160342857Y-153453142D01*
X160342857Y-153453142D02*
X160628571Y-153453142D01*
X160628571Y-153453142D02*
X160800000Y-153510285D01*
X160800000Y-153510285D02*
X160914285Y-153624571D01*
X160914285Y-153624571D02*
X160971428Y-153738857D01*
X160971428Y-153738857D02*
X161028571Y-153967428D01*
X161028571Y-153967428D02*
X161028571Y-154138857D01*
X161028571Y-154138857D02*
X160971428Y-154367428D01*
X160971428Y-154367428D02*
X160914285Y-154481714D01*
X160914285Y-154481714D02*
X160800000Y-154596000D01*
X160800000Y-154596000D02*
X160628571Y-154653142D01*
X160628571Y-154653142D02*
X160342857Y-154653142D01*
D10*
X175207142Y-55003142D02*
X174635714Y-55003142D01*
X174635714Y-55003142D02*
X174578571Y-55574571D01*
X174578571Y-55574571D02*
X174635714Y-55517428D01*
X174635714Y-55517428D02*
X174750000Y-55460285D01*
X174750000Y-55460285D02*
X175035714Y-55460285D01*
X175035714Y-55460285D02*
X175150000Y-55517428D01*
X175150000Y-55517428D02*
X175207142Y-55574571D01*
X175207142Y-55574571D02*
X175264285Y-55688857D01*
X175264285Y-55688857D02*
X175264285Y-55974571D01*
X175264285Y-55974571D02*
X175207142Y-56088857D01*
X175207142Y-56088857D02*
X175150000Y-56146000D01*
X175150000Y-56146000D02*
X175035714Y-56203142D01*
X175035714Y-56203142D02*
X174750000Y-56203142D01*
X174750000Y-56203142D02*
X174635714Y-56146000D01*
X174635714Y-56146000D02*
X174578571Y-56088857D01*
X175607142Y-55003142D02*
X176007142Y-56203142D01*
X176007142Y-56203142D02*
X176407142Y-55003142D01*
X174935714Y-102174571D02*
X175107142Y-102231714D01*
X175107142Y-102231714D02*
X175164285Y-102288857D01*
X175164285Y-102288857D02*
X175221428Y-102403142D01*
X175221428Y-102403142D02*
X175221428Y-102574571D01*
X175221428Y-102574571D02*
X175164285Y-102688857D01*
X175164285Y-102688857D02*
X175107142Y-102746000D01*
X175107142Y-102746000D02*
X174992857Y-102803142D01*
X174992857Y-102803142D02*
X174535714Y-102803142D01*
X174535714Y-102803142D02*
X174535714Y-101603142D01*
X174535714Y-101603142D02*
X174935714Y-101603142D01*
X174935714Y-101603142D02*
X175050000Y-101660285D01*
X175050000Y-101660285D02*
X175107142Y-101717428D01*
X175107142Y-101717428D02*
X175164285Y-101831714D01*
X175164285Y-101831714D02*
X175164285Y-101946000D01*
X175164285Y-101946000D02*
X175107142Y-102060285D01*
X175107142Y-102060285D02*
X175050000Y-102117428D01*
X175050000Y-102117428D02*
X174935714Y-102174571D01*
X174935714Y-102174571D02*
X174535714Y-102174571D01*
X176364285Y-102803142D02*
X175678571Y-102803142D01*
X176021428Y-102803142D02*
X176021428Y-101603142D01*
X176021428Y-101603142D02*
X175907142Y-101774571D01*
X175907142Y-101774571D02*
X175792857Y-101888857D01*
X175792857Y-101888857D02*
X175678571Y-101946000D01*
X175035714Y-42724571D02*
X175207142Y-42781714D01*
X175207142Y-42781714D02*
X175264285Y-42838857D01*
X175264285Y-42838857D02*
X175321428Y-42953142D01*
X175321428Y-42953142D02*
X175321428Y-43124571D01*
X175321428Y-43124571D02*
X175264285Y-43238857D01*
X175264285Y-43238857D02*
X175207142Y-43296000D01*
X175207142Y-43296000D02*
X175092857Y-43353142D01*
X175092857Y-43353142D02*
X174635714Y-43353142D01*
X174635714Y-43353142D02*
X174635714Y-42153142D01*
X174635714Y-42153142D02*
X175035714Y-42153142D01*
X175035714Y-42153142D02*
X175150000Y-42210285D01*
X175150000Y-42210285D02*
X175207142Y-42267428D01*
X175207142Y-42267428D02*
X175264285Y-42381714D01*
X175264285Y-42381714D02*
X175264285Y-42496000D01*
X175264285Y-42496000D02*
X175207142Y-42610285D01*
X175207142Y-42610285D02*
X175150000Y-42667428D01*
X175150000Y-42667428D02*
X175035714Y-42724571D01*
X175035714Y-42724571D02*
X174635714Y-42724571D01*
X176464285Y-43353142D02*
X175778571Y-43353142D01*
X176121428Y-43353142D02*
X176121428Y-42153142D01*
X176121428Y-42153142D02*
X176007142Y-42324571D01*
X176007142Y-42324571D02*
X175892857Y-42438857D01*
X175892857Y-42438857D02*
X175778571Y-42496000D01*
X10545000Y-44992857D02*
X10545000Y-43850000D01*
X11116428Y-44421428D02*
X9973571Y-44421428D01*
D12*
X171761904Y-166175238D02*
X171666666Y-166127619D01*
X171666666Y-166127619D02*
X171523809Y-166127619D01*
X171523809Y-166127619D02*
X171380952Y-166175238D01*
X171380952Y-166175238D02*
X171285714Y-166270476D01*
X171285714Y-166270476D02*
X171238095Y-166365714D01*
X171238095Y-166365714D02*
X171190476Y-166556190D01*
X171190476Y-166556190D02*
X171190476Y-166699047D01*
X171190476Y-166699047D02*
X171238095Y-166889523D01*
X171238095Y-166889523D02*
X171285714Y-166984761D01*
X171285714Y-166984761D02*
X171380952Y-167080000D01*
X171380952Y-167080000D02*
X171523809Y-167127619D01*
X171523809Y-167127619D02*
X171619047Y-167127619D01*
X171619047Y-167127619D02*
X171761904Y-167080000D01*
X171761904Y-167080000D02*
X171809523Y-167032380D01*
X171809523Y-167032380D02*
X171809523Y-166699047D01*
X171809523Y-166699047D02*
X171619047Y-166699047D01*
X172238095Y-167127619D02*
X172238095Y-166127619D01*
X172238095Y-166127619D02*
X172809523Y-167127619D01*
X172809523Y-167127619D02*
X172809523Y-166127619D01*
X173285714Y-167127619D02*
X173285714Y-166127619D01*
X173285714Y-166127619D02*
X173523809Y-166127619D01*
X173523809Y-166127619D02*
X173666666Y-166175238D01*
X173666666Y-166175238D02*
X173761904Y-166270476D01*
X173761904Y-166270476D02*
X173809523Y-166365714D01*
X173809523Y-166365714D02*
X173857142Y-166556190D01*
X173857142Y-166556190D02*
X173857142Y-166699047D01*
X173857142Y-166699047D02*
X173809523Y-166889523D01*
X173809523Y-166889523D02*
X173761904Y-166984761D01*
X173761904Y-166984761D02*
X173666666Y-167080000D01*
X173666666Y-167080000D02*
X173523809Y-167127619D01*
X173523809Y-167127619D02*
X173285714Y-167127619D01*
D10*
X174421428Y-106753142D02*
X175221428Y-106753142D01*
X175221428Y-106753142D02*
X174421428Y-107953142D01*
X174421428Y-107953142D02*
X175221428Y-107953142D01*
D12*
X70445238Y-174927619D02*
X71016666Y-174927619D01*
X70730952Y-175927619D02*
X70730952Y-174927619D01*
X71254762Y-174927619D02*
X71921428Y-175927619D01*
X71921428Y-174927619D02*
X71254762Y-175927619D01*
D10*
X13342857Y-89866428D02*
X13628571Y-89866428D01*
X13628571Y-89866428D02*
X13771428Y-89937857D01*
X13771428Y-89937857D02*
X13914285Y-90080714D01*
X13914285Y-90080714D02*
X13985714Y-90366428D01*
X13985714Y-90366428D02*
X13985714Y-90866428D01*
X13985714Y-90866428D02*
X13914285Y-91152142D01*
X13914285Y-91152142D02*
X13771428Y-91295000D01*
X13771428Y-91295000D02*
X13628571Y-91366428D01*
X13628571Y-91366428D02*
X13342857Y-91366428D01*
X13342857Y-91366428D02*
X13200000Y-91295000D01*
X13200000Y-91295000D02*
X13057142Y-91152142D01*
X13057142Y-91152142D02*
X12985714Y-90866428D01*
X12985714Y-90866428D02*
X12985714Y-90366428D01*
X12985714Y-90366428D02*
X13057142Y-90080714D01*
X13057142Y-90080714D02*
X13200000Y-89937857D01*
X13200000Y-89937857D02*
X13342857Y-89866428D01*
X14628571Y-91366428D02*
X14628571Y-89866428D01*
X14628571Y-89866428D02*
X14985714Y-89866428D01*
X14985714Y-89866428D02*
X15200000Y-89937857D01*
X15200000Y-89937857D02*
X15342857Y-90080714D01*
X15342857Y-90080714D02*
X15414286Y-90223571D01*
X15414286Y-90223571D02*
X15485714Y-90509285D01*
X15485714Y-90509285D02*
X15485714Y-90723571D01*
X15485714Y-90723571D02*
X15414286Y-91009285D01*
X15414286Y-91009285D02*
X15342857Y-91152142D01*
X15342857Y-91152142D02*
X15200000Y-91295000D01*
X15200000Y-91295000D02*
X14985714Y-91366428D01*
X14985714Y-91366428D02*
X14628571Y-91366428D01*
X16914286Y-91366428D02*
X16057143Y-91366428D01*
X16485714Y-91366428D02*
X16485714Y-89866428D01*
X16485714Y-89866428D02*
X16342857Y-90080714D01*
X16342857Y-90080714D02*
X16200000Y-90223571D01*
X16200000Y-90223571D02*
X16057143Y-90295000D01*
X17200000Y-91509285D02*
X18342857Y-91509285D01*
X18699999Y-91366428D02*
X18699999Y-89866428D01*
X18699999Y-89866428D02*
X19271428Y-89866428D01*
X19271428Y-89866428D02*
X19414285Y-89937857D01*
X19414285Y-89937857D02*
X19485714Y-90009285D01*
X19485714Y-90009285D02*
X19557142Y-90152142D01*
X19557142Y-90152142D02*
X19557142Y-90366428D01*
X19557142Y-90366428D02*
X19485714Y-90509285D01*
X19485714Y-90509285D02*
X19414285Y-90580714D01*
X19414285Y-90580714D02*
X19271428Y-90652142D01*
X19271428Y-90652142D02*
X18699999Y-90652142D01*
X20057142Y-89866428D02*
X20414285Y-91366428D01*
X20414285Y-91366428D02*
X20699999Y-90295000D01*
X20699999Y-90295000D02*
X20985714Y-91366428D01*
X20985714Y-91366428D02*
X21342857Y-89866428D01*
X22771428Y-91366428D02*
X22271428Y-90652142D01*
X21914285Y-91366428D02*
X21914285Y-89866428D01*
X21914285Y-89866428D02*
X22485714Y-89866428D01*
X22485714Y-89866428D02*
X22628571Y-89937857D01*
X22628571Y-89937857D02*
X22700000Y-90009285D01*
X22700000Y-90009285D02*
X22771428Y-90152142D01*
X22771428Y-90152142D02*
X22771428Y-90366428D01*
X22771428Y-90366428D02*
X22700000Y-90509285D01*
X22700000Y-90509285D02*
X22628571Y-90580714D01*
X22628571Y-90580714D02*
X22485714Y-90652142D01*
X22485714Y-90652142D02*
X21914285Y-90652142D01*
X174578571Y-45660285D02*
X175150000Y-45660285D01*
X174464285Y-46003142D02*
X174864285Y-44803142D01*
X174864285Y-44803142D02*
X175264285Y-46003142D01*
X176292856Y-46003142D02*
X175607142Y-46003142D01*
X175949999Y-46003142D02*
X175949999Y-44803142D01*
X175949999Y-44803142D02*
X175835713Y-44974571D01*
X175835713Y-44974571D02*
X175721428Y-45088857D01*
X175721428Y-45088857D02*
X175607142Y-45146000D01*
D11*
%TO.C,J4*%
X17966666Y-98962619D02*
X17966666Y-99676904D01*
X17966666Y-99676904D02*
X17919047Y-99819761D01*
X17919047Y-99819761D02*
X17823809Y-99915000D01*
X17823809Y-99915000D02*
X17680952Y-99962619D01*
X17680952Y-99962619D02*
X17585714Y-99962619D01*
X18871428Y-99295952D02*
X18871428Y-99962619D01*
X18633333Y-98915000D02*
X18395238Y-99629285D01*
X18395238Y-99629285D02*
X19014285Y-99629285D01*
X11228571Y-95622500D02*
X12371429Y-95622500D01*
X11800000Y-96193928D02*
X11800000Y-95051071D01*
X24228571Y-95622500D02*
X25371429Y-95622500D01*
%TO.C,R1*%
X64090119Y-149541666D02*
X63613928Y-149874999D01*
X64090119Y-150113094D02*
X63090119Y-150113094D01*
X63090119Y-150113094D02*
X63090119Y-149732142D01*
X63090119Y-149732142D02*
X63137738Y-149636904D01*
X63137738Y-149636904D02*
X63185357Y-149589285D01*
X63185357Y-149589285D02*
X63280595Y-149541666D01*
X63280595Y-149541666D02*
X63423452Y-149541666D01*
X63423452Y-149541666D02*
X63518690Y-149589285D01*
X63518690Y-149589285D02*
X63566309Y-149636904D01*
X63566309Y-149636904D02*
X63613928Y-149732142D01*
X63613928Y-149732142D02*
X63613928Y-150113094D01*
X64090119Y-148589285D02*
X64090119Y-149160713D01*
X64090119Y-148874999D02*
X63090119Y-148874999D01*
X63090119Y-148874999D02*
X63232976Y-148970237D01*
X63232976Y-148970237D02*
X63328214Y-149065475D01*
X63328214Y-149065475D02*
X63375833Y-149160713D01*
%TO.C,U7*%
X68267619Y-154286904D02*
X69077142Y-154286904D01*
X69077142Y-154286904D02*
X69172380Y-154239285D01*
X69172380Y-154239285D02*
X69220000Y-154191666D01*
X69220000Y-154191666D02*
X69267619Y-154096428D01*
X69267619Y-154096428D02*
X69267619Y-153905952D01*
X69267619Y-153905952D02*
X69220000Y-153810714D01*
X69220000Y-153810714D02*
X69172380Y-153763095D01*
X69172380Y-153763095D02*
X69077142Y-153715476D01*
X69077142Y-153715476D02*
X68267619Y-153715476D01*
X68267619Y-153334523D02*
X68267619Y-152667857D01*
X68267619Y-152667857D02*
X69267619Y-153096428D01*
%TO.C,J7*%
X31491666Y-170465119D02*
X31491666Y-171179404D01*
X31491666Y-171179404D02*
X31444047Y-171322261D01*
X31444047Y-171322261D02*
X31348809Y-171417500D01*
X31348809Y-171417500D02*
X31205952Y-171465119D01*
X31205952Y-171465119D02*
X31110714Y-171465119D01*
X31872619Y-170465119D02*
X32539285Y-170465119D01*
X32539285Y-170465119D02*
X32110714Y-171465119D01*
%TO.C,F2*%
X22038809Y-61733333D02*
X22038809Y-62066666D01*
X22562619Y-62066666D02*
X21562619Y-62066666D01*
X21562619Y-62066666D02*
X21562619Y-61590476D01*
X21657857Y-61257142D02*
X21610238Y-61209523D01*
X21610238Y-61209523D02*
X21562619Y-61114285D01*
X21562619Y-61114285D02*
X21562619Y-60876190D01*
X21562619Y-60876190D02*
X21610238Y-60780952D01*
X21610238Y-60780952D02*
X21657857Y-60733333D01*
X21657857Y-60733333D02*
X21753095Y-60685714D01*
X21753095Y-60685714D02*
X21848333Y-60685714D01*
X21848333Y-60685714D02*
X21991190Y-60733333D01*
X21991190Y-60733333D02*
X22562619Y-61304761D01*
X22562619Y-61304761D02*
X22562619Y-60685714D01*
%TO.C,C13*%
X49557142Y-141667380D02*
X49509523Y-141715000D01*
X49509523Y-141715000D02*
X49366666Y-141762619D01*
X49366666Y-141762619D02*
X49271428Y-141762619D01*
X49271428Y-141762619D02*
X49128571Y-141715000D01*
X49128571Y-141715000D02*
X49033333Y-141619761D01*
X49033333Y-141619761D02*
X48985714Y-141524523D01*
X48985714Y-141524523D02*
X48938095Y-141334047D01*
X48938095Y-141334047D02*
X48938095Y-141191190D01*
X48938095Y-141191190D02*
X48985714Y-141000714D01*
X48985714Y-141000714D02*
X49033333Y-140905476D01*
X49033333Y-140905476D02*
X49128571Y-140810238D01*
X49128571Y-140810238D02*
X49271428Y-140762619D01*
X49271428Y-140762619D02*
X49366666Y-140762619D01*
X49366666Y-140762619D02*
X49509523Y-140810238D01*
X49509523Y-140810238D02*
X49557142Y-140857857D01*
X50509523Y-141762619D02*
X49938095Y-141762619D01*
X50223809Y-141762619D02*
X50223809Y-140762619D01*
X50223809Y-140762619D02*
X50128571Y-140905476D01*
X50128571Y-140905476D02*
X50033333Y-141000714D01*
X50033333Y-141000714D02*
X49938095Y-141048333D01*
X50842857Y-140762619D02*
X51461904Y-140762619D01*
X51461904Y-140762619D02*
X51128571Y-141143571D01*
X51128571Y-141143571D02*
X51271428Y-141143571D01*
X51271428Y-141143571D02*
X51366666Y-141191190D01*
X51366666Y-141191190D02*
X51414285Y-141238809D01*
X51414285Y-141238809D02*
X51461904Y-141334047D01*
X51461904Y-141334047D02*
X51461904Y-141572142D01*
X51461904Y-141572142D02*
X51414285Y-141667380D01*
X51414285Y-141667380D02*
X51366666Y-141715000D01*
X51366666Y-141715000D02*
X51271428Y-141762619D01*
X51271428Y-141762619D02*
X50985714Y-141762619D01*
X50985714Y-141762619D02*
X50890476Y-141715000D01*
X50890476Y-141715000D02*
X50842857Y-141667380D01*
D13*
%TO.C,U5*%
X133632619Y-148261904D02*
X134442142Y-148261904D01*
X134442142Y-148261904D02*
X134537380Y-148214285D01*
X134537380Y-148214285D02*
X134585000Y-148166666D01*
X134585000Y-148166666D02*
X134632619Y-148071428D01*
X134632619Y-148071428D02*
X134632619Y-147880952D01*
X134632619Y-147880952D02*
X134585000Y-147785714D01*
X134585000Y-147785714D02*
X134537380Y-147738095D01*
X134537380Y-147738095D02*
X134442142Y-147690476D01*
X134442142Y-147690476D02*
X133632619Y-147690476D01*
X133632619Y-146738095D02*
X133632619Y-147214285D01*
X133632619Y-147214285D02*
X134108809Y-147261904D01*
X134108809Y-147261904D02*
X134061190Y-147214285D01*
X134061190Y-147214285D02*
X134013571Y-147119047D01*
X134013571Y-147119047D02*
X134013571Y-146880952D01*
X134013571Y-146880952D02*
X134061190Y-146785714D01*
X134061190Y-146785714D02*
X134108809Y-146738095D01*
X134108809Y-146738095D02*
X134204047Y-146690476D01*
X134204047Y-146690476D02*
X134442142Y-146690476D01*
X134442142Y-146690476D02*
X134537380Y-146738095D01*
X134537380Y-146738095D02*
X134585000Y-146785714D01*
X134585000Y-146785714D02*
X134632619Y-146880952D01*
X134632619Y-146880952D02*
X134632619Y-147119047D01*
X134632619Y-147119047D02*
X134585000Y-147214285D01*
X134585000Y-147214285D02*
X134537380Y-147261904D01*
X132747619Y-149499999D02*
X131747619Y-149499999D01*
X132747619Y-149023809D02*
X131747619Y-149023809D01*
X131747619Y-149023809D02*
X132747619Y-148452381D01*
X132747619Y-148452381D02*
X131747619Y-148452381D01*
X131747619Y-148119047D02*
X131747619Y-147547619D01*
X132747619Y-147833333D02*
X131747619Y-147833333D01*
X116495238Y-149357142D02*
X116447619Y-149452380D01*
X116447619Y-149452380D02*
X116447619Y-149595237D01*
X116447619Y-149595237D02*
X116495238Y-149738094D01*
X116495238Y-149738094D02*
X116590476Y-149833332D01*
X116590476Y-149833332D02*
X116685714Y-149880951D01*
X116685714Y-149880951D02*
X116876190Y-149928570D01*
X116876190Y-149928570D02*
X117019047Y-149928570D01*
X117019047Y-149928570D02*
X117209523Y-149880951D01*
X117209523Y-149880951D02*
X117304761Y-149833332D01*
X117304761Y-149833332D02*
X117400000Y-149738094D01*
X117400000Y-149738094D02*
X117447619Y-149595237D01*
X117447619Y-149595237D02*
X117447619Y-149499999D01*
X117447619Y-149499999D02*
X117400000Y-149357142D01*
X117400000Y-149357142D02*
X117352380Y-149309523D01*
X117352380Y-149309523D02*
X117019047Y-149309523D01*
X117019047Y-149309523D02*
X117019047Y-149499999D01*
X117447619Y-148880951D02*
X116447619Y-148880951D01*
X116447619Y-148880951D02*
X117447619Y-148309523D01*
X117447619Y-148309523D02*
X116447619Y-148309523D01*
X117447619Y-147833332D02*
X116447619Y-147833332D01*
X116447619Y-147833332D02*
X116447619Y-147595237D01*
X116447619Y-147595237D02*
X116495238Y-147452380D01*
X116495238Y-147452380D02*
X116590476Y-147357142D01*
X116590476Y-147357142D02*
X116685714Y-147309523D01*
X116685714Y-147309523D02*
X116876190Y-147261904D01*
X116876190Y-147261904D02*
X117019047Y-147261904D01*
X117019047Y-147261904D02*
X117209523Y-147309523D01*
X117209523Y-147309523D02*
X117304761Y-147357142D01*
X117304761Y-147357142D02*
X117400000Y-147452380D01*
X117400000Y-147452380D02*
X117447619Y-147595237D01*
X117447619Y-147595237D02*
X117447619Y-147833332D01*
X122500000Y-149809523D02*
X122547619Y-149666666D01*
X122547619Y-149666666D02*
X122547619Y-149428571D01*
X122547619Y-149428571D02*
X122500000Y-149333333D01*
X122500000Y-149333333D02*
X122452380Y-149285714D01*
X122452380Y-149285714D02*
X122357142Y-149238095D01*
X122357142Y-149238095D02*
X122261904Y-149238095D01*
X122261904Y-149238095D02*
X122166666Y-149285714D01*
X122166666Y-149285714D02*
X122119047Y-149333333D01*
X122119047Y-149333333D02*
X122071428Y-149428571D01*
X122071428Y-149428571D02*
X122023809Y-149619047D01*
X122023809Y-149619047D02*
X121976190Y-149714285D01*
X121976190Y-149714285D02*
X121928571Y-149761904D01*
X121928571Y-149761904D02*
X121833333Y-149809523D01*
X121833333Y-149809523D02*
X121738095Y-149809523D01*
X121738095Y-149809523D02*
X121642857Y-149761904D01*
X121642857Y-149761904D02*
X121595238Y-149714285D01*
X121595238Y-149714285D02*
X121547619Y-149619047D01*
X121547619Y-149619047D02*
X121547619Y-149380952D01*
X121547619Y-149380952D02*
X121595238Y-149238095D01*
X122547619Y-148809523D02*
X121547619Y-148809523D01*
X121547619Y-148809523D02*
X121547619Y-148571428D01*
X121547619Y-148571428D02*
X121595238Y-148428571D01*
X121595238Y-148428571D02*
X121690476Y-148333333D01*
X121690476Y-148333333D02*
X121785714Y-148285714D01*
X121785714Y-148285714D02*
X121976190Y-148238095D01*
X121976190Y-148238095D02*
X122119047Y-148238095D01*
X122119047Y-148238095D02*
X122309523Y-148285714D01*
X122309523Y-148285714D02*
X122404761Y-148333333D01*
X122404761Y-148333333D02*
X122500000Y-148428571D01*
X122500000Y-148428571D02*
X122547619Y-148571428D01*
X122547619Y-148571428D02*
X122547619Y-148809523D01*
X122261904Y-147857142D02*
X122261904Y-147380952D01*
X122547619Y-147952380D02*
X121547619Y-147619047D01*
X121547619Y-147619047D02*
X122547619Y-147285714D01*
X120100000Y-149785713D02*
X120147619Y-149642856D01*
X120147619Y-149642856D02*
X120147619Y-149404761D01*
X120147619Y-149404761D02*
X120100000Y-149309523D01*
X120100000Y-149309523D02*
X120052380Y-149261904D01*
X120052380Y-149261904D02*
X119957142Y-149214285D01*
X119957142Y-149214285D02*
X119861904Y-149214285D01*
X119861904Y-149214285D02*
X119766666Y-149261904D01*
X119766666Y-149261904D02*
X119719047Y-149309523D01*
X119719047Y-149309523D02*
X119671428Y-149404761D01*
X119671428Y-149404761D02*
X119623809Y-149595237D01*
X119623809Y-149595237D02*
X119576190Y-149690475D01*
X119576190Y-149690475D02*
X119528571Y-149738094D01*
X119528571Y-149738094D02*
X119433333Y-149785713D01*
X119433333Y-149785713D02*
X119338095Y-149785713D01*
X119338095Y-149785713D02*
X119242857Y-149738094D01*
X119242857Y-149738094D02*
X119195238Y-149690475D01*
X119195238Y-149690475D02*
X119147619Y-149595237D01*
X119147619Y-149595237D02*
X119147619Y-149357142D01*
X119147619Y-149357142D02*
X119195238Y-149214285D01*
X120052380Y-148214285D02*
X120100000Y-148261904D01*
X120100000Y-148261904D02*
X120147619Y-148404761D01*
X120147619Y-148404761D02*
X120147619Y-148499999D01*
X120147619Y-148499999D02*
X120100000Y-148642856D01*
X120100000Y-148642856D02*
X120004761Y-148738094D01*
X120004761Y-148738094D02*
X119909523Y-148785713D01*
X119909523Y-148785713D02*
X119719047Y-148833332D01*
X119719047Y-148833332D02*
X119576190Y-148833332D01*
X119576190Y-148833332D02*
X119385714Y-148785713D01*
X119385714Y-148785713D02*
X119290476Y-148738094D01*
X119290476Y-148738094D02*
X119195238Y-148642856D01*
X119195238Y-148642856D02*
X119147619Y-148499999D01*
X119147619Y-148499999D02*
X119147619Y-148404761D01*
X119147619Y-148404761D02*
X119195238Y-148261904D01*
X119195238Y-148261904D02*
X119242857Y-148214285D01*
X120147619Y-147309523D02*
X120147619Y-147785713D01*
X120147619Y-147785713D02*
X119147619Y-147785713D01*
X126547619Y-149833332D02*
X127547619Y-149166666D01*
X126547619Y-149166666D02*
X127547619Y-149833332D01*
X127452380Y-148214285D02*
X127500000Y-148261904D01*
X127500000Y-148261904D02*
X127547619Y-148404761D01*
X127547619Y-148404761D02*
X127547619Y-148499999D01*
X127547619Y-148499999D02*
X127500000Y-148642856D01*
X127500000Y-148642856D02*
X127404761Y-148738094D01*
X127404761Y-148738094D02*
X127309523Y-148785713D01*
X127309523Y-148785713D02*
X127119047Y-148833332D01*
X127119047Y-148833332D02*
X126976190Y-148833332D01*
X126976190Y-148833332D02*
X126785714Y-148785713D01*
X126785714Y-148785713D02*
X126690476Y-148738094D01*
X126690476Y-148738094D02*
X126595238Y-148642856D01*
X126595238Y-148642856D02*
X126547619Y-148499999D01*
X126547619Y-148499999D02*
X126547619Y-148404761D01*
X126547619Y-148404761D02*
X126595238Y-148261904D01*
X126595238Y-148261904D02*
X126642857Y-148214285D01*
X127547619Y-147309523D02*
X127547619Y-147785713D01*
X127547619Y-147785713D02*
X126547619Y-147785713D01*
X113947619Y-149928570D02*
X114947619Y-149595237D01*
X114947619Y-149595237D02*
X113947619Y-149261904D01*
X114852380Y-148357142D02*
X114900000Y-148404761D01*
X114900000Y-148404761D02*
X114947619Y-148547618D01*
X114947619Y-148547618D02*
X114947619Y-148642856D01*
X114947619Y-148642856D02*
X114900000Y-148785713D01*
X114900000Y-148785713D02*
X114804761Y-148880951D01*
X114804761Y-148880951D02*
X114709523Y-148928570D01*
X114709523Y-148928570D02*
X114519047Y-148976189D01*
X114519047Y-148976189D02*
X114376190Y-148976189D01*
X114376190Y-148976189D02*
X114185714Y-148928570D01*
X114185714Y-148928570D02*
X114090476Y-148880951D01*
X114090476Y-148880951D02*
X113995238Y-148785713D01*
X113995238Y-148785713D02*
X113947619Y-148642856D01*
X113947619Y-148642856D02*
X113947619Y-148547618D01*
X113947619Y-148547618D02*
X113995238Y-148404761D01*
X113995238Y-148404761D02*
X114042857Y-148357142D01*
X114852380Y-147357142D02*
X114900000Y-147404761D01*
X114900000Y-147404761D02*
X114947619Y-147547618D01*
X114947619Y-147547618D02*
X114947619Y-147642856D01*
X114947619Y-147642856D02*
X114900000Y-147785713D01*
X114900000Y-147785713D02*
X114804761Y-147880951D01*
X114804761Y-147880951D02*
X114709523Y-147928570D01*
X114709523Y-147928570D02*
X114519047Y-147976189D01*
X114519047Y-147976189D02*
X114376190Y-147976189D01*
X114376190Y-147976189D02*
X114185714Y-147928570D01*
X114185714Y-147928570D02*
X114090476Y-147880951D01*
X114090476Y-147880951D02*
X113995238Y-147785713D01*
X113995238Y-147785713D02*
X113947619Y-147642856D01*
X113947619Y-147642856D02*
X113947619Y-147547618D01*
X113947619Y-147547618D02*
X113995238Y-147404761D01*
X113995238Y-147404761D02*
X114042857Y-147357142D01*
X129961904Y-149809523D02*
X129961904Y-149333333D01*
X130247619Y-149904761D02*
X129247619Y-149571428D01*
X129247619Y-149571428D02*
X130247619Y-149238095D01*
X130247619Y-148904761D02*
X129247619Y-148904761D01*
X129247619Y-148904761D02*
X129247619Y-148666666D01*
X129247619Y-148666666D02*
X129295238Y-148523809D01*
X129295238Y-148523809D02*
X129390476Y-148428571D01*
X129390476Y-148428571D02*
X129485714Y-148380952D01*
X129485714Y-148380952D02*
X129676190Y-148333333D01*
X129676190Y-148333333D02*
X129819047Y-148333333D01*
X129819047Y-148333333D02*
X130009523Y-148380952D01*
X130009523Y-148380952D02*
X130104761Y-148428571D01*
X130104761Y-148428571D02*
X130200000Y-148523809D01*
X130200000Y-148523809D02*
X130247619Y-148666666D01*
X130247619Y-148666666D02*
X130247619Y-148904761D01*
X129247619Y-147714285D02*
X129247619Y-147619047D01*
X129247619Y-147619047D02*
X129295238Y-147523809D01*
X129295238Y-147523809D02*
X129342857Y-147476190D01*
X129342857Y-147476190D02*
X129438095Y-147428571D01*
X129438095Y-147428571D02*
X129628571Y-147380952D01*
X129628571Y-147380952D02*
X129866666Y-147380952D01*
X129866666Y-147380952D02*
X130057142Y-147428571D01*
X130057142Y-147428571D02*
X130152380Y-147476190D01*
X130152380Y-147476190D02*
X130200000Y-147523809D01*
X130200000Y-147523809D02*
X130247619Y-147619047D01*
X130247619Y-147619047D02*
X130247619Y-147714285D01*
X130247619Y-147714285D02*
X130200000Y-147809523D01*
X130200000Y-147809523D02*
X130152380Y-147857142D01*
X130152380Y-147857142D02*
X130057142Y-147904761D01*
X130057142Y-147904761D02*
X129866666Y-147952380D01*
X129866666Y-147952380D02*
X129628571Y-147952380D01*
X129628571Y-147952380D02*
X129438095Y-147904761D01*
X129438095Y-147904761D02*
X129342857Y-147857142D01*
X129342857Y-147857142D02*
X129295238Y-147809523D01*
X129295238Y-147809523D02*
X129247619Y-147714285D01*
X124147619Y-149857142D02*
X125147619Y-149190476D01*
X124147619Y-149190476D02*
X125147619Y-149857142D01*
X125147619Y-148809523D02*
X124147619Y-148809523D01*
X124147619Y-148809523D02*
X124147619Y-148571428D01*
X124147619Y-148571428D02*
X124195238Y-148428571D01*
X124195238Y-148428571D02*
X124290476Y-148333333D01*
X124290476Y-148333333D02*
X124385714Y-148285714D01*
X124385714Y-148285714D02*
X124576190Y-148238095D01*
X124576190Y-148238095D02*
X124719047Y-148238095D01*
X124719047Y-148238095D02*
X124909523Y-148285714D01*
X124909523Y-148285714D02*
X125004761Y-148333333D01*
X125004761Y-148333333D02*
X125100000Y-148428571D01*
X125100000Y-148428571D02*
X125147619Y-148571428D01*
X125147619Y-148571428D02*
X125147619Y-148809523D01*
X124861904Y-147857142D02*
X124861904Y-147380952D01*
X125147619Y-147952380D02*
X124147619Y-147619047D01*
X124147619Y-147619047D02*
X125147619Y-147285714D01*
D11*
%TO.C,J2*%
X12716666Y-34362619D02*
X12716666Y-35076904D01*
X12716666Y-35076904D02*
X12669047Y-35219761D01*
X12669047Y-35219761D02*
X12573809Y-35315000D01*
X12573809Y-35315000D02*
X12430952Y-35362619D01*
X12430952Y-35362619D02*
X12335714Y-35362619D01*
X13145238Y-34457857D02*
X13192857Y-34410238D01*
X13192857Y-34410238D02*
X13288095Y-34362619D01*
X13288095Y-34362619D02*
X13526190Y-34362619D01*
X13526190Y-34362619D02*
X13621428Y-34410238D01*
X13621428Y-34410238D02*
X13669047Y-34457857D01*
X13669047Y-34457857D02*
X13716666Y-34553095D01*
X13716666Y-34553095D02*
X13716666Y-34648333D01*
X13716666Y-34648333D02*
X13669047Y-34791190D01*
X13669047Y-34791190D02*
X13097619Y-35362619D01*
X13097619Y-35362619D02*
X13716666Y-35362619D01*
D13*
%TO.C,U3*%
X95113095Y-49237619D02*
X95113095Y-50047142D01*
X95113095Y-50047142D02*
X95160714Y-50142380D01*
X95160714Y-50142380D02*
X95208333Y-50190000D01*
X95208333Y-50190000D02*
X95303571Y-50237619D01*
X95303571Y-50237619D02*
X95494047Y-50237619D01*
X95494047Y-50237619D02*
X95589285Y-50190000D01*
X95589285Y-50190000D02*
X95636904Y-50142380D01*
X95636904Y-50142380D02*
X95684523Y-50047142D01*
X95684523Y-50047142D02*
X95684523Y-49237619D01*
X96065476Y-49237619D02*
X96684523Y-49237619D01*
X96684523Y-49237619D02*
X96351190Y-49618571D01*
X96351190Y-49618571D02*
X96494047Y-49618571D01*
X96494047Y-49618571D02*
X96589285Y-49666190D01*
X96589285Y-49666190D02*
X96636904Y-49713809D01*
X96636904Y-49713809D02*
X96684523Y-49809047D01*
X96684523Y-49809047D02*
X96684523Y-50047142D01*
X96684523Y-50047142D02*
X96636904Y-50142380D01*
X96636904Y-50142380D02*
X96589285Y-50190000D01*
X96589285Y-50190000D02*
X96494047Y-50237619D01*
X96494047Y-50237619D02*
X96208333Y-50237619D01*
X96208333Y-50237619D02*
X96113095Y-50190000D01*
X96113095Y-50190000D02*
X96065476Y-50142380D01*
D11*
%TO.C,C14*%
X31987380Y-154992857D02*
X32035000Y-155040476D01*
X32035000Y-155040476D02*
X32082619Y-155183333D01*
X32082619Y-155183333D02*
X32082619Y-155278571D01*
X32082619Y-155278571D02*
X32035000Y-155421428D01*
X32035000Y-155421428D02*
X31939761Y-155516666D01*
X31939761Y-155516666D02*
X31844523Y-155564285D01*
X31844523Y-155564285D02*
X31654047Y-155611904D01*
X31654047Y-155611904D02*
X31511190Y-155611904D01*
X31511190Y-155611904D02*
X31320714Y-155564285D01*
X31320714Y-155564285D02*
X31225476Y-155516666D01*
X31225476Y-155516666D02*
X31130238Y-155421428D01*
X31130238Y-155421428D02*
X31082619Y-155278571D01*
X31082619Y-155278571D02*
X31082619Y-155183333D01*
X31082619Y-155183333D02*
X31130238Y-155040476D01*
X31130238Y-155040476D02*
X31177857Y-154992857D01*
X32082619Y-154040476D02*
X32082619Y-154611904D01*
X32082619Y-154326190D02*
X31082619Y-154326190D01*
X31082619Y-154326190D02*
X31225476Y-154421428D01*
X31225476Y-154421428D02*
X31320714Y-154516666D01*
X31320714Y-154516666D02*
X31368333Y-154611904D01*
X31415952Y-153183333D02*
X32082619Y-153183333D01*
X31035000Y-153421428D02*
X31749285Y-153659523D01*
X31749285Y-153659523D02*
X31749285Y-153040476D01*
%TO.C,C16*%
X41497142Y-168067380D02*
X41449523Y-168115000D01*
X41449523Y-168115000D02*
X41306666Y-168162619D01*
X41306666Y-168162619D02*
X41211428Y-168162619D01*
X41211428Y-168162619D02*
X41068571Y-168115000D01*
X41068571Y-168115000D02*
X40973333Y-168019761D01*
X40973333Y-168019761D02*
X40925714Y-167924523D01*
X40925714Y-167924523D02*
X40878095Y-167734047D01*
X40878095Y-167734047D02*
X40878095Y-167591190D01*
X40878095Y-167591190D02*
X40925714Y-167400714D01*
X40925714Y-167400714D02*
X40973333Y-167305476D01*
X40973333Y-167305476D02*
X41068571Y-167210238D01*
X41068571Y-167210238D02*
X41211428Y-167162619D01*
X41211428Y-167162619D02*
X41306666Y-167162619D01*
X41306666Y-167162619D02*
X41449523Y-167210238D01*
X41449523Y-167210238D02*
X41497142Y-167257857D01*
X42449523Y-168162619D02*
X41878095Y-168162619D01*
X42163809Y-168162619D02*
X42163809Y-167162619D01*
X42163809Y-167162619D02*
X42068571Y-167305476D01*
X42068571Y-167305476D02*
X41973333Y-167400714D01*
X41973333Y-167400714D02*
X41878095Y-167448333D01*
X43306666Y-167162619D02*
X43116190Y-167162619D01*
X43116190Y-167162619D02*
X43020952Y-167210238D01*
X43020952Y-167210238D02*
X42973333Y-167257857D01*
X42973333Y-167257857D02*
X42878095Y-167400714D01*
X42878095Y-167400714D02*
X42830476Y-167591190D01*
X42830476Y-167591190D02*
X42830476Y-167972142D01*
X42830476Y-167972142D02*
X42878095Y-168067380D01*
X42878095Y-168067380D02*
X42925714Y-168115000D01*
X42925714Y-168115000D02*
X43020952Y-168162619D01*
X43020952Y-168162619D02*
X43211428Y-168162619D01*
X43211428Y-168162619D02*
X43306666Y-168115000D01*
X43306666Y-168115000D02*
X43354285Y-168067380D01*
X43354285Y-168067380D02*
X43401904Y-167972142D01*
X43401904Y-167972142D02*
X43401904Y-167734047D01*
X43401904Y-167734047D02*
X43354285Y-167638809D01*
X43354285Y-167638809D02*
X43306666Y-167591190D01*
X43306666Y-167591190D02*
X43211428Y-167543571D01*
X43211428Y-167543571D02*
X43020952Y-167543571D01*
X43020952Y-167543571D02*
X42925714Y-167591190D01*
X42925714Y-167591190D02*
X42878095Y-167638809D01*
X42878095Y-167638809D02*
X42830476Y-167734047D01*
%TO.C,U4*%
X79248095Y-173802619D02*
X79248095Y-174612142D01*
X79248095Y-174612142D02*
X79295714Y-174707380D01*
X79295714Y-174707380D02*
X79343333Y-174755000D01*
X79343333Y-174755000D02*
X79438571Y-174802619D01*
X79438571Y-174802619D02*
X79629047Y-174802619D01*
X79629047Y-174802619D02*
X79724285Y-174755000D01*
X79724285Y-174755000D02*
X79771904Y-174707380D01*
X79771904Y-174707380D02*
X79819523Y-174612142D01*
X79819523Y-174612142D02*
X79819523Y-173802619D01*
X80724285Y-174135952D02*
X80724285Y-174802619D01*
X80486190Y-173755000D02*
X80248095Y-174469285D01*
X80248095Y-174469285D02*
X80867142Y-174469285D01*
%TO.C,C19*%
X41407142Y-135717380D02*
X41359523Y-135765000D01*
X41359523Y-135765000D02*
X41216666Y-135812619D01*
X41216666Y-135812619D02*
X41121428Y-135812619D01*
X41121428Y-135812619D02*
X40978571Y-135765000D01*
X40978571Y-135765000D02*
X40883333Y-135669761D01*
X40883333Y-135669761D02*
X40835714Y-135574523D01*
X40835714Y-135574523D02*
X40788095Y-135384047D01*
X40788095Y-135384047D02*
X40788095Y-135241190D01*
X40788095Y-135241190D02*
X40835714Y-135050714D01*
X40835714Y-135050714D02*
X40883333Y-134955476D01*
X40883333Y-134955476D02*
X40978571Y-134860238D01*
X40978571Y-134860238D02*
X41121428Y-134812619D01*
X41121428Y-134812619D02*
X41216666Y-134812619D01*
X41216666Y-134812619D02*
X41359523Y-134860238D01*
X41359523Y-134860238D02*
X41407142Y-134907857D01*
X42359523Y-135812619D02*
X41788095Y-135812619D01*
X42073809Y-135812619D02*
X42073809Y-134812619D01*
X42073809Y-134812619D02*
X41978571Y-134955476D01*
X41978571Y-134955476D02*
X41883333Y-135050714D01*
X41883333Y-135050714D02*
X41788095Y-135098333D01*
X42835714Y-135812619D02*
X43026190Y-135812619D01*
X43026190Y-135812619D02*
X43121428Y-135765000D01*
X43121428Y-135765000D02*
X43169047Y-135717380D01*
X43169047Y-135717380D02*
X43264285Y-135574523D01*
X43264285Y-135574523D02*
X43311904Y-135384047D01*
X43311904Y-135384047D02*
X43311904Y-135003095D01*
X43311904Y-135003095D02*
X43264285Y-134907857D01*
X43264285Y-134907857D02*
X43216666Y-134860238D01*
X43216666Y-134860238D02*
X43121428Y-134812619D01*
X43121428Y-134812619D02*
X42930952Y-134812619D01*
X42930952Y-134812619D02*
X42835714Y-134860238D01*
X42835714Y-134860238D02*
X42788095Y-134907857D01*
X42788095Y-134907857D02*
X42740476Y-135003095D01*
X42740476Y-135003095D02*
X42740476Y-135241190D01*
X42740476Y-135241190D02*
X42788095Y-135336428D01*
X42788095Y-135336428D02*
X42835714Y-135384047D01*
X42835714Y-135384047D02*
X42930952Y-135431666D01*
X42930952Y-135431666D02*
X43121428Y-135431666D01*
X43121428Y-135431666D02*
X43216666Y-135384047D01*
X43216666Y-135384047D02*
X43264285Y-135336428D01*
X43264285Y-135336428D02*
X43311904Y-135241190D01*
%TO.C,R5*%
X24742619Y-165416666D02*
X24266428Y-165749999D01*
X24742619Y-165988094D02*
X23742619Y-165988094D01*
X23742619Y-165988094D02*
X23742619Y-165607142D01*
X23742619Y-165607142D02*
X23790238Y-165511904D01*
X23790238Y-165511904D02*
X23837857Y-165464285D01*
X23837857Y-165464285D02*
X23933095Y-165416666D01*
X23933095Y-165416666D02*
X24075952Y-165416666D01*
X24075952Y-165416666D02*
X24171190Y-165464285D01*
X24171190Y-165464285D02*
X24218809Y-165511904D01*
X24218809Y-165511904D02*
X24266428Y-165607142D01*
X24266428Y-165607142D02*
X24266428Y-165988094D01*
X23742619Y-164511904D02*
X23742619Y-164988094D01*
X23742619Y-164988094D02*
X24218809Y-165035713D01*
X24218809Y-165035713D02*
X24171190Y-164988094D01*
X24171190Y-164988094D02*
X24123571Y-164892856D01*
X24123571Y-164892856D02*
X24123571Y-164654761D01*
X24123571Y-164654761D02*
X24171190Y-164559523D01*
X24171190Y-164559523D02*
X24218809Y-164511904D01*
X24218809Y-164511904D02*
X24314047Y-164464285D01*
X24314047Y-164464285D02*
X24552142Y-164464285D01*
X24552142Y-164464285D02*
X24647380Y-164511904D01*
X24647380Y-164511904D02*
X24695000Y-164559523D01*
X24695000Y-164559523D02*
X24742619Y-164654761D01*
X24742619Y-164654761D02*
X24742619Y-164892856D01*
X24742619Y-164892856D02*
X24695000Y-164988094D01*
X24695000Y-164988094D02*
X24647380Y-165035713D01*
%TO.C,C23*%
X52457142Y-168217380D02*
X52409523Y-168265000D01*
X52409523Y-168265000D02*
X52266666Y-168312619D01*
X52266666Y-168312619D02*
X52171428Y-168312619D01*
X52171428Y-168312619D02*
X52028571Y-168265000D01*
X52028571Y-168265000D02*
X51933333Y-168169761D01*
X51933333Y-168169761D02*
X51885714Y-168074523D01*
X51885714Y-168074523D02*
X51838095Y-167884047D01*
X51838095Y-167884047D02*
X51838095Y-167741190D01*
X51838095Y-167741190D02*
X51885714Y-167550714D01*
X51885714Y-167550714D02*
X51933333Y-167455476D01*
X51933333Y-167455476D02*
X52028571Y-167360238D01*
X52028571Y-167360238D02*
X52171428Y-167312619D01*
X52171428Y-167312619D02*
X52266666Y-167312619D01*
X52266666Y-167312619D02*
X52409523Y-167360238D01*
X52409523Y-167360238D02*
X52457142Y-167407857D01*
X52838095Y-167407857D02*
X52885714Y-167360238D01*
X52885714Y-167360238D02*
X52980952Y-167312619D01*
X52980952Y-167312619D02*
X53219047Y-167312619D01*
X53219047Y-167312619D02*
X53314285Y-167360238D01*
X53314285Y-167360238D02*
X53361904Y-167407857D01*
X53361904Y-167407857D02*
X53409523Y-167503095D01*
X53409523Y-167503095D02*
X53409523Y-167598333D01*
X53409523Y-167598333D02*
X53361904Y-167741190D01*
X53361904Y-167741190D02*
X52790476Y-168312619D01*
X52790476Y-168312619D02*
X53409523Y-168312619D01*
X53742857Y-167312619D02*
X54361904Y-167312619D01*
X54361904Y-167312619D02*
X54028571Y-167693571D01*
X54028571Y-167693571D02*
X54171428Y-167693571D01*
X54171428Y-167693571D02*
X54266666Y-167741190D01*
X54266666Y-167741190D02*
X54314285Y-167788809D01*
X54314285Y-167788809D02*
X54361904Y-167884047D01*
X54361904Y-167884047D02*
X54361904Y-168122142D01*
X54361904Y-168122142D02*
X54314285Y-168217380D01*
X54314285Y-168217380D02*
X54266666Y-168265000D01*
X54266666Y-168265000D02*
X54171428Y-168312619D01*
X54171428Y-168312619D02*
X53885714Y-168312619D01*
X53885714Y-168312619D02*
X53790476Y-168265000D01*
X53790476Y-168265000D02*
X53742857Y-168217380D01*
%TO.C,R3*%
X54673333Y-172112619D02*
X54340000Y-171636428D01*
X54101905Y-172112619D02*
X54101905Y-171112619D01*
X54101905Y-171112619D02*
X54482857Y-171112619D01*
X54482857Y-171112619D02*
X54578095Y-171160238D01*
X54578095Y-171160238D02*
X54625714Y-171207857D01*
X54625714Y-171207857D02*
X54673333Y-171303095D01*
X54673333Y-171303095D02*
X54673333Y-171445952D01*
X54673333Y-171445952D02*
X54625714Y-171541190D01*
X54625714Y-171541190D02*
X54578095Y-171588809D01*
X54578095Y-171588809D02*
X54482857Y-171636428D01*
X54482857Y-171636428D02*
X54101905Y-171636428D01*
X55006667Y-171112619D02*
X55625714Y-171112619D01*
X55625714Y-171112619D02*
X55292381Y-171493571D01*
X55292381Y-171493571D02*
X55435238Y-171493571D01*
X55435238Y-171493571D02*
X55530476Y-171541190D01*
X55530476Y-171541190D02*
X55578095Y-171588809D01*
X55578095Y-171588809D02*
X55625714Y-171684047D01*
X55625714Y-171684047D02*
X55625714Y-171922142D01*
X55625714Y-171922142D02*
X55578095Y-172017380D01*
X55578095Y-172017380D02*
X55530476Y-172065000D01*
X55530476Y-172065000D02*
X55435238Y-172112619D01*
X55435238Y-172112619D02*
X55149524Y-172112619D01*
X55149524Y-172112619D02*
X55054286Y-172065000D01*
X55054286Y-172065000D02*
X55006667Y-172017380D01*
%TO.C,J12*%
X13990476Y-136412619D02*
X13990476Y-137126904D01*
X13990476Y-137126904D02*
X13942857Y-137269761D01*
X13942857Y-137269761D02*
X13847619Y-137365000D01*
X13847619Y-137365000D02*
X13704762Y-137412619D01*
X13704762Y-137412619D02*
X13609524Y-137412619D01*
X14990476Y-137412619D02*
X14419048Y-137412619D01*
X14704762Y-137412619D02*
X14704762Y-136412619D01*
X14704762Y-136412619D02*
X14609524Y-136555476D01*
X14609524Y-136555476D02*
X14514286Y-136650714D01*
X14514286Y-136650714D02*
X14419048Y-136698333D01*
X15371429Y-136507857D02*
X15419048Y-136460238D01*
X15419048Y-136460238D02*
X15514286Y-136412619D01*
X15514286Y-136412619D02*
X15752381Y-136412619D01*
X15752381Y-136412619D02*
X15847619Y-136460238D01*
X15847619Y-136460238D02*
X15895238Y-136507857D01*
X15895238Y-136507857D02*
X15942857Y-136603095D01*
X15942857Y-136603095D02*
X15942857Y-136698333D01*
X15942857Y-136698333D02*
X15895238Y-136841190D01*
X15895238Y-136841190D02*
X15323810Y-137412619D01*
X15323810Y-137412619D02*
X15942857Y-137412619D01*
%TO.C,C22*%
X70515642Y-161063380D02*
X70468023Y-161111000D01*
X70468023Y-161111000D02*
X70325166Y-161158619D01*
X70325166Y-161158619D02*
X70229928Y-161158619D01*
X70229928Y-161158619D02*
X70087071Y-161111000D01*
X70087071Y-161111000D02*
X69991833Y-161015761D01*
X69991833Y-161015761D02*
X69944214Y-160920523D01*
X69944214Y-160920523D02*
X69896595Y-160730047D01*
X69896595Y-160730047D02*
X69896595Y-160587190D01*
X69896595Y-160587190D02*
X69944214Y-160396714D01*
X69944214Y-160396714D02*
X69991833Y-160301476D01*
X69991833Y-160301476D02*
X70087071Y-160206238D01*
X70087071Y-160206238D02*
X70229928Y-160158619D01*
X70229928Y-160158619D02*
X70325166Y-160158619D01*
X70325166Y-160158619D02*
X70468023Y-160206238D01*
X70468023Y-160206238D02*
X70515642Y-160253857D01*
X70896595Y-160253857D02*
X70944214Y-160206238D01*
X70944214Y-160206238D02*
X71039452Y-160158619D01*
X71039452Y-160158619D02*
X71277547Y-160158619D01*
X71277547Y-160158619D02*
X71372785Y-160206238D01*
X71372785Y-160206238D02*
X71420404Y-160253857D01*
X71420404Y-160253857D02*
X71468023Y-160349095D01*
X71468023Y-160349095D02*
X71468023Y-160444333D01*
X71468023Y-160444333D02*
X71420404Y-160587190D01*
X71420404Y-160587190D02*
X70848976Y-161158619D01*
X70848976Y-161158619D02*
X71468023Y-161158619D01*
X71848976Y-160253857D02*
X71896595Y-160206238D01*
X71896595Y-160206238D02*
X71991833Y-160158619D01*
X71991833Y-160158619D02*
X72229928Y-160158619D01*
X72229928Y-160158619D02*
X72325166Y-160206238D01*
X72325166Y-160206238D02*
X72372785Y-160253857D01*
X72372785Y-160253857D02*
X72420404Y-160349095D01*
X72420404Y-160349095D02*
X72420404Y-160444333D01*
X72420404Y-160444333D02*
X72372785Y-160587190D01*
X72372785Y-160587190D02*
X71801357Y-161158619D01*
X71801357Y-161158619D02*
X72420404Y-161158619D01*
%TO.C,R7*%
X32932619Y-165416666D02*
X32456428Y-165749999D01*
X32932619Y-165988094D02*
X31932619Y-165988094D01*
X31932619Y-165988094D02*
X31932619Y-165607142D01*
X31932619Y-165607142D02*
X31980238Y-165511904D01*
X31980238Y-165511904D02*
X32027857Y-165464285D01*
X32027857Y-165464285D02*
X32123095Y-165416666D01*
X32123095Y-165416666D02*
X32265952Y-165416666D01*
X32265952Y-165416666D02*
X32361190Y-165464285D01*
X32361190Y-165464285D02*
X32408809Y-165511904D01*
X32408809Y-165511904D02*
X32456428Y-165607142D01*
X32456428Y-165607142D02*
X32456428Y-165988094D01*
X31932619Y-165083332D02*
X31932619Y-164416666D01*
X31932619Y-164416666D02*
X32932619Y-164845237D01*
%TO.C,R6*%
X121233333Y-178962619D02*
X120900000Y-178486428D01*
X120661905Y-178962619D02*
X120661905Y-177962619D01*
X120661905Y-177962619D02*
X121042857Y-177962619D01*
X121042857Y-177962619D02*
X121138095Y-178010238D01*
X121138095Y-178010238D02*
X121185714Y-178057857D01*
X121185714Y-178057857D02*
X121233333Y-178153095D01*
X121233333Y-178153095D02*
X121233333Y-178295952D01*
X121233333Y-178295952D02*
X121185714Y-178391190D01*
X121185714Y-178391190D02*
X121138095Y-178438809D01*
X121138095Y-178438809D02*
X121042857Y-178486428D01*
X121042857Y-178486428D02*
X120661905Y-178486428D01*
X122090476Y-177962619D02*
X121900000Y-177962619D01*
X121900000Y-177962619D02*
X121804762Y-178010238D01*
X121804762Y-178010238D02*
X121757143Y-178057857D01*
X121757143Y-178057857D02*
X121661905Y-178200714D01*
X121661905Y-178200714D02*
X121614286Y-178391190D01*
X121614286Y-178391190D02*
X121614286Y-178772142D01*
X121614286Y-178772142D02*
X121661905Y-178867380D01*
X121661905Y-178867380D02*
X121709524Y-178915000D01*
X121709524Y-178915000D02*
X121804762Y-178962619D01*
X121804762Y-178962619D02*
X121995238Y-178962619D01*
X121995238Y-178962619D02*
X122090476Y-178915000D01*
X122090476Y-178915000D02*
X122138095Y-178867380D01*
X122138095Y-178867380D02*
X122185714Y-178772142D01*
X122185714Y-178772142D02*
X122185714Y-178534047D01*
X122185714Y-178534047D02*
X122138095Y-178438809D01*
X122138095Y-178438809D02*
X122090476Y-178391190D01*
X122090476Y-178391190D02*
X121995238Y-178343571D01*
X121995238Y-178343571D02*
X121804762Y-178343571D01*
X121804762Y-178343571D02*
X121709524Y-178391190D01*
X121709524Y-178391190D02*
X121661905Y-178438809D01*
X121661905Y-178438809D02*
X121614286Y-178534047D01*
%TO.C,J3*%
X12716666Y-48362619D02*
X12716666Y-49076904D01*
X12716666Y-49076904D02*
X12669047Y-49219761D01*
X12669047Y-49219761D02*
X12573809Y-49315000D01*
X12573809Y-49315000D02*
X12430952Y-49362619D01*
X12430952Y-49362619D02*
X12335714Y-49362619D01*
X13097619Y-48362619D02*
X13716666Y-48362619D01*
X13716666Y-48362619D02*
X13383333Y-48743571D01*
X13383333Y-48743571D02*
X13526190Y-48743571D01*
X13526190Y-48743571D02*
X13621428Y-48791190D01*
X13621428Y-48791190D02*
X13669047Y-48838809D01*
X13669047Y-48838809D02*
X13716666Y-48934047D01*
X13716666Y-48934047D02*
X13716666Y-49172142D01*
X13716666Y-49172142D02*
X13669047Y-49267380D01*
X13669047Y-49267380D02*
X13621428Y-49315000D01*
X13621428Y-49315000D02*
X13526190Y-49362619D01*
X13526190Y-49362619D02*
X13240476Y-49362619D01*
X13240476Y-49362619D02*
X13145238Y-49315000D01*
X13145238Y-49315000D02*
X13097619Y-49267380D01*
%TO.C,F1*%
X13688809Y-112383333D02*
X13688809Y-112716666D01*
X14212619Y-112716666D02*
X13212619Y-112716666D01*
X13212619Y-112716666D02*
X13212619Y-112240476D01*
X14212619Y-111335714D02*
X14212619Y-111907142D01*
X14212619Y-111621428D02*
X13212619Y-111621428D01*
X13212619Y-111621428D02*
X13355476Y-111716666D01*
X13355476Y-111716666D02*
X13450714Y-111811904D01*
X13450714Y-111811904D02*
X13498333Y-111907142D01*
%TO.C,J8*%
X65772619Y-178283333D02*
X66486904Y-178283333D01*
X66486904Y-178283333D02*
X66629761Y-178330952D01*
X66629761Y-178330952D02*
X66725000Y-178426190D01*
X66725000Y-178426190D02*
X66772619Y-178569047D01*
X66772619Y-178569047D02*
X66772619Y-178664285D01*
X66201190Y-177664285D02*
X66153571Y-177759523D01*
X66153571Y-177759523D02*
X66105952Y-177807142D01*
X66105952Y-177807142D02*
X66010714Y-177854761D01*
X66010714Y-177854761D02*
X65963095Y-177854761D01*
X65963095Y-177854761D02*
X65867857Y-177807142D01*
X65867857Y-177807142D02*
X65820238Y-177759523D01*
X65820238Y-177759523D02*
X65772619Y-177664285D01*
X65772619Y-177664285D02*
X65772619Y-177473809D01*
X65772619Y-177473809D02*
X65820238Y-177378571D01*
X65820238Y-177378571D02*
X65867857Y-177330952D01*
X65867857Y-177330952D02*
X65963095Y-177283333D01*
X65963095Y-177283333D02*
X66010714Y-177283333D01*
X66010714Y-177283333D02*
X66105952Y-177330952D01*
X66105952Y-177330952D02*
X66153571Y-177378571D01*
X66153571Y-177378571D02*
X66201190Y-177473809D01*
X66201190Y-177473809D02*
X66201190Y-177664285D01*
X66201190Y-177664285D02*
X66248809Y-177759523D01*
X66248809Y-177759523D02*
X66296428Y-177807142D01*
X66296428Y-177807142D02*
X66391666Y-177854761D01*
X66391666Y-177854761D02*
X66582142Y-177854761D01*
X66582142Y-177854761D02*
X66677380Y-177807142D01*
X66677380Y-177807142D02*
X66725000Y-177759523D01*
X66725000Y-177759523D02*
X66772619Y-177664285D01*
X66772619Y-177664285D02*
X66772619Y-177473809D01*
X66772619Y-177473809D02*
X66725000Y-177378571D01*
X66725000Y-177378571D02*
X66677380Y-177330952D01*
X66677380Y-177330952D02*
X66582142Y-177283333D01*
X66582142Y-177283333D02*
X66391666Y-177283333D01*
X66391666Y-177283333D02*
X66296428Y-177330952D01*
X66296428Y-177330952D02*
X66248809Y-177378571D01*
X66248809Y-177378571D02*
X66201190Y-177473809D01*
D13*
%TO.C,U6*%
X95113095Y-108387619D02*
X95113095Y-109197142D01*
X95113095Y-109197142D02*
X95160714Y-109292380D01*
X95160714Y-109292380D02*
X95208333Y-109340000D01*
X95208333Y-109340000D02*
X95303571Y-109387619D01*
X95303571Y-109387619D02*
X95494047Y-109387619D01*
X95494047Y-109387619D02*
X95589285Y-109340000D01*
X95589285Y-109340000D02*
X95636904Y-109292380D01*
X95636904Y-109292380D02*
X95684523Y-109197142D01*
X95684523Y-109197142D02*
X95684523Y-108387619D01*
X96589285Y-108387619D02*
X96398809Y-108387619D01*
X96398809Y-108387619D02*
X96303571Y-108435238D01*
X96303571Y-108435238D02*
X96255952Y-108482857D01*
X96255952Y-108482857D02*
X96160714Y-108625714D01*
X96160714Y-108625714D02*
X96113095Y-108816190D01*
X96113095Y-108816190D02*
X96113095Y-109197142D01*
X96113095Y-109197142D02*
X96160714Y-109292380D01*
X96160714Y-109292380D02*
X96208333Y-109340000D01*
X96208333Y-109340000D02*
X96303571Y-109387619D01*
X96303571Y-109387619D02*
X96494047Y-109387619D01*
X96494047Y-109387619D02*
X96589285Y-109340000D01*
X96589285Y-109340000D02*
X96636904Y-109292380D01*
X96636904Y-109292380D02*
X96684523Y-109197142D01*
X96684523Y-109197142D02*
X96684523Y-108959047D01*
X96684523Y-108959047D02*
X96636904Y-108863809D01*
X96636904Y-108863809D02*
X96589285Y-108816190D01*
X96589285Y-108816190D02*
X96494047Y-108768571D01*
X96494047Y-108768571D02*
X96303571Y-108768571D01*
X96303571Y-108768571D02*
X96208333Y-108816190D01*
X96208333Y-108816190D02*
X96160714Y-108863809D01*
X96160714Y-108863809D02*
X96113095Y-108959047D01*
D11*
%TO.C,R4*%
X54723333Y-169462619D02*
X54390000Y-168986428D01*
X54151905Y-169462619D02*
X54151905Y-168462619D01*
X54151905Y-168462619D02*
X54532857Y-168462619D01*
X54532857Y-168462619D02*
X54628095Y-168510238D01*
X54628095Y-168510238D02*
X54675714Y-168557857D01*
X54675714Y-168557857D02*
X54723333Y-168653095D01*
X54723333Y-168653095D02*
X54723333Y-168795952D01*
X54723333Y-168795952D02*
X54675714Y-168891190D01*
X54675714Y-168891190D02*
X54628095Y-168938809D01*
X54628095Y-168938809D02*
X54532857Y-168986428D01*
X54532857Y-168986428D02*
X54151905Y-168986428D01*
X55580476Y-168795952D02*
X55580476Y-169462619D01*
X55342381Y-168415000D02*
X55104286Y-169129285D01*
X55104286Y-169129285D02*
X55723333Y-169129285D01*
%TO.C,J1*%
X18541666Y-174012619D02*
X18541666Y-174726904D01*
X18541666Y-174726904D02*
X18494047Y-174869761D01*
X18494047Y-174869761D02*
X18398809Y-174965000D01*
X18398809Y-174965000D02*
X18255952Y-175012619D01*
X18255952Y-175012619D02*
X18160714Y-175012619D01*
X19541666Y-175012619D02*
X18970238Y-175012619D01*
X19255952Y-175012619D02*
X19255952Y-174012619D01*
X19255952Y-174012619D02*
X19160714Y-174155476D01*
X19160714Y-174155476D02*
X19065476Y-174250714D01*
X19065476Y-174250714D02*
X18970238Y-174298333D01*
%TO.C,J19*%
X17390476Y-84312619D02*
X17390476Y-85026904D01*
X17390476Y-85026904D02*
X17342857Y-85169761D01*
X17342857Y-85169761D02*
X17247619Y-85265000D01*
X17247619Y-85265000D02*
X17104762Y-85312619D01*
X17104762Y-85312619D02*
X17009524Y-85312619D01*
X18390476Y-85312619D02*
X17819048Y-85312619D01*
X18104762Y-85312619D02*
X18104762Y-84312619D01*
X18104762Y-84312619D02*
X18009524Y-84455476D01*
X18009524Y-84455476D02*
X17914286Y-84550714D01*
X17914286Y-84550714D02*
X17819048Y-84598333D01*
X18866667Y-85312619D02*
X19057143Y-85312619D01*
X19057143Y-85312619D02*
X19152381Y-85265000D01*
X19152381Y-85265000D02*
X19200000Y-85217380D01*
X19200000Y-85217380D02*
X19295238Y-85074523D01*
X19295238Y-85074523D02*
X19342857Y-84884047D01*
X19342857Y-84884047D02*
X19342857Y-84503095D01*
X19342857Y-84503095D02*
X19295238Y-84407857D01*
X19295238Y-84407857D02*
X19247619Y-84360238D01*
X19247619Y-84360238D02*
X19152381Y-84312619D01*
X19152381Y-84312619D02*
X18961905Y-84312619D01*
X18961905Y-84312619D02*
X18866667Y-84360238D01*
X18866667Y-84360238D02*
X18819048Y-84407857D01*
X18819048Y-84407857D02*
X18771429Y-84503095D01*
X18771429Y-84503095D02*
X18771429Y-84741190D01*
X18771429Y-84741190D02*
X18819048Y-84836428D01*
X18819048Y-84836428D02*
X18866667Y-84884047D01*
X18866667Y-84884047D02*
X18961905Y-84931666D01*
X18961905Y-84931666D02*
X19152381Y-84931666D01*
X19152381Y-84931666D02*
X19247619Y-84884047D01*
X19247619Y-84884047D02*
X19295238Y-84836428D01*
X19295238Y-84836428D02*
X19342857Y-84741190D01*
X11128571Y-80972500D02*
X12271429Y-80972500D01*
X11700000Y-81543928D02*
X11700000Y-80401071D01*
X24128571Y-80972500D02*
X25271429Y-80972500D01*
%TO.C,R2*%
X72023333Y-148457619D02*
X71690000Y-147981428D01*
X71451905Y-148457619D02*
X71451905Y-147457619D01*
X71451905Y-147457619D02*
X71832857Y-147457619D01*
X71832857Y-147457619D02*
X71928095Y-147505238D01*
X71928095Y-147505238D02*
X71975714Y-147552857D01*
X71975714Y-147552857D02*
X72023333Y-147648095D01*
X72023333Y-147648095D02*
X72023333Y-147790952D01*
X72023333Y-147790952D02*
X71975714Y-147886190D01*
X71975714Y-147886190D02*
X71928095Y-147933809D01*
X71928095Y-147933809D02*
X71832857Y-147981428D01*
X71832857Y-147981428D02*
X71451905Y-147981428D01*
X72404286Y-147552857D02*
X72451905Y-147505238D01*
X72451905Y-147505238D02*
X72547143Y-147457619D01*
X72547143Y-147457619D02*
X72785238Y-147457619D01*
X72785238Y-147457619D02*
X72880476Y-147505238D01*
X72880476Y-147505238D02*
X72928095Y-147552857D01*
X72928095Y-147552857D02*
X72975714Y-147648095D01*
X72975714Y-147648095D02*
X72975714Y-147743333D01*
X72975714Y-147743333D02*
X72928095Y-147886190D01*
X72928095Y-147886190D02*
X72356667Y-148457619D01*
X72356667Y-148457619D02*
X72975714Y-148457619D01*
%TO.C,U1*%
X34607619Y-160936904D02*
X35417142Y-160936904D01*
X35417142Y-160936904D02*
X35512380Y-160889285D01*
X35512380Y-160889285D02*
X35560000Y-160841666D01*
X35560000Y-160841666D02*
X35607619Y-160746428D01*
X35607619Y-160746428D02*
X35607619Y-160555952D01*
X35607619Y-160555952D02*
X35560000Y-160460714D01*
X35560000Y-160460714D02*
X35512380Y-160413095D01*
X35512380Y-160413095D02*
X35417142Y-160365476D01*
X35417142Y-160365476D02*
X34607619Y-160365476D01*
X35607619Y-159365476D02*
X35607619Y-159936904D01*
X35607619Y-159651190D02*
X34607619Y-159651190D01*
X34607619Y-159651190D02*
X34750476Y-159746428D01*
X34750476Y-159746428D02*
X34845714Y-159841666D01*
X34845714Y-159841666D02*
X34893333Y-159936904D01*
%TO.C,C17*%
X104904491Y-165367380D02*
X104856872Y-165415000D01*
X104856872Y-165415000D02*
X104714015Y-165462619D01*
X104714015Y-165462619D02*
X104618777Y-165462619D01*
X104618777Y-165462619D02*
X104475920Y-165415000D01*
X104475920Y-165415000D02*
X104380682Y-165319761D01*
X104380682Y-165319761D02*
X104333063Y-165224523D01*
X104333063Y-165224523D02*
X104285444Y-165034047D01*
X104285444Y-165034047D02*
X104285444Y-164891190D01*
X104285444Y-164891190D02*
X104333063Y-164700714D01*
X104333063Y-164700714D02*
X104380682Y-164605476D01*
X104380682Y-164605476D02*
X104475920Y-164510238D01*
X104475920Y-164510238D02*
X104618777Y-164462619D01*
X104618777Y-164462619D02*
X104714015Y-164462619D01*
X104714015Y-164462619D02*
X104856872Y-164510238D01*
X104856872Y-164510238D02*
X104904491Y-164557857D01*
X105856872Y-165462619D02*
X105285444Y-165462619D01*
X105571158Y-165462619D02*
X105571158Y-164462619D01*
X105571158Y-164462619D02*
X105475920Y-164605476D01*
X105475920Y-164605476D02*
X105380682Y-164700714D01*
X105380682Y-164700714D02*
X105285444Y-164748333D01*
X106190206Y-164462619D02*
X106856872Y-164462619D01*
X106856872Y-164462619D02*
X106428301Y-165462619D01*
D14*
%TO.C,J4*%
X23510000Y-96910000D02*
X23510000Y-94090000D01*
X23510000Y-96910000D02*
X21810000Y-98210000D01*
X23510000Y-94090000D02*
X21810000Y-92790000D01*
X21810000Y-98210000D02*
X13090000Y-98210000D01*
X21810000Y-92790000D02*
X13090000Y-92790000D01*
X13090000Y-98210000D02*
X13090000Y-92790000D01*
%TO.C,C9*%
X127590000Y-22523752D02*
X127590000Y-21101248D01*
X129410000Y-22523752D02*
X129410000Y-21101248D01*
D15*
%TO.C,J13*%
X137050000Y-148100000D02*
X137050000Y-140200000D01*
X141550000Y-148100000D02*
X137050000Y-148100000D01*
X137050000Y-140200000D02*
X141550000Y-140200000D01*
X141550000Y-140200000D02*
X141550000Y-148100000D01*
D16*
X142350000Y-142150000D02*
G75*
G03*
X142350000Y-142150000I-100000J0D01*
G01*
D14*
%TO.C,C1*%
X122198000Y-81673752D02*
X122198000Y-80251248D01*
X124018000Y-81673752D02*
X124018000Y-80251248D01*
%TO.C,R1*%
X64745000Y-153302064D02*
X64745000Y-151847936D01*
X66565000Y-153302064D02*
X66565000Y-151847936D01*
%TO.C,U7*%
X69645000Y-153525000D02*
X69645000Y-156975000D01*
X69645000Y-153525000D02*
X69645000Y-151575000D01*
X74765000Y-153525000D02*
X74765000Y-155475000D01*
X74765000Y-153525000D02*
X74765000Y-151575000D01*
%TO.C,C4*%
X130961000Y-81673752D02*
X130961000Y-80251248D01*
X132781000Y-81673752D02*
X132781000Y-80251248D01*
D15*
%TO.C,J14*%
X143725000Y-148050000D02*
X143725000Y-140150000D01*
X148225000Y-148050000D02*
X143725000Y-148050000D01*
X143725000Y-140150000D02*
X148225000Y-140150000D01*
X148225000Y-140150000D02*
X148225000Y-148050000D01*
D16*
X149025000Y-142100000D02*
G75*
G03*
X149025000Y-142100000I-100000J0D01*
G01*
D14*
%TO.C,J6*%
X173542000Y-56798000D02*
X172212000Y-56798000D01*
X173542000Y-55468000D02*
X173542000Y-56798000D01*
X173542000Y-54198000D02*
X173542000Y-36358000D01*
X173542000Y-54198000D02*
X170882000Y-54198000D01*
X173542000Y-36358000D02*
X170882000Y-36358000D01*
X170882000Y-54198000D02*
X170882000Y-36358000D01*
D16*
%TO.C,J7*%
X28780000Y-174997500D02*
X28780000Y-176207500D01*
X28780000Y-178927500D02*
X28780000Y-180417500D01*
X28780000Y-180417500D02*
X37720000Y-180417500D01*
X37720000Y-174997500D02*
X37720000Y-176207500D01*
X37720000Y-180417500D02*
X37720000Y-178927500D01*
X29570000Y-171907500D02*
G75*
G03*
X29570000Y-171907500I-100000J0D01*
G01*
D15*
%TO.C,F2*%
X19550000Y-51910000D02*
X15110000Y-51910000D01*
X15110000Y-51910000D02*
X15110000Y-71210000D01*
X19550000Y-52327000D02*
X19550000Y-51910000D01*
X19550000Y-71210000D02*
X19550000Y-70793000D01*
X15110000Y-71210000D02*
X19550000Y-71210000D01*
D14*
%TO.C,C8*%
X124510000Y-22523752D02*
X124510000Y-21101248D01*
X126330000Y-22523752D02*
X126330000Y-21101248D01*
%TO.C,U2*%
X56550000Y-157490000D02*
X62560000Y-157490000D01*
X58800000Y-164310000D02*
X62560000Y-164310000D01*
X62560000Y-157490000D02*
X62560000Y-158750000D01*
X62560000Y-164310000D02*
X62560000Y-163050000D01*
%TO.C,C13*%
X49488748Y-142240000D02*
X50911252Y-142240000D01*
X49488748Y-144060000D02*
X50911252Y-144060000D01*
%TO.C,C24*%
X59725000Y-157204775D02*
X59725000Y-156704775D01*
X59475000Y-156954775D02*
X59975000Y-156954775D01*
X58620000Y-154400000D02*
X63780000Y-154400000D01*
X58620000Y-154360000D02*
X63780000Y-154360000D01*
X58621000Y-154320000D02*
X63779000Y-154320000D01*
X58622000Y-154280000D02*
X63778000Y-154280000D01*
X58624000Y-154240000D02*
X63776000Y-154240000D01*
X58627000Y-154200000D02*
X63773000Y-154200000D01*
X58631000Y-154160000D02*
X60160000Y-154160000D01*
X62240000Y-154160000D02*
X63769000Y-154160000D01*
X58635000Y-154120000D02*
X60160000Y-154120000D01*
X62240000Y-154120000D02*
X63765000Y-154120000D01*
X58639000Y-154080000D02*
X60160000Y-154080000D01*
X62240000Y-154080000D02*
X63761000Y-154080000D01*
X58644000Y-154040000D02*
X60160000Y-154040000D01*
X62240000Y-154040000D02*
X63756000Y-154040000D01*
X58650000Y-154000000D02*
X60160000Y-154000000D01*
X62240000Y-154000000D02*
X63750000Y-154000000D01*
X58657000Y-153960000D02*
X60160000Y-153960000D01*
X62240000Y-153960000D02*
X63743000Y-153960000D01*
X58664000Y-153920000D02*
X60160000Y-153920000D01*
X62240000Y-153920000D02*
X63736000Y-153920000D01*
X58672000Y-153880000D02*
X60160000Y-153880000D01*
X62240000Y-153880000D02*
X63728000Y-153880000D01*
X58680000Y-153840000D02*
X60160000Y-153840000D01*
X62240000Y-153840000D02*
X63720000Y-153840000D01*
X58689000Y-153800000D02*
X60160000Y-153800000D01*
X62240000Y-153800000D02*
X63711000Y-153800000D01*
X58699000Y-153760000D02*
X60160000Y-153760000D01*
X62240000Y-153760000D02*
X63701000Y-153760000D01*
X58709000Y-153720000D02*
X60160000Y-153720000D01*
X62240000Y-153720000D02*
X63691000Y-153720000D01*
X58720000Y-153679000D02*
X60160000Y-153679000D01*
X62240000Y-153679000D02*
X63680000Y-153679000D01*
X58732000Y-153639000D02*
X60160000Y-153639000D01*
X62240000Y-153639000D02*
X63668000Y-153639000D01*
X58745000Y-153599000D02*
X60160000Y-153599000D01*
X62240000Y-153599000D02*
X63655000Y-153599000D01*
X58758000Y-153559000D02*
X60160000Y-153559000D01*
X62240000Y-153559000D02*
X63642000Y-153559000D01*
X58772000Y-153519000D02*
X60160000Y-153519000D01*
X62240000Y-153519000D02*
X63628000Y-153519000D01*
X58786000Y-153479000D02*
X60160000Y-153479000D01*
X62240000Y-153479000D02*
X63614000Y-153479000D01*
X58802000Y-153439000D02*
X60160000Y-153439000D01*
X62240000Y-153439000D02*
X63598000Y-153439000D01*
X58818000Y-153399000D02*
X60160000Y-153399000D01*
X62240000Y-153399000D02*
X63582000Y-153399000D01*
X58835000Y-153359000D02*
X60160000Y-153359000D01*
X62240000Y-153359000D02*
X63565000Y-153359000D01*
X58852000Y-153319000D02*
X60160000Y-153319000D01*
X62240000Y-153319000D02*
X63548000Y-153319000D01*
X58871000Y-153279000D02*
X60160000Y-153279000D01*
X62240000Y-153279000D02*
X63529000Y-153279000D01*
X58890000Y-153239000D02*
X60160000Y-153239000D01*
X62240000Y-153239000D02*
X63510000Y-153239000D01*
X58910000Y-153199000D02*
X60160000Y-153199000D01*
X62240000Y-153199000D02*
X63490000Y-153199000D01*
X58932000Y-153159000D02*
X60160000Y-153159000D01*
X62240000Y-153159000D02*
X63468000Y-153159000D01*
X58953000Y-153119000D02*
X60160000Y-153119000D01*
X62240000Y-153119000D02*
X63447000Y-153119000D01*
X58976000Y-153079000D02*
X60160000Y-153079000D01*
X62240000Y-153079000D02*
X63424000Y-153079000D01*
X59000000Y-153039000D02*
X60160000Y-153039000D01*
X62240000Y-153039000D02*
X63400000Y-153039000D01*
X59025000Y-152999000D02*
X60160000Y-152999000D01*
X62240000Y-152999000D02*
X63375000Y-152999000D01*
X59051000Y-152959000D02*
X60160000Y-152959000D01*
X62240000Y-152959000D02*
X63349000Y-152959000D01*
X59078000Y-152919000D02*
X60160000Y-152919000D01*
X62240000Y-152919000D02*
X63322000Y-152919000D01*
X59105000Y-152879000D02*
X60160000Y-152879000D01*
X62240000Y-152879000D02*
X63295000Y-152879000D01*
X59135000Y-152839000D02*
X60160000Y-152839000D01*
X62240000Y-152839000D02*
X63265000Y-152839000D01*
X59165000Y-152799000D02*
X60160000Y-152799000D01*
X62240000Y-152799000D02*
X63235000Y-152799000D01*
X59196000Y-152759000D02*
X60160000Y-152759000D01*
X62240000Y-152759000D02*
X63204000Y-152759000D01*
X59229000Y-152719000D02*
X60160000Y-152719000D01*
X62240000Y-152719000D02*
X63171000Y-152719000D01*
X59263000Y-152679000D02*
X60160000Y-152679000D01*
X62240000Y-152679000D02*
X63137000Y-152679000D01*
X59299000Y-152639000D02*
X60160000Y-152639000D01*
X62240000Y-152639000D02*
X63101000Y-152639000D01*
X59336000Y-152599000D02*
X60160000Y-152599000D01*
X62240000Y-152599000D02*
X63064000Y-152599000D01*
X59374000Y-152559000D02*
X60160000Y-152559000D01*
X62240000Y-152559000D02*
X63026000Y-152559000D01*
X59415000Y-152519000D02*
X60160000Y-152519000D01*
X62240000Y-152519000D02*
X62985000Y-152519000D01*
X59457000Y-152479000D02*
X60160000Y-152479000D01*
X62240000Y-152479000D02*
X62943000Y-152479000D01*
X59501000Y-152439000D02*
X60160000Y-152439000D01*
X62240000Y-152439000D02*
X62899000Y-152439000D01*
X59547000Y-152399000D02*
X60160000Y-152399000D01*
X62240000Y-152399000D02*
X62853000Y-152399000D01*
X59595000Y-152359000D02*
X60160000Y-152359000D01*
X62240000Y-152359000D02*
X62805000Y-152359000D01*
X59646000Y-152319000D02*
X60160000Y-152319000D01*
X62240000Y-152319000D02*
X62754000Y-152319000D01*
X59700000Y-152279000D02*
X60160000Y-152279000D01*
X62240000Y-152279000D02*
X62700000Y-152279000D01*
X59757000Y-152239000D02*
X60160000Y-152239000D01*
X62240000Y-152239000D02*
X62643000Y-152239000D01*
X59817000Y-152199000D02*
X60160000Y-152199000D01*
X62240000Y-152199000D02*
X62583000Y-152199000D01*
X59881000Y-152159000D02*
X60160000Y-152159000D01*
X62240000Y-152159000D02*
X62519000Y-152159000D01*
X59949000Y-152119000D02*
X60160000Y-152119000D01*
X62240000Y-152119000D02*
X62451000Y-152119000D01*
X60022000Y-152079000D02*
X62378000Y-152079000D01*
X60102000Y-152039000D02*
X62298000Y-152039000D01*
X60189000Y-151999000D02*
X62211000Y-151999000D01*
X60285000Y-151959000D02*
X62115000Y-151959000D01*
X60395000Y-151919000D02*
X62005000Y-151919000D01*
X60523000Y-151879000D02*
X61877000Y-151879000D01*
X60682000Y-151839000D02*
X61718000Y-151839000D01*
X60916000Y-151799000D02*
X61484000Y-151799000D01*
X63820000Y-154400000D02*
G75*
G03*
X63820000Y-154400000I-2620000J0D01*
G01*
D15*
%TO.C,J15*%
X150400000Y-148100000D02*
X150400000Y-140200000D01*
X154900000Y-148100000D02*
X150400000Y-148100000D01*
X150400000Y-140200000D02*
X154900000Y-140200000D01*
X154900000Y-140200000D02*
X154900000Y-148100000D01*
D16*
X155700000Y-142150000D02*
G75*
G03*
X155700000Y-142150000I-100000J0D01*
G01*
D13*
%TO.C,U5*%
X113170000Y-152880000D02*
X133430000Y-152880000D01*
X133430000Y-152880000D02*
X133430000Y-137320000D01*
X133430000Y-137320000D02*
X113170000Y-137320000D01*
X113170000Y-137320000D02*
X113170000Y-152880000D01*
D14*
%TO.C,J2*%
X11400000Y-33800000D02*
X24000000Y-33800000D01*
X24000000Y-33800000D02*
X24000000Y-23450000D01*
X16200000Y-23450000D02*
X16500000Y-22950000D01*
X21600000Y-23450000D02*
X16200000Y-23450000D01*
X23050000Y-23450000D02*
X23300000Y-22950000D01*
X24000000Y-23450000D02*
X23050000Y-23450000D01*
X11400000Y-22950000D02*
X11400000Y-33800000D01*
X16500000Y-22950000D02*
X11400000Y-22950000D01*
X21350000Y-22950000D02*
X21600000Y-23450000D01*
X21400000Y-22950000D02*
X21350000Y-22950000D01*
X23300000Y-22950000D02*
X21400000Y-22950000D01*
%TO.C,U3*%
X36055000Y-30065000D02*
X36055000Y-28735000D01*
X37385000Y-30065000D02*
X36055000Y-30065000D01*
X38655000Y-27405000D02*
X86975000Y-27405000D01*
X38655000Y-30065000D02*
X38655000Y-27405000D01*
X38655000Y-30065000D02*
X86975000Y-30065000D01*
X86975000Y-30065000D02*
X86975000Y-27405000D01*
X114570000Y-30080000D02*
X114570000Y-28750000D01*
X115900000Y-30080000D02*
X114570000Y-30080000D01*
X117170000Y-27420000D02*
X145170000Y-27420000D01*
X117170000Y-30080000D02*
X117170000Y-27420000D01*
X117170000Y-30080000D02*
X145170000Y-30080000D01*
X145170000Y-30080000D02*
X145170000Y-27420000D01*
D13*
X25765000Y-26975000D02*
X166265000Y-26975000D01*
X166265000Y-26975000D02*
X166265000Y-76975000D01*
X166265000Y-76975000D02*
X25765000Y-76975000D01*
X25765000Y-76975000D02*
X25765000Y-26975000D01*
X29765000Y-29350000D02*
G75*
G03*
X29765000Y-29350000I-1500000J0D01*
G01*
X29765000Y-72850000D02*
G75*
G03*
X29765000Y-72850000I-1500000J0D01*
G01*
X165265000Y-29350000D02*
G75*
G03*
X165265000Y-29350000I-1500000J0D01*
G01*
X165265000Y-72850000D02*
G75*
G03*
X165265000Y-72850000I-1500000J0D01*
G01*
D14*
%TO.C,C14*%
X35743752Y-155410000D02*
X34321248Y-155410000D01*
X35743752Y-153590000D02*
X34321248Y-153590000D01*
%TO.C,D3*%
X34070000Y-141300000D02*
X33420000Y-141300000D01*
X33420000Y-142420000D02*
X33420000Y-140180000D01*
X33420000Y-140180000D02*
X29180000Y-140180000D01*
X32820000Y-142420000D02*
X32820000Y-140180000D01*
X32700000Y-142420000D02*
X32700000Y-140180000D01*
X32580000Y-142420000D02*
X32580000Y-140180000D01*
X29180000Y-142420000D02*
X33420000Y-142420000D01*
X29180000Y-140180000D02*
X29180000Y-142420000D01*
X28530000Y-141300000D02*
X29180000Y-141300000D01*
%TO.C,C16*%
X41228748Y-164890000D02*
X42651252Y-164890000D01*
X41228748Y-166710000D02*
X42651252Y-166710000D01*
D15*
%TO.C,U4*%
X99465000Y-177650000D02*
X81465000Y-177650000D01*
X99465000Y-171150000D02*
X99465000Y-177650000D01*
X99465000Y-152800000D02*
X99465000Y-152150000D01*
X99465000Y-152150000D02*
X97015000Y-152150000D01*
X83915000Y-152150000D02*
X81465000Y-152150000D01*
X81465000Y-177650000D02*
X81465000Y-171150000D01*
X81465000Y-152150000D02*
X81465000Y-152800000D01*
D16*
X100565000Y-170150000D02*
G75*
G03*
X100565000Y-170150000I-100000J0D01*
G01*
D14*
%TO.C,C19*%
X37640302Y-138285000D02*
X38440302Y-138285000D01*
X38040302Y-137885000D02*
X38040302Y-138685000D01*
X42050000Y-136520000D02*
X42050000Y-144680000D01*
X42090000Y-136520000D02*
X42090000Y-144680000D01*
X42130000Y-136520000D02*
X42130000Y-144680000D01*
X42170000Y-136521000D02*
X42170000Y-144679000D01*
X42210000Y-136523000D02*
X42210000Y-144677000D01*
X42250000Y-136524000D02*
X42250000Y-144676000D01*
X42290000Y-136526000D02*
X42290000Y-144674000D01*
X42330000Y-136529000D02*
X42330000Y-144671000D01*
X42370000Y-136532000D02*
X42370000Y-144668000D01*
X42410000Y-136535000D02*
X42410000Y-144665000D01*
X42450000Y-136539000D02*
X42450000Y-144661000D01*
X42490000Y-136543000D02*
X42490000Y-144657000D01*
X42530000Y-136548000D02*
X42530000Y-144652000D01*
X42570000Y-136552000D02*
X42570000Y-144648000D01*
X42610000Y-136558000D02*
X42610000Y-144642000D01*
X42650000Y-136563000D02*
X42650000Y-144637000D01*
X42690000Y-136570000D02*
X42690000Y-144630000D01*
X42730000Y-136576000D02*
X42730000Y-144624000D01*
X42771000Y-136583000D02*
X42771000Y-139560000D01*
X42771000Y-141640000D02*
X42771000Y-144617000D01*
X42811000Y-136590000D02*
X42811000Y-139560000D01*
X42811000Y-141640000D02*
X42811000Y-144610000D01*
X42851000Y-136598000D02*
X42851000Y-139560000D01*
X42851000Y-141640000D02*
X42851000Y-144602000D01*
X42891000Y-136606000D02*
X42891000Y-139560000D01*
X42891000Y-141640000D02*
X42891000Y-144594000D01*
X42931000Y-136615000D02*
X42931000Y-139560000D01*
X42931000Y-141640000D02*
X42931000Y-144585000D01*
X42971000Y-136624000D02*
X42971000Y-139560000D01*
X42971000Y-141640000D02*
X42971000Y-144576000D01*
X43011000Y-136633000D02*
X43011000Y-139560000D01*
X43011000Y-141640000D02*
X43011000Y-144567000D01*
X43051000Y-136643000D02*
X43051000Y-139560000D01*
X43051000Y-141640000D02*
X43051000Y-144557000D01*
X43091000Y-136653000D02*
X43091000Y-139560000D01*
X43091000Y-141640000D02*
X43091000Y-144547000D01*
X43131000Y-136664000D02*
X43131000Y-139560000D01*
X43131000Y-141640000D02*
X43131000Y-144536000D01*
X43171000Y-136675000D02*
X43171000Y-139560000D01*
X43171000Y-141640000D02*
X43171000Y-144525000D01*
X43211000Y-136686000D02*
X43211000Y-139560000D01*
X43211000Y-141640000D02*
X43211000Y-144514000D01*
X43251000Y-136698000D02*
X43251000Y-139560000D01*
X43251000Y-141640000D02*
X43251000Y-144502000D01*
X43291000Y-136711000D02*
X43291000Y-139560000D01*
X43291000Y-141640000D02*
X43291000Y-144489000D01*
X43331000Y-136723000D02*
X43331000Y-139560000D01*
X43331000Y-141640000D02*
X43331000Y-144477000D01*
X43371000Y-136737000D02*
X43371000Y-139560000D01*
X43371000Y-141640000D02*
X43371000Y-144463000D01*
X43411000Y-136750000D02*
X43411000Y-139560000D01*
X43411000Y-141640000D02*
X43411000Y-144450000D01*
X43451000Y-136765000D02*
X43451000Y-139560000D01*
X43451000Y-141640000D02*
X43451000Y-144435000D01*
X43491000Y-136779000D02*
X43491000Y-139560000D01*
X43491000Y-141640000D02*
X43491000Y-144421000D01*
X43531000Y-136795000D02*
X43531000Y-139560000D01*
X43531000Y-141640000D02*
X43531000Y-144405000D01*
X43571000Y-136810000D02*
X43571000Y-139560000D01*
X43571000Y-141640000D02*
X43571000Y-144390000D01*
X43611000Y-136826000D02*
X43611000Y-139560000D01*
X43611000Y-141640000D02*
X43611000Y-144374000D01*
X43651000Y-136843000D02*
X43651000Y-139560000D01*
X43651000Y-141640000D02*
X43651000Y-144357000D01*
X43691000Y-136860000D02*
X43691000Y-139560000D01*
X43691000Y-141640000D02*
X43691000Y-144340000D01*
X43731000Y-136878000D02*
X43731000Y-139560000D01*
X43731000Y-141640000D02*
X43731000Y-144322000D01*
X43771000Y-136896000D02*
X43771000Y-139560000D01*
X43771000Y-141640000D02*
X43771000Y-144304000D01*
X43811000Y-136914000D02*
X43811000Y-139560000D01*
X43811000Y-141640000D02*
X43811000Y-144286000D01*
X43851000Y-136934000D02*
X43851000Y-139560000D01*
X43851000Y-141640000D02*
X43851000Y-144266000D01*
X43891000Y-136953000D02*
X43891000Y-139560000D01*
X43891000Y-141640000D02*
X43891000Y-144247000D01*
X43931000Y-136973000D02*
X43931000Y-139560000D01*
X43931000Y-141640000D02*
X43931000Y-144227000D01*
X43971000Y-136994000D02*
X43971000Y-139560000D01*
X43971000Y-141640000D02*
X43971000Y-144206000D01*
X44011000Y-137016000D02*
X44011000Y-139560000D01*
X44011000Y-141640000D02*
X44011000Y-144184000D01*
X44051000Y-137038000D02*
X44051000Y-139560000D01*
X44051000Y-141640000D02*
X44051000Y-144162000D01*
X44091000Y-137060000D02*
X44091000Y-139560000D01*
X44091000Y-141640000D02*
X44091000Y-144140000D01*
X44131000Y-137083000D02*
X44131000Y-139560000D01*
X44131000Y-141640000D02*
X44131000Y-144117000D01*
X44171000Y-137107000D02*
X44171000Y-139560000D01*
X44171000Y-141640000D02*
X44171000Y-144093000D01*
X44211000Y-137131000D02*
X44211000Y-139560000D01*
X44211000Y-141640000D02*
X44211000Y-144069000D01*
X44251000Y-137156000D02*
X44251000Y-139560000D01*
X44251000Y-141640000D02*
X44251000Y-144044000D01*
X44291000Y-137182000D02*
X44291000Y-139560000D01*
X44291000Y-141640000D02*
X44291000Y-144018000D01*
X44331000Y-137208000D02*
X44331000Y-139560000D01*
X44331000Y-141640000D02*
X44331000Y-143992000D01*
X44371000Y-137235000D02*
X44371000Y-139560000D01*
X44371000Y-141640000D02*
X44371000Y-143965000D01*
X44411000Y-137262000D02*
X44411000Y-139560000D01*
X44411000Y-141640000D02*
X44411000Y-143938000D01*
X44451000Y-137291000D02*
X44451000Y-139560000D01*
X44451000Y-141640000D02*
X44451000Y-143909000D01*
X44491000Y-137320000D02*
X44491000Y-139560000D01*
X44491000Y-141640000D02*
X44491000Y-143880000D01*
X44531000Y-137350000D02*
X44531000Y-139560000D01*
X44531000Y-141640000D02*
X44531000Y-143850000D01*
X44571000Y-137380000D02*
X44571000Y-139560000D01*
X44571000Y-141640000D02*
X44571000Y-143820000D01*
X44611000Y-137411000D02*
X44611000Y-139560000D01*
X44611000Y-141640000D02*
X44611000Y-143789000D01*
X44651000Y-137444000D02*
X44651000Y-139560000D01*
X44651000Y-141640000D02*
X44651000Y-143756000D01*
X44691000Y-137476000D02*
X44691000Y-139560000D01*
X44691000Y-141640000D02*
X44691000Y-143724000D01*
X44731000Y-137510000D02*
X44731000Y-139560000D01*
X44731000Y-141640000D02*
X44731000Y-143690000D01*
X44771000Y-137545000D02*
X44771000Y-139560000D01*
X44771000Y-141640000D02*
X44771000Y-143655000D01*
X44811000Y-137581000D02*
X44811000Y-139560000D01*
X44811000Y-141640000D02*
X44811000Y-143619000D01*
X44851000Y-137617000D02*
X44851000Y-143583000D01*
X44891000Y-137655000D02*
X44891000Y-143545000D01*
X44931000Y-137693000D02*
X44931000Y-143507000D01*
X44971000Y-137733000D02*
X44971000Y-143467000D01*
X45011000Y-137774000D02*
X45011000Y-143426000D01*
X45051000Y-137816000D02*
X45051000Y-143384000D01*
X45091000Y-137859000D02*
X45091000Y-143341000D01*
X45131000Y-137903000D02*
X45131000Y-143297000D01*
X45171000Y-137949000D02*
X45171000Y-143251000D01*
X45211000Y-137996000D02*
X45211000Y-143204000D01*
X45251000Y-138044000D02*
X45251000Y-143156000D01*
X45291000Y-138095000D02*
X45291000Y-143105000D01*
X45331000Y-138146000D02*
X45331000Y-143054000D01*
X45371000Y-138200000D02*
X45371000Y-143000000D01*
X45411000Y-138255000D02*
X45411000Y-142945000D01*
X45451000Y-138313000D02*
X45451000Y-142887000D01*
X45491000Y-138372000D02*
X45491000Y-142828000D01*
X45531000Y-138434000D02*
X45531000Y-142766000D01*
X45571000Y-138498000D02*
X45571000Y-142702000D01*
X45611000Y-138566000D02*
X45611000Y-142634000D01*
X45651000Y-138636000D02*
X45651000Y-142564000D01*
X45691000Y-138710000D02*
X45691000Y-142490000D01*
X45731000Y-138787000D02*
X45731000Y-142413000D01*
X45771000Y-138869000D02*
X45771000Y-142331000D01*
X45811000Y-138955000D02*
X45811000Y-142245000D01*
X45851000Y-139048000D02*
X45851000Y-142152000D01*
X45891000Y-139147000D02*
X45891000Y-142053000D01*
X45931000Y-139254000D02*
X45931000Y-141946000D01*
X45971000Y-139371000D02*
X45971000Y-141829000D01*
X46011000Y-139502000D02*
X46011000Y-141698000D01*
X46051000Y-139652000D02*
X46051000Y-141548000D01*
X46091000Y-139832000D02*
X46091000Y-141368000D01*
X46131000Y-140067000D02*
X46131000Y-141133000D01*
X46170000Y-140600000D02*
G75*
G03*
X46170000Y-140600000I-4120000J0D01*
G01*
%TO.C,C18*%
X104885000Y-85859698D02*
X104885000Y-85059698D01*
X104485000Y-85459698D02*
X105285000Y-85459698D01*
X103120000Y-81450000D02*
X111280000Y-81450000D01*
X103120000Y-81410000D02*
X111280000Y-81410000D01*
X103120000Y-81370000D02*
X111280000Y-81370000D01*
X103121000Y-81330000D02*
X111279000Y-81330000D01*
X103123000Y-81290000D02*
X111277000Y-81290000D01*
X103124000Y-81250000D02*
X111276000Y-81250000D01*
X103126000Y-81210000D02*
X111274000Y-81210000D01*
X103129000Y-81170000D02*
X111271000Y-81170000D01*
X103132000Y-81130000D02*
X111268000Y-81130000D01*
X103135000Y-81090000D02*
X111265000Y-81090000D01*
X103139000Y-81050000D02*
X111261000Y-81050000D01*
X103143000Y-81010000D02*
X111257000Y-81010000D01*
X103148000Y-80970000D02*
X111252000Y-80970000D01*
X103152000Y-80930000D02*
X111248000Y-80930000D01*
X103158000Y-80890000D02*
X111242000Y-80890000D01*
X103163000Y-80850000D02*
X111237000Y-80850000D01*
X103170000Y-80810000D02*
X111230000Y-80810000D01*
X103176000Y-80770000D02*
X111224000Y-80770000D01*
X103183000Y-80729000D02*
X106160000Y-80729000D01*
X108240000Y-80729000D02*
X111217000Y-80729000D01*
X103190000Y-80689000D02*
X106160000Y-80689000D01*
X108240000Y-80689000D02*
X111210000Y-80689000D01*
X103198000Y-80649000D02*
X106160000Y-80649000D01*
X108240000Y-80649000D02*
X111202000Y-80649000D01*
X103206000Y-80609000D02*
X106160000Y-80609000D01*
X108240000Y-80609000D02*
X111194000Y-80609000D01*
X103215000Y-80569000D02*
X106160000Y-80569000D01*
X108240000Y-80569000D02*
X111185000Y-80569000D01*
X103224000Y-80529000D02*
X106160000Y-80529000D01*
X108240000Y-80529000D02*
X111176000Y-80529000D01*
X103233000Y-80489000D02*
X106160000Y-80489000D01*
X108240000Y-80489000D02*
X111167000Y-80489000D01*
X103243000Y-80449000D02*
X106160000Y-80449000D01*
X108240000Y-80449000D02*
X111157000Y-80449000D01*
X103253000Y-80409000D02*
X106160000Y-80409000D01*
X108240000Y-80409000D02*
X111147000Y-80409000D01*
X103264000Y-80369000D02*
X106160000Y-80369000D01*
X108240000Y-80369000D02*
X111136000Y-80369000D01*
X103275000Y-80329000D02*
X106160000Y-80329000D01*
X108240000Y-80329000D02*
X111125000Y-80329000D01*
X103286000Y-80289000D02*
X106160000Y-80289000D01*
X108240000Y-80289000D02*
X111114000Y-80289000D01*
X103298000Y-80249000D02*
X106160000Y-80249000D01*
X108240000Y-80249000D02*
X111102000Y-80249000D01*
X103311000Y-80209000D02*
X106160000Y-80209000D01*
X108240000Y-80209000D02*
X111089000Y-80209000D01*
X103323000Y-80169000D02*
X106160000Y-80169000D01*
X108240000Y-80169000D02*
X111077000Y-80169000D01*
X103337000Y-80129000D02*
X106160000Y-80129000D01*
X108240000Y-80129000D02*
X111063000Y-80129000D01*
X103350000Y-80089000D02*
X106160000Y-80089000D01*
X108240000Y-80089000D02*
X111050000Y-80089000D01*
X103365000Y-80049000D02*
X106160000Y-80049000D01*
X108240000Y-80049000D02*
X111035000Y-80049000D01*
X103379000Y-80009000D02*
X106160000Y-80009000D01*
X108240000Y-80009000D02*
X111021000Y-80009000D01*
X103395000Y-79969000D02*
X106160000Y-79969000D01*
X108240000Y-79969000D02*
X111005000Y-79969000D01*
X103410000Y-79929000D02*
X106160000Y-79929000D01*
X108240000Y-79929000D02*
X110990000Y-79929000D01*
X103426000Y-79889000D02*
X106160000Y-79889000D01*
X108240000Y-79889000D02*
X110974000Y-79889000D01*
X103443000Y-79849000D02*
X106160000Y-79849000D01*
X108240000Y-79849000D02*
X110957000Y-79849000D01*
X103460000Y-79809000D02*
X106160000Y-79809000D01*
X108240000Y-79809000D02*
X110940000Y-79809000D01*
X103478000Y-79769000D02*
X106160000Y-79769000D01*
X108240000Y-79769000D02*
X110922000Y-79769000D01*
X103496000Y-79729000D02*
X106160000Y-79729000D01*
X108240000Y-79729000D02*
X110904000Y-79729000D01*
X103514000Y-79689000D02*
X106160000Y-79689000D01*
X108240000Y-79689000D02*
X110886000Y-79689000D01*
X103534000Y-79649000D02*
X106160000Y-79649000D01*
X108240000Y-79649000D02*
X110866000Y-79649000D01*
X103553000Y-79609000D02*
X106160000Y-79609000D01*
X108240000Y-79609000D02*
X110847000Y-79609000D01*
X103573000Y-79569000D02*
X106160000Y-79569000D01*
X108240000Y-79569000D02*
X110827000Y-79569000D01*
X103594000Y-79529000D02*
X106160000Y-79529000D01*
X108240000Y-79529000D02*
X110806000Y-79529000D01*
X103616000Y-79489000D02*
X106160000Y-79489000D01*
X108240000Y-79489000D02*
X110784000Y-79489000D01*
X103638000Y-79449000D02*
X106160000Y-79449000D01*
X108240000Y-79449000D02*
X110762000Y-79449000D01*
X103660000Y-79409000D02*
X106160000Y-79409000D01*
X108240000Y-79409000D02*
X110740000Y-79409000D01*
X103683000Y-79369000D02*
X106160000Y-79369000D01*
X108240000Y-79369000D02*
X110717000Y-79369000D01*
X103707000Y-79329000D02*
X106160000Y-79329000D01*
X108240000Y-79329000D02*
X110693000Y-79329000D01*
X103731000Y-79289000D02*
X106160000Y-79289000D01*
X108240000Y-79289000D02*
X110669000Y-79289000D01*
X103756000Y-79249000D02*
X106160000Y-79249000D01*
X108240000Y-79249000D02*
X110644000Y-79249000D01*
X103782000Y-79209000D02*
X106160000Y-79209000D01*
X108240000Y-79209000D02*
X110618000Y-79209000D01*
X103808000Y-79169000D02*
X106160000Y-79169000D01*
X108240000Y-79169000D02*
X110592000Y-79169000D01*
X103835000Y-79129000D02*
X106160000Y-79129000D01*
X108240000Y-79129000D02*
X110565000Y-79129000D01*
X103862000Y-79089000D02*
X106160000Y-79089000D01*
X108240000Y-79089000D02*
X110538000Y-79089000D01*
X103891000Y-79049000D02*
X106160000Y-79049000D01*
X108240000Y-79049000D02*
X110509000Y-79049000D01*
X103920000Y-79009000D02*
X106160000Y-79009000D01*
X108240000Y-79009000D02*
X110480000Y-79009000D01*
X103950000Y-78969000D02*
X106160000Y-78969000D01*
X108240000Y-78969000D02*
X110450000Y-78969000D01*
X103980000Y-78929000D02*
X106160000Y-78929000D01*
X108240000Y-78929000D02*
X110420000Y-78929000D01*
X104011000Y-78889000D02*
X106160000Y-78889000D01*
X108240000Y-78889000D02*
X110389000Y-78889000D01*
X104044000Y-78849000D02*
X106160000Y-78849000D01*
X108240000Y-78849000D02*
X110356000Y-78849000D01*
X104076000Y-78809000D02*
X106160000Y-78809000D01*
X108240000Y-78809000D02*
X110324000Y-78809000D01*
X104110000Y-78769000D02*
X106160000Y-78769000D01*
X108240000Y-78769000D02*
X110290000Y-78769000D01*
X104145000Y-78729000D02*
X106160000Y-78729000D01*
X108240000Y-78729000D02*
X110255000Y-78729000D01*
X104181000Y-78689000D02*
X106160000Y-78689000D01*
X108240000Y-78689000D02*
X110219000Y-78689000D01*
X104217000Y-78649000D02*
X110183000Y-78649000D01*
X104255000Y-78609000D02*
X110145000Y-78609000D01*
X104293000Y-78569000D02*
X110107000Y-78569000D01*
X104333000Y-78529000D02*
X110067000Y-78529000D01*
X104374000Y-78489000D02*
X110026000Y-78489000D01*
X104416000Y-78449000D02*
X109984000Y-78449000D01*
X104459000Y-78409000D02*
X109941000Y-78409000D01*
X104503000Y-78369000D02*
X109897000Y-78369000D01*
X104549000Y-78329000D02*
X109851000Y-78329000D01*
X104596000Y-78289000D02*
X109804000Y-78289000D01*
X104644000Y-78249000D02*
X109756000Y-78249000D01*
X104695000Y-78209000D02*
X109705000Y-78209000D01*
X104746000Y-78169000D02*
X109654000Y-78169000D01*
X104800000Y-78129000D02*
X109600000Y-78129000D01*
X104855000Y-78089000D02*
X109545000Y-78089000D01*
X104913000Y-78049000D02*
X109487000Y-78049000D01*
X104972000Y-78009000D02*
X109428000Y-78009000D01*
X105034000Y-77969000D02*
X109366000Y-77969000D01*
X105098000Y-77929000D02*
X109302000Y-77929000D01*
X105166000Y-77889000D02*
X109234000Y-77889000D01*
X105236000Y-77849000D02*
X109164000Y-77849000D01*
X105310000Y-77809000D02*
X109090000Y-77809000D01*
X105387000Y-77769000D02*
X109013000Y-77769000D01*
X105469000Y-77729000D02*
X108931000Y-77729000D01*
X105555000Y-77689000D02*
X108845000Y-77689000D01*
X105648000Y-77649000D02*
X108752000Y-77649000D01*
X105747000Y-77609000D02*
X108653000Y-77609000D01*
X105854000Y-77569000D02*
X108546000Y-77569000D01*
X105971000Y-77529000D02*
X108429000Y-77529000D01*
X106102000Y-77489000D02*
X108298000Y-77489000D01*
X106252000Y-77449000D02*
X108148000Y-77449000D01*
X106432000Y-77409000D02*
X107968000Y-77409000D01*
X106667000Y-77369000D02*
X107733000Y-77369000D01*
X111320000Y-81450000D02*
G75*
G03*
X111320000Y-81450000I-4120000J0D01*
G01*
%TO.C,R5*%
X25190000Y-165977064D02*
X25190000Y-164522936D01*
X27010000Y-165977064D02*
X27010000Y-164522936D01*
%TO.C,C3*%
X128040000Y-81673752D02*
X128040000Y-80251248D01*
X129860000Y-81673752D02*
X129860000Y-80251248D01*
D15*
%TO.C,J10*%
X144240000Y-182890000D02*
X144240000Y-180530000D01*
X157450000Y-182890000D02*
X144240000Y-182890000D01*
X142970000Y-180530000D02*
X142970000Y-179260000D01*
X144240000Y-180530000D02*
X142970000Y-180530000D01*
X144240000Y-180530000D02*
X144240000Y-179260000D01*
X157450000Y-180530000D02*
X157450000Y-182890000D01*
X158720000Y-180530000D02*
X157450000Y-180530000D01*
X142970000Y-179260000D02*
X144240000Y-179260000D01*
X144240000Y-179260000D02*
X144240000Y-176630000D01*
X157450000Y-179260000D02*
X157450000Y-180530000D01*
X157450000Y-179260000D02*
X158720000Y-179260000D01*
X157450000Y-179260000D02*
X157450000Y-176630000D01*
X158720000Y-179260000D02*
X158720000Y-180530000D01*
X144240000Y-164860000D02*
X144240000Y-173430000D01*
X144240000Y-164860000D02*
X157450000Y-164860000D01*
X157450000Y-164860000D02*
X157450000Y-173430000D01*
D14*
%TO.C,C6*%
X136803000Y-81673752D02*
X136803000Y-80251248D01*
X138623000Y-81673752D02*
X138623000Y-80251248D01*
%TO.C,C21*%
X112603000Y-25503047D02*
X112603000Y-24703047D01*
X112203000Y-25103047D02*
X113003000Y-25103047D01*
X110838000Y-21093349D02*
X118998000Y-21093349D01*
X110838000Y-21053349D02*
X118998000Y-21053349D01*
X110838000Y-21013349D02*
X118998000Y-21013349D01*
X110839000Y-20973349D02*
X118997000Y-20973349D01*
X110841000Y-20933349D02*
X118995000Y-20933349D01*
X110842000Y-20893349D02*
X118994000Y-20893349D01*
X110844000Y-20853349D02*
X118992000Y-20853349D01*
X110847000Y-20813349D02*
X118989000Y-20813349D01*
X110850000Y-20773349D02*
X118986000Y-20773349D01*
X110853000Y-20733349D02*
X118983000Y-20733349D01*
X110857000Y-20693349D02*
X118979000Y-20693349D01*
X110861000Y-20653349D02*
X118975000Y-20653349D01*
X110866000Y-20613349D02*
X118970000Y-20613349D01*
X110870000Y-20573349D02*
X118966000Y-20573349D01*
X110876000Y-20533349D02*
X118960000Y-20533349D01*
X110881000Y-20493349D02*
X118955000Y-20493349D01*
X110888000Y-20453349D02*
X118948000Y-20453349D01*
X110894000Y-20413349D02*
X118942000Y-20413349D01*
X110901000Y-20372349D02*
X113878000Y-20372349D01*
X115958000Y-20372349D02*
X118935000Y-20372349D01*
X110908000Y-20332349D02*
X113878000Y-20332349D01*
X115958000Y-20332349D02*
X118928000Y-20332349D01*
X110916000Y-20292349D02*
X113878000Y-20292349D01*
X115958000Y-20292349D02*
X118920000Y-20292349D01*
X110924000Y-20252349D02*
X113878000Y-20252349D01*
X115958000Y-20252349D02*
X118912000Y-20252349D01*
X110933000Y-20212349D02*
X113878000Y-20212349D01*
X115958000Y-20212349D02*
X118903000Y-20212349D01*
X110942000Y-20172349D02*
X113878000Y-20172349D01*
X115958000Y-20172349D02*
X118894000Y-20172349D01*
X110951000Y-20132349D02*
X113878000Y-20132349D01*
X115958000Y-20132349D02*
X118885000Y-20132349D01*
X110961000Y-20092349D02*
X113878000Y-20092349D01*
X115958000Y-20092349D02*
X118875000Y-20092349D01*
X110971000Y-20052349D02*
X113878000Y-20052349D01*
X115958000Y-20052349D02*
X118865000Y-20052349D01*
X110982000Y-20012349D02*
X113878000Y-20012349D01*
X115958000Y-20012349D02*
X118854000Y-20012349D01*
X110993000Y-19972349D02*
X113878000Y-19972349D01*
X115958000Y-19972349D02*
X118843000Y-19972349D01*
X111004000Y-19932349D02*
X113878000Y-19932349D01*
X115958000Y-19932349D02*
X118832000Y-19932349D01*
X111016000Y-19892349D02*
X113878000Y-19892349D01*
X115958000Y-19892349D02*
X118820000Y-19892349D01*
X111029000Y-19852349D02*
X113878000Y-19852349D01*
X115958000Y-19852349D02*
X118807000Y-19852349D01*
X111041000Y-19812349D02*
X113878000Y-19812349D01*
X115958000Y-19812349D02*
X118795000Y-19812349D01*
X111055000Y-19772349D02*
X113878000Y-19772349D01*
X115958000Y-19772349D02*
X118781000Y-19772349D01*
X111068000Y-19732349D02*
X113878000Y-19732349D01*
X115958000Y-19732349D02*
X118768000Y-19732349D01*
X111083000Y-19692349D02*
X113878000Y-19692349D01*
X115958000Y-19692349D02*
X118753000Y-19692349D01*
X111097000Y-19652349D02*
X113878000Y-19652349D01*
X115958000Y-19652349D02*
X118739000Y-19652349D01*
X111113000Y-19612349D02*
X113878000Y-19612349D01*
X115958000Y-19612349D02*
X118723000Y-19612349D01*
X111128000Y-19572349D02*
X113878000Y-19572349D01*
X115958000Y-19572349D02*
X118708000Y-19572349D01*
X111144000Y-19532349D02*
X113878000Y-19532349D01*
X115958000Y-19532349D02*
X118692000Y-19532349D01*
X111161000Y-19492349D02*
X113878000Y-19492349D01*
X115958000Y-19492349D02*
X118675000Y-19492349D01*
X111178000Y-19452349D02*
X113878000Y-19452349D01*
X115958000Y-19452349D02*
X118658000Y-19452349D01*
X111196000Y-19412349D02*
X113878000Y-19412349D01*
X115958000Y-19412349D02*
X118640000Y-19412349D01*
X111214000Y-19372349D02*
X113878000Y-19372349D01*
X115958000Y-19372349D02*
X118622000Y-19372349D01*
X111232000Y-19332349D02*
X113878000Y-19332349D01*
X115958000Y-19332349D02*
X118604000Y-19332349D01*
X111252000Y-19292349D02*
X113878000Y-19292349D01*
X115958000Y-19292349D02*
X118584000Y-19292349D01*
X111271000Y-19252349D02*
X113878000Y-19252349D01*
X115958000Y-19252349D02*
X118565000Y-19252349D01*
X111291000Y-19212349D02*
X113878000Y-19212349D01*
X115958000Y-19212349D02*
X118545000Y-19212349D01*
X111312000Y-19172349D02*
X113878000Y-19172349D01*
X115958000Y-19172349D02*
X118524000Y-19172349D01*
X111334000Y-19132349D02*
X113878000Y-19132349D01*
X115958000Y-19132349D02*
X118502000Y-19132349D01*
X111356000Y-19092349D02*
X113878000Y-19092349D01*
X115958000Y-19092349D02*
X118480000Y-19092349D01*
X111378000Y-19052349D02*
X113878000Y-19052349D01*
X115958000Y-19052349D02*
X118458000Y-19052349D01*
X111401000Y-19012349D02*
X113878000Y-19012349D01*
X115958000Y-19012349D02*
X118435000Y-19012349D01*
X111425000Y-18972349D02*
X113878000Y-18972349D01*
X115958000Y-18972349D02*
X118411000Y-18972349D01*
X111449000Y-18932349D02*
X113878000Y-18932349D01*
X115958000Y-18932349D02*
X118387000Y-18932349D01*
X111474000Y-18892349D02*
X113878000Y-18892349D01*
X115958000Y-18892349D02*
X118362000Y-18892349D01*
X111500000Y-18852349D02*
X113878000Y-18852349D01*
X115958000Y-18852349D02*
X118336000Y-18852349D01*
X111526000Y-18812349D02*
X113878000Y-18812349D01*
X115958000Y-18812349D02*
X118310000Y-18812349D01*
X111553000Y-18772349D02*
X113878000Y-18772349D01*
X115958000Y-18772349D02*
X118283000Y-18772349D01*
X111580000Y-18732349D02*
X113878000Y-18732349D01*
X115958000Y-18732349D02*
X118256000Y-18732349D01*
X111609000Y-18692349D02*
X113878000Y-18692349D01*
X115958000Y-18692349D02*
X118227000Y-18692349D01*
X111638000Y-18652349D02*
X113878000Y-18652349D01*
X115958000Y-18652349D02*
X118198000Y-18652349D01*
X111668000Y-18612349D02*
X113878000Y-18612349D01*
X115958000Y-18612349D02*
X118168000Y-18612349D01*
X111698000Y-18572349D02*
X113878000Y-18572349D01*
X115958000Y-18572349D02*
X118138000Y-18572349D01*
X111729000Y-18532349D02*
X113878000Y-18532349D01*
X115958000Y-18532349D02*
X118107000Y-18532349D01*
X111762000Y-18492349D02*
X113878000Y-18492349D01*
X115958000Y-18492349D02*
X118074000Y-18492349D01*
X111794000Y-18452349D02*
X113878000Y-18452349D01*
X115958000Y-18452349D02*
X118042000Y-18452349D01*
X111828000Y-18412349D02*
X113878000Y-18412349D01*
X115958000Y-18412349D02*
X118008000Y-18412349D01*
X111863000Y-18372349D02*
X113878000Y-18372349D01*
X115958000Y-18372349D02*
X117973000Y-18372349D01*
X111899000Y-18332349D02*
X113878000Y-18332349D01*
X115958000Y-18332349D02*
X117937000Y-18332349D01*
X111935000Y-18292349D02*
X117901000Y-18292349D01*
X111973000Y-18252349D02*
X117863000Y-18252349D01*
X112011000Y-18212349D02*
X117825000Y-18212349D01*
X112051000Y-18172349D02*
X117785000Y-18172349D01*
X112092000Y-18132349D02*
X117744000Y-18132349D01*
X112134000Y-18092349D02*
X117702000Y-18092349D01*
X112177000Y-18052349D02*
X117659000Y-18052349D01*
X112221000Y-18012349D02*
X117615000Y-18012349D01*
X112267000Y-17972349D02*
X117569000Y-17972349D01*
X112314000Y-17932349D02*
X117522000Y-17932349D01*
X112362000Y-17892349D02*
X117474000Y-17892349D01*
X112413000Y-17852349D02*
X117423000Y-17852349D01*
X112464000Y-17812349D02*
X117372000Y-17812349D01*
X112518000Y-17772349D02*
X117318000Y-17772349D01*
X112573000Y-17732349D02*
X117263000Y-17732349D01*
X112631000Y-17692349D02*
X117205000Y-17692349D01*
X112690000Y-17652349D02*
X117146000Y-17652349D01*
X112752000Y-17612349D02*
X117084000Y-17612349D01*
X112816000Y-17572349D02*
X117020000Y-17572349D01*
X112884000Y-17532349D02*
X116952000Y-17532349D01*
X112954000Y-17492349D02*
X116882000Y-17492349D01*
X113028000Y-17452349D02*
X116808000Y-17452349D01*
X113105000Y-17412349D02*
X116731000Y-17412349D01*
X113187000Y-17372349D02*
X116649000Y-17372349D01*
X113273000Y-17332349D02*
X116563000Y-17332349D01*
X113366000Y-17292349D02*
X116470000Y-17292349D01*
X113465000Y-17252349D02*
X116371000Y-17252349D01*
X113572000Y-17212349D02*
X116264000Y-17212349D01*
X113689000Y-17172349D02*
X116147000Y-17172349D01*
X113820000Y-17132349D02*
X116016000Y-17132349D01*
X113970000Y-17092349D02*
X115866000Y-17092349D01*
X114150000Y-17052349D02*
X115686000Y-17052349D01*
X114385000Y-17012349D02*
X115451000Y-17012349D01*
X119038000Y-21093349D02*
G75*
G03*
X119038000Y-21093349I-4120000J0D01*
G01*
%TO.C,C10*%
X130670000Y-22523752D02*
X130670000Y-21101248D01*
X132490000Y-22523752D02*
X132490000Y-21101248D01*
%TO.C,C23*%
X55904775Y-165575000D02*
X55404775Y-165575000D01*
X55654775Y-165825000D02*
X55654775Y-165325000D01*
X53100000Y-166680000D02*
X53100000Y-161520000D01*
X53060000Y-166680000D02*
X53060000Y-161520000D01*
X53020000Y-166679000D02*
X53020000Y-161521000D01*
X52980000Y-166678000D02*
X52980000Y-161522000D01*
X52940000Y-166676000D02*
X52940000Y-161524000D01*
X52900000Y-166673000D02*
X52900000Y-161527000D01*
X52860000Y-166669000D02*
X52860000Y-165140000D01*
X52860000Y-163060000D02*
X52860000Y-161531000D01*
X52820000Y-166665000D02*
X52820000Y-165140000D01*
X52820000Y-163060000D02*
X52820000Y-161535000D01*
X52780000Y-166661000D02*
X52780000Y-165140000D01*
X52780000Y-163060000D02*
X52780000Y-161539000D01*
X52740000Y-166656000D02*
X52740000Y-165140000D01*
X52740000Y-163060000D02*
X52740000Y-161544000D01*
X52700000Y-166650000D02*
X52700000Y-165140000D01*
X52700000Y-163060000D02*
X52700000Y-161550000D01*
X52660000Y-166643000D02*
X52660000Y-165140000D01*
X52660000Y-163060000D02*
X52660000Y-161557000D01*
X52620000Y-166636000D02*
X52620000Y-165140000D01*
X52620000Y-163060000D02*
X52620000Y-161564000D01*
X52580000Y-166628000D02*
X52580000Y-165140000D01*
X52580000Y-163060000D02*
X52580000Y-161572000D01*
X52540000Y-166620000D02*
X52540000Y-165140000D01*
X52540000Y-163060000D02*
X52540000Y-161580000D01*
X52500000Y-166611000D02*
X52500000Y-165140000D01*
X52500000Y-163060000D02*
X52500000Y-161589000D01*
X52460000Y-166601000D02*
X52460000Y-165140000D01*
X52460000Y-163060000D02*
X52460000Y-161599000D01*
X52420000Y-166591000D02*
X52420000Y-165140000D01*
X52420000Y-163060000D02*
X52420000Y-161609000D01*
X52379000Y-166580000D02*
X52379000Y-165140000D01*
X52379000Y-163060000D02*
X52379000Y-161620000D01*
X52339000Y-166568000D02*
X52339000Y-165140000D01*
X52339000Y-163060000D02*
X52339000Y-161632000D01*
X52299000Y-166555000D02*
X52299000Y-165140000D01*
X52299000Y-163060000D02*
X52299000Y-161645000D01*
X52259000Y-166542000D02*
X52259000Y-165140000D01*
X52259000Y-163060000D02*
X52259000Y-161658000D01*
X52219000Y-166528000D02*
X52219000Y-165140000D01*
X52219000Y-163060000D02*
X52219000Y-161672000D01*
X52179000Y-166514000D02*
X52179000Y-165140000D01*
X52179000Y-163060000D02*
X52179000Y-161686000D01*
X52139000Y-166498000D02*
X52139000Y-165140000D01*
X52139000Y-163060000D02*
X52139000Y-161702000D01*
X52099000Y-166482000D02*
X52099000Y-165140000D01*
X52099000Y-163060000D02*
X52099000Y-161718000D01*
X52059000Y-166465000D02*
X52059000Y-165140000D01*
X52059000Y-163060000D02*
X52059000Y-161735000D01*
X52019000Y-166448000D02*
X52019000Y-165140000D01*
X52019000Y-163060000D02*
X52019000Y-161752000D01*
X51979000Y-166429000D02*
X51979000Y-165140000D01*
X51979000Y-163060000D02*
X51979000Y-161771000D01*
X51939000Y-166410000D02*
X51939000Y-165140000D01*
X51939000Y-163060000D02*
X51939000Y-161790000D01*
X51899000Y-166390000D02*
X51899000Y-165140000D01*
X51899000Y-163060000D02*
X51899000Y-161810000D01*
X51859000Y-166368000D02*
X51859000Y-165140000D01*
X51859000Y-163060000D02*
X51859000Y-161832000D01*
X51819000Y-166347000D02*
X51819000Y-165140000D01*
X51819000Y-163060000D02*
X51819000Y-161853000D01*
X51779000Y-166324000D02*
X51779000Y-165140000D01*
X51779000Y-163060000D02*
X51779000Y-161876000D01*
X51739000Y-166300000D02*
X51739000Y-165140000D01*
X51739000Y-163060000D02*
X51739000Y-161900000D01*
X51699000Y-166275000D02*
X51699000Y-165140000D01*
X51699000Y-163060000D02*
X51699000Y-161925000D01*
X51659000Y-166249000D02*
X51659000Y-165140000D01*
X51659000Y-163060000D02*
X51659000Y-161951000D01*
X51619000Y-166222000D02*
X51619000Y-165140000D01*
X51619000Y-163060000D02*
X51619000Y-161978000D01*
X51579000Y-166195000D02*
X51579000Y-165140000D01*
X51579000Y-163060000D02*
X51579000Y-162005000D01*
X51539000Y-166165000D02*
X51539000Y-165140000D01*
X51539000Y-163060000D02*
X51539000Y-162035000D01*
X51499000Y-166135000D02*
X51499000Y-165140000D01*
X51499000Y-163060000D02*
X51499000Y-162065000D01*
X51459000Y-166104000D02*
X51459000Y-165140000D01*
X51459000Y-163060000D02*
X51459000Y-162096000D01*
X51419000Y-166071000D02*
X51419000Y-165140000D01*
X51419000Y-163060000D02*
X51419000Y-162129000D01*
X51379000Y-166037000D02*
X51379000Y-165140000D01*
X51379000Y-163060000D02*
X51379000Y-162163000D01*
X51339000Y-166001000D02*
X51339000Y-165140000D01*
X51339000Y-163060000D02*
X51339000Y-162199000D01*
X51299000Y-165964000D02*
X51299000Y-165140000D01*
X51299000Y-163060000D02*
X51299000Y-162236000D01*
X51259000Y-165926000D02*
X51259000Y-165140000D01*
X51259000Y-163060000D02*
X51259000Y-162274000D01*
X51219000Y-165885000D02*
X51219000Y-165140000D01*
X51219000Y-163060000D02*
X51219000Y-162315000D01*
X51179000Y-165843000D02*
X51179000Y-165140000D01*
X51179000Y-163060000D02*
X51179000Y-162357000D01*
X51139000Y-165799000D02*
X51139000Y-165140000D01*
X51139000Y-163060000D02*
X51139000Y-162401000D01*
X51099000Y-165753000D02*
X51099000Y-165140000D01*
X51099000Y-163060000D02*
X51099000Y-162447000D01*
X51059000Y-165705000D02*
X51059000Y-165140000D01*
X51059000Y-163060000D02*
X51059000Y-162495000D01*
X51019000Y-165654000D02*
X51019000Y-165140000D01*
X51019000Y-163060000D02*
X51019000Y-162546000D01*
X50979000Y-165600000D02*
X50979000Y-165140000D01*
X50979000Y-163060000D02*
X50979000Y-162600000D01*
X50939000Y-165543000D02*
X50939000Y-165140000D01*
X50939000Y-163060000D02*
X50939000Y-162657000D01*
X50899000Y-165483000D02*
X50899000Y-165140000D01*
X50899000Y-163060000D02*
X50899000Y-162717000D01*
X50859000Y-165419000D02*
X50859000Y-165140000D01*
X50859000Y-163060000D02*
X50859000Y-162781000D01*
X50819000Y-165351000D02*
X50819000Y-165140000D01*
X50819000Y-163060000D02*
X50819000Y-162849000D01*
X50779000Y-165278000D02*
X50779000Y-162922000D01*
X50739000Y-165198000D02*
X50739000Y-163002000D01*
X50699000Y-165111000D02*
X50699000Y-163089000D01*
X50659000Y-165015000D02*
X50659000Y-163185000D01*
X50619000Y-164905000D02*
X50619000Y-163295000D01*
X50579000Y-164777000D02*
X50579000Y-163423000D01*
X50539000Y-164618000D02*
X50539000Y-163582000D01*
X50499000Y-164384000D02*
X50499000Y-163816000D01*
X55720000Y-164100000D02*
G75*
G03*
X55720000Y-164100000I-2620000J0D01*
G01*
%TO.C,C7*%
X121430000Y-22523752D02*
X121430000Y-21101248D01*
X123250000Y-22523752D02*
X123250000Y-21101248D01*
%TO.C,R3*%
X57712936Y-170840000D02*
X59167064Y-170840000D01*
X57712936Y-172660000D02*
X59167064Y-172660000D01*
%TO.C,J12*%
X12050000Y-135150000D02*
X24650000Y-135150000D01*
X24650000Y-135150000D02*
X24650000Y-124800000D01*
X16850000Y-124800000D02*
X17150000Y-124300000D01*
X22250000Y-124800000D02*
X16850000Y-124800000D01*
X23700000Y-124800000D02*
X23950000Y-124300000D01*
X24650000Y-124800000D02*
X23700000Y-124800000D01*
X12050000Y-124300000D02*
X12050000Y-135150000D01*
X17150000Y-124300000D02*
X12050000Y-124300000D01*
X22000000Y-124300000D02*
X22250000Y-124800000D01*
X22050000Y-124300000D02*
X22000000Y-124300000D01*
X23950000Y-124300000D02*
X22050000Y-124300000D01*
%TO.C,C11*%
X133750000Y-22523752D02*
X133750000Y-21101248D01*
X135570000Y-22523752D02*
X135570000Y-21101248D01*
%TO.C,D1*%
X34000000Y-149350000D02*
X33350000Y-149350000D01*
X33350000Y-150470000D02*
X33350000Y-148230000D01*
X33350000Y-148230000D02*
X29110000Y-148230000D01*
X32750000Y-150470000D02*
X32750000Y-148230000D01*
X32630000Y-150470000D02*
X32630000Y-148230000D01*
X32510000Y-150470000D02*
X32510000Y-148230000D01*
X29110000Y-150470000D02*
X33350000Y-150470000D01*
X29110000Y-148230000D02*
X29110000Y-150470000D01*
X28460000Y-149350000D02*
X29110000Y-149350000D01*
%TO.C,C15*%
X57261252Y-144060000D02*
X55838748Y-144060000D01*
X57261252Y-142240000D02*
X55838748Y-142240000D01*
D15*
%TO.C,J18*%
X163600000Y-148100000D02*
X163600000Y-140200000D01*
X168100000Y-148100000D02*
X163600000Y-148100000D01*
X163600000Y-140200000D02*
X168100000Y-140200000D01*
X168100000Y-140200000D02*
X168100000Y-148100000D01*
D16*
X168900000Y-142150000D02*
G75*
G03*
X168900000Y-142150000I-100000J0D01*
G01*
D14*
%TO.C,SW3*%
X133245000Y-173625000D02*
X133245000Y-172125000D01*
X131995000Y-169625000D02*
X127495000Y-169625000D01*
X127495000Y-176125000D02*
X131995000Y-176125000D01*
X126245000Y-172125000D02*
X126245000Y-173625000D01*
%TO.C,C22*%
X71869752Y-159756000D02*
X70447248Y-159756000D01*
X71869752Y-157936000D02*
X70447248Y-157936000D01*
%TO.C,R7*%
X31560000Y-164522936D02*
X31560000Y-165977064D01*
X29740000Y-164522936D02*
X29740000Y-165977064D01*
%TO.C,R6*%
X125977064Y-179410000D02*
X124522936Y-179410000D01*
X125977064Y-177590000D02*
X124522936Y-177590000D01*
%TO.C,J3*%
X11350000Y-47200000D02*
X23950000Y-47200000D01*
X23950000Y-47200000D02*
X23950000Y-36850000D01*
X16150000Y-36850000D02*
X16450000Y-36350000D01*
X21550000Y-36850000D02*
X16150000Y-36850000D01*
X23000000Y-36850000D02*
X23250000Y-36350000D01*
X23950000Y-36850000D02*
X23000000Y-36850000D01*
X11350000Y-36350000D02*
X11350000Y-47200000D01*
X16450000Y-36350000D02*
X11350000Y-36350000D01*
X21300000Y-36350000D02*
X21550000Y-36850000D01*
X21350000Y-36350000D02*
X21300000Y-36350000D01*
X23250000Y-36350000D02*
X21350000Y-36350000D01*
%TO.C,C2*%
X125119000Y-81673752D02*
X125119000Y-80251248D01*
X126939000Y-81673752D02*
X126939000Y-80251248D01*
D15*
%TO.C,J17*%
X170000000Y-148100000D02*
X170000000Y-140200000D01*
X174500000Y-148100000D02*
X170000000Y-148100000D01*
X170000000Y-140200000D02*
X174500000Y-140200000D01*
X174500000Y-140200000D02*
X174500000Y-148100000D01*
D16*
X175300000Y-142150000D02*
G75*
G03*
X175300000Y-142150000I-100000J0D01*
G01*
D14*
%TO.C,SW4*%
X112045000Y-172125000D02*
X112045000Y-173625000D01*
X113295000Y-176125000D02*
X117795000Y-176125000D01*
X117795000Y-169625000D02*
X113295000Y-169625000D01*
X119045000Y-173625000D02*
X119045000Y-172125000D01*
D15*
%TO.C,F1*%
X16400000Y-121730000D02*
X20840000Y-121730000D01*
X20840000Y-121730000D02*
X20840000Y-102430000D01*
X16400000Y-121313000D02*
X16400000Y-121730000D01*
X16400000Y-102430000D02*
X16400000Y-102847000D01*
X20840000Y-102430000D02*
X16400000Y-102430000D01*
D14*
%TO.C,J8*%
X67310000Y-179280000D02*
X67310000Y-177950000D01*
X68640000Y-179280000D02*
X67310000Y-179280000D01*
X69910000Y-179280000D02*
X77590000Y-179280000D01*
X69910000Y-179280000D02*
X69910000Y-176620000D01*
X77590000Y-179280000D02*
X77590000Y-176620000D01*
X69910000Y-176620000D02*
X77590000Y-176620000D01*
%TO.C,U6*%
X36055000Y-89215000D02*
X36055000Y-87885000D01*
X37385000Y-89215000D02*
X36055000Y-89215000D01*
X38655000Y-86555000D02*
X86975000Y-86555000D01*
X38655000Y-89215000D02*
X38655000Y-86555000D01*
X38655000Y-89215000D02*
X86975000Y-89215000D01*
X86975000Y-89215000D02*
X86975000Y-86555000D01*
X114570000Y-89230000D02*
X114570000Y-87900000D01*
X115900000Y-89230000D02*
X114570000Y-89230000D01*
X117170000Y-86570000D02*
X145170000Y-86570000D01*
X117170000Y-89230000D02*
X117170000Y-86570000D01*
X117170000Y-89230000D02*
X145170000Y-89230000D01*
X145170000Y-89230000D02*
X145170000Y-86570000D01*
D13*
X25765000Y-86125000D02*
X166265000Y-86125000D01*
X166265000Y-86125000D02*
X166265000Y-136125000D01*
X166265000Y-136125000D02*
X25765000Y-136125000D01*
X25765000Y-136125000D02*
X25765000Y-86125000D01*
X29765000Y-88500000D02*
G75*
G03*
X29765000Y-88500000I-1500000J0D01*
G01*
X29765000Y-132000000D02*
G75*
G03*
X29765000Y-132000000I-1500000J0D01*
G01*
X165265000Y-88500000D02*
G75*
G03*
X165265000Y-88500000I-1500000J0D01*
G01*
X165265000Y-132000000D02*
G75*
G03*
X165265000Y-132000000I-1500000J0D01*
G01*
D14*
%TO.C,R4*%
X57762936Y-168090000D02*
X59217064Y-168090000D01*
X57762936Y-169910000D02*
X59217064Y-169910000D01*
%TO.C,D2*%
X34020000Y-145350000D02*
X33370000Y-145350000D01*
X33370000Y-146470000D02*
X33370000Y-144230000D01*
X33370000Y-144230000D02*
X29130000Y-144230000D01*
X32770000Y-146470000D02*
X32770000Y-144230000D01*
X32650000Y-146470000D02*
X32650000Y-144230000D01*
X32530000Y-146470000D02*
X32530000Y-144230000D01*
X29130000Y-146470000D02*
X33370000Y-146470000D01*
X29130000Y-144230000D02*
X29130000Y-146470000D01*
X28480000Y-145350000D02*
X29130000Y-145350000D01*
D15*
%TO.C,J16*%
X157000000Y-148100000D02*
X157000000Y-140200000D01*
X161500000Y-148100000D02*
X157000000Y-148100000D01*
X157000000Y-140200000D02*
X161500000Y-140200000D01*
X161500000Y-140200000D02*
X161500000Y-148100000D01*
D16*
X162300000Y-142150000D02*
G75*
G03*
X162300000Y-142150000I-100000J0D01*
G01*
D14*
%TO.C,J1*%
X15065000Y-176140000D02*
X15725000Y-176140000D01*
X15065000Y-177870000D02*
X15065000Y-176140000D01*
X15065000Y-180440000D02*
X15065000Y-180230000D01*
X17115000Y-175440000D02*
X17115000Y-175830000D01*
X17115000Y-175440000D02*
X17565000Y-175440000D01*
X22685000Y-176140000D02*
X22035000Y-176140000D01*
X22685000Y-177870000D02*
X22685000Y-176140000D01*
X22685000Y-180440000D02*
X22685000Y-180230000D01*
%TO.C,J9*%
X167470000Y-157450000D02*
X168800000Y-157450000D01*
X167470000Y-158780000D02*
X167470000Y-157450000D01*
X167470000Y-160050000D02*
X167470000Y-167730000D01*
X167470000Y-160050000D02*
X170130000Y-160050000D01*
X167470000Y-167730000D02*
X170130000Y-167730000D01*
X170130000Y-160050000D02*
X170130000Y-167730000D01*
%TO.C,J19*%
X23410000Y-82260000D02*
X23410000Y-79440000D01*
X23410000Y-82260000D02*
X21710000Y-83560000D01*
X23410000Y-79440000D02*
X21710000Y-78140000D01*
X21710000Y-83560000D02*
X12990000Y-83560000D01*
X21710000Y-78140000D02*
X12990000Y-78140000D01*
X12990000Y-83560000D02*
X12990000Y-78140000D01*
%TO.C,R2*%
X72917064Y-147085000D02*
X71462936Y-147085000D01*
X72917064Y-145265000D02*
X71462936Y-145265000D01*
%TO.C,C12*%
X136830000Y-22523752D02*
X136830000Y-21101248D01*
X138650000Y-22523752D02*
X138650000Y-21101248D01*
%TO.C,U1*%
X35985000Y-160175000D02*
X35985000Y-163625000D01*
X35985000Y-160175000D02*
X35985000Y-158225000D01*
X46105000Y-160175000D02*
X46105000Y-162125000D01*
X46105000Y-160175000D02*
X46105000Y-158225000D01*
%TO.C,Y1*%
X42125000Y-145500000D02*
X42125000Y-150600000D01*
X42125000Y-150600000D02*
X58100000Y-150600000D01*
X58100000Y-145500000D02*
X42125000Y-145500000D01*
%TO.C,C17*%
X101137651Y-167935000D02*
X101937651Y-167935000D01*
X101537651Y-167535000D02*
X101537651Y-168335000D01*
X105547349Y-166170000D02*
X105547349Y-174330000D01*
X105587349Y-166170000D02*
X105587349Y-174330000D01*
X105627349Y-166170000D02*
X105627349Y-174330000D01*
X105667349Y-166171000D02*
X105667349Y-174329000D01*
X105707349Y-166173000D02*
X105707349Y-174327000D01*
X105747349Y-166174000D02*
X105747349Y-174326000D01*
X105787349Y-166176000D02*
X105787349Y-174324000D01*
X105827349Y-166179000D02*
X105827349Y-174321000D01*
X105867349Y-166182000D02*
X105867349Y-174318000D01*
X105907349Y-166185000D02*
X105907349Y-174315000D01*
X105947349Y-166189000D02*
X105947349Y-174311000D01*
X105987349Y-166193000D02*
X105987349Y-174307000D01*
X106027349Y-166198000D02*
X106027349Y-174302000D01*
X106067349Y-166202000D02*
X106067349Y-174298000D01*
X106107349Y-166208000D02*
X106107349Y-174292000D01*
X106147349Y-166213000D02*
X106147349Y-174287000D01*
X106187349Y-166220000D02*
X106187349Y-174280000D01*
X106227349Y-166226000D02*
X106227349Y-174274000D01*
X106268349Y-166233000D02*
X106268349Y-169210000D01*
X106268349Y-171290000D02*
X106268349Y-174267000D01*
X106308349Y-166240000D02*
X106308349Y-169210000D01*
X106308349Y-171290000D02*
X106308349Y-174260000D01*
X106348349Y-166248000D02*
X106348349Y-169210000D01*
X106348349Y-171290000D02*
X106348349Y-174252000D01*
X106388349Y-166256000D02*
X106388349Y-169210000D01*
X106388349Y-171290000D02*
X106388349Y-174244000D01*
X106428349Y-166265000D02*
X106428349Y-169210000D01*
X106428349Y-171290000D02*
X106428349Y-174235000D01*
X106468349Y-166274000D02*
X106468349Y-169210000D01*
X106468349Y-171290000D02*
X106468349Y-174226000D01*
X106508349Y-166283000D02*
X106508349Y-169210000D01*
X106508349Y-171290000D02*
X106508349Y-174217000D01*
X106548349Y-166293000D02*
X106548349Y-169210000D01*
X106548349Y-171290000D02*
X106548349Y-174207000D01*
X106588349Y-166303000D02*
X106588349Y-169210000D01*
X106588349Y-171290000D02*
X106588349Y-174197000D01*
X106628349Y-166314000D02*
X106628349Y-169210000D01*
X106628349Y-171290000D02*
X106628349Y-174186000D01*
X106668349Y-166325000D02*
X106668349Y-169210000D01*
X106668349Y-171290000D02*
X106668349Y-174175000D01*
X106708349Y-166336000D02*
X106708349Y-169210000D01*
X106708349Y-171290000D02*
X106708349Y-174164000D01*
X106748349Y-166348000D02*
X106748349Y-169210000D01*
X106748349Y-171290000D02*
X106748349Y-174152000D01*
X106788349Y-166361000D02*
X106788349Y-169210000D01*
X106788349Y-171290000D02*
X106788349Y-174139000D01*
X106828349Y-166373000D02*
X106828349Y-169210000D01*
X106828349Y-171290000D02*
X106828349Y-174127000D01*
X106868349Y-166387000D02*
X106868349Y-169210000D01*
X106868349Y-171290000D02*
X106868349Y-174113000D01*
X106908349Y-166400000D02*
X106908349Y-169210000D01*
X106908349Y-171290000D02*
X106908349Y-174100000D01*
X106948349Y-166415000D02*
X106948349Y-169210000D01*
X106948349Y-171290000D02*
X106948349Y-174085000D01*
X106988349Y-166429000D02*
X106988349Y-169210000D01*
X106988349Y-171290000D02*
X106988349Y-174071000D01*
X107028349Y-166445000D02*
X107028349Y-169210000D01*
X107028349Y-171290000D02*
X107028349Y-174055000D01*
X107068349Y-166460000D02*
X107068349Y-169210000D01*
X107068349Y-171290000D02*
X107068349Y-174040000D01*
X107108349Y-166476000D02*
X107108349Y-169210000D01*
X107108349Y-171290000D02*
X107108349Y-174024000D01*
X107148349Y-166493000D02*
X107148349Y-169210000D01*
X107148349Y-171290000D02*
X107148349Y-174007000D01*
X107188349Y-166510000D02*
X107188349Y-169210000D01*
X107188349Y-171290000D02*
X107188349Y-173990000D01*
X107228349Y-166528000D02*
X107228349Y-169210000D01*
X107228349Y-171290000D02*
X107228349Y-173972000D01*
X107268349Y-166546000D02*
X107268349Y-169210000D01*
X107268349Y-171290000D02*
X107268349Y-173954000D01*
X107308349Y-166564000D02*
X107308349Y-169210000D01*
X107308349Y-171290000D02*
X107308349Y-173936000D01*
X107348349Y-166584000D02*
X107348349Y-169210000D01*
X107348349Y-171290000D02*
X107348349Y-173916000D01*
X107388349Y-166603000D02*
X107388349Y-169210000D01*
X107388349Y-171290000D02*
X107388349Y-173897000D01*
X107428349Y-166623000D02*
X107428349Y-169210000D01*
X107428349Y-171290000D02*
X107428349Y-173877000D01*
X107468349Y-166644000D02*
X107468349Y-169210000D01*
X107468349Y-171290000D02*
X107468349Y-173856000D01*
X107508349Y-166666000D02*
X107508349Y-169210000D01*
X107508349Y-171290000D02*
X107508349Y-173834000D01*
X107548349Y-166688000D02*
X107548349Y-169210000D01*
X107548349Y-171290000D02*
X107548349Y-173812000D01*
X107588349Y-166710000D02*
X107588349Y-169210000D01*
X107588349Y-171290000D02*
X107588349Y-173790000D01*
X107628349Y-166733000D02*
X107628349Y-169210000D01*
X107628349Y-171290000D02*
X107628349Y-173767000D01*
X107668349Y-166757000D02*
X107668349Y-169210000D01*
X107668349Y-171290000D02*
X107668349Y-173743000D01*
X107708349Y-166781000D02*
X107708349Y-169210000D01*
X107708349Y-171290000D02*
X107708349Y-173719000D01*
X107748349Y-166806000D02*
X107748349Y-169210000D01*
X107748349Y-171290000D02*
X107748349Y-173694000D01*
X107788349Y-166832000D02*
X107788349Y-169210000D01*
X107788349Y-171290000D02*
X107788349Y-173668000D01*
X107828349Y-166858000D02*
X107828349Y-169210000D01*
X107828349Y-171290000D02*
X107828349Y-173642000D01*
X107868349Y-166885000D02*
X107868349Y-169210000D01*
X107868349Y-171290000D02*
X107868349Y-173615000D01*
X107908349Y-166912000D02*
X107908349Y-169210000D01*
X107908349Y-171290000D02*
X107908349Y-173588000D01*
X107948349Y-166941000D02*
X107948349Y-169210000D01*
X107948349Y-171290000D02*
X107948349Y-173559000D01*
X107988349Y-166970000D02*
X107988349Y-169210000D01*
X107988349Y-171290000D02*
X107988349Y-173530000D01*
X108028349Y-167000000D02*
X108028349Y-169210000D01*
X108028349Y-171290000D02*
X108028349Y-173500000D01*
X108068349Y-167030000D02*
X108068349Y-169210000D01*
X108068349Y-171290000D02*
X108068349Y-173470000D01*
X108108349Y-167061000D02*
X108108349Y-169210000D01*
X108108349Y-171290000D02*
X108108349Y-173439000D01*
X108148349Y-167094000D02*
X108148349Y-169210000D01*
X108148349Y-171290000D02*
X108148349Y-173406000D01*
X108188349Y-167126000D02*
X108188349Y-169210000D01*
X108188349Y-171290000D02*
X108188349Y-173374000D01*
X108228349Y-167160000D02*
X108228349Y-169210000D01*
X108228349Y-171290000D02*
X108228349Y-173340000D01*
X108268349Y-167195000D02*
X108268349Y-169210000D01*
X108268349Y-171290000D02*
X108268349Y-173305000D01*
X108308349Y-167231000D02*
X108308349Y-169210000D01*
X108308349Y-171290000D02*
X108308349Y-173269000D01*
X108348349Y-167267000D02*
X108348349Y-173233000D01*
X108388349Y-167305000D02*
X108388349Y-173195000D01*
X108428349Y-167343000D02*
X108428349Y-173157000D01*
X108468349Y-167383000D02*
X108468349Y-173117000D01*
X108508349Y-167424000D02*
X108508349Y-173076000D01*
X108548349Y-167466000D02*
X108548349Y-173034000D01*
X108588349Y-167509000D02*
X108588349Y-172991000D01*
X108628349Y-167553000D02*
X108628349Y-172947000D01*
X108668349Y-167599000D02*
X108668349Y-172901000D01*
X108708349Y-167646000D02*
X108708349Y-172854000D01*
X108748349Y-167694000D02*
X108748349Y-172806000D01*
X108788349Y-167745000D02*
X108788349Y-172755000D01*
X108828349Y-167796000D02*
X108828349Y-172704000D01*
X108868349Y-167850000D02*
X108868349Y-172650000D01*
X108908349Y-167905000D02*
X108908349Y-172595000D01*
X108948349Y-167963000D02*
X108948349Y-172537000D01*
X108988349Y-168022000D02*
X108988349Y-172478000D01*
X109028349Y-168084000D02*
X109028349Y-172416000D01*
X109068349Y-168148000D02*
X109068349Y-172352000D01*
X109108349Y-168216000D02*
X109108349Y-172284000D01*
X109148349Y-168286000D02*
X109148349Y-172214000D01*
X109188349Y-168360000D02*
X109188349Y-172140000D01*
X109228349Y-168437000D02*
X109228349Y-172063000D01*
X109268349Y-168519000D02*
X109268349Y-171981000D01*
X109308349Y-168605000D02*
X109308349Y-171895000D01*
X109348349Y-168698000D02*
X109348349Y-171802000D01*
X109388349Y-168797000D02*
X109388349Y-171703000D01*
X109428349Y-168904000D02*
X109428349Y-171596000D01*
X109468349Y-169021000D02*
X109468349Y-171479000D01*
X109508349Y-169152000D02*
X109508349Y-171348000D01*
X109548349Y-169302000D02*
X109548349Y-171198000D01*
X109588349Y-169482000D02*
X109588349Y-171018000D01*
X109628349Y-169717000D02*
X109628349Y-170783000D01*
X109667349Y-170250000D02*
G75*
G03*
X109667349Y-170250000I-4120000J0D01*
G01*
%TO.C,C5*%
X133882000Y-81673752D02*
X133882000Y-80251248D01*
X135702000Y-81673752D02*
X135702000Y-80251248D01*
%TO.C,J5*%
X173542000Y-116234000D02*
X172212000Y-116234000D01*
X173542000Y-114904000D02*
X173542000Y-116234000D01*
X173542000Y-113634000D02*
X173542000Y-95794000D01*
X173542000Y-113634000D02*
X170882000Y-113634000D01*
X173542000Y-95794000D02*
X170882000Y-95794000D01*
X170882000Y-113634000D02*
X170882000Y-95794000D01*
%TD*%
D17*
X94200000Y-178150000D03*
X60791665Y-166200000D03*
X25650000Y-175550000D03*
X87100000Y-178150000D03*
X69250000Y-160300000D03*
X80000000Y-178150000D03*
X43650000Y-159700000D03*
X48500000Y-166200000D03*
X25750000Y-173500000D03*
X92710000Y-170530000D03*
X92710000Y-158465000D03*
X95250000Y-170530000D03*
X31100000Y-177250000D03*
X50958333Y-166200000D03*
X88875000Y-178150000D03*
X83550000Y-178150000D03*
X90650000Y-178150000D03*
X42554589Y-159694034D03*
X85325000Y-178150000D03*
X55874999Y-166200000D03*
X53416666Y-166200000D03*
X92425000Y-178150000D03*
X63250000Y-166200000D03*
X85725000Y-157830000D03*
X85090000Y-170530000D03*
X71500000Y-157500000D03*
X97750000Y-178150000D03*
X31050000Y-175900000D03*
X87630000Y-157830000D03*
X43650000Y-160700000D03*
X58333332Y-166200000D03*
X20350000Y-175200000D03*
X99525000Y-178150000D03*
X95975000Y-178150000D03*
X101300000Y-178150000D03*
X90170000Y-157830000D03*
X94615000Y-157830000D03*
X81775000Y-178150000D03*
X44750000Y-159700000D03*
X89535000Y-170530000D03*
X137922000Y-178404000D03*
X42700000Y-176450000D03*
X36595000Y-156200000D03*
X15000000Y-101250000D03*
X13400000Y-99500000D03*
X13400000Y-101250000D03*
X13350000Y-103700000D03*
X22000000Y-104250000D03*
X14950000Y-106350000D03*
X14950000Y-103700000D03*
X13350000Y-106350000D03*
X13350000Y-108900000D03*
X22000000Y-105850000D03*
X15000000Y-99500000D03*
X14950000Y-108900000D03*
X73540000Y-167600000D03*
X72690000Y-171650000D03*
X107040000Y-167850000D03*
X104300000Y-155100000D03*
X79890000Y-153650000D03*
X133858000Y-54198000D03*
X86050000Y-149050000D03*
X100300000Y-66400000D03*
X84700000Y-150200000D03*
X79390000Y-167600000D03*
X77640000Y-148900000D03*
X81290000Y-145600000D03*
X79940000Y-163800000D03*
X96400000Y-168900000D03*
X78050000Y-163750000D03*
X101650000Y-160050000D03*
X101650000Y-157550000D03*
X102950000Y-156200000D03*
X103400000Y-153850000D03*
X74550000Y-159550000D03*
X75300000Y-160800000D03*
X70450000Y-133850000D03*
X21950000Y-117900000D03*
X18300000Y-123200000D03*
X22000000Y-116150000D03*
X21950000Y-120100000D03*
X21950000Y-126200000D03*
X20300000Y-123350000D03*
X18250000Y-125150000D03*
X16500000Y-125100000D03*
X16550000Y-123150000D03*
X22000000Y-122250000D03*
X21950000Y-124000000D03*
X20250000Y-125100000D03*
X14850000Y-56700000D03*
X14950000Y-52850000D03*
X17700000Y-48000000D03*
X20500000Y-52400000D03*
X17700000Y-50050000D03*
X15850000Y-50000000D03*
X15850000Y-47950000D03*
X19700000Y-48050000D03*
X14900000Y-54850000D03*
X20450000Y-54400000D03*
X19700000Y-50100000D03*
X20400000Y-56250000D03*
X35050000Y-170200000D03*
X30950000Y-168250000D03*
X30950000Y-170749500D03*
X26200000Y-168350000D03*
X19650000Y-167300000D03*
X30200000Y-171600000D03*
X35749500Y-171600000D03*
X77750000Y-49600000D03*
X113550000Y-40450000D03*
X67275000Y-51175000D03*
X133858000Y-111856000D03*
X111900000Y-155700000D03*
X102950000Y-151500000D03*
X12350000Y-68150000D03*
X16600000Y-72500000D03*
X14450000Y-74000000D03*
X18200000Y-72500000D03*
X12350000Y-72450000D03*
X14900000Y-77300000D03*
X13950000Y-68150000D03*
X16500000Y-77300000D03*
X13950000Y-70400000D03*
X13950000Y-72450000D03*
X16050000Y-74000000D03*
X12350000Y-70400000D03*
X20800000Y-95500000D03*
X15800000Y-95500000D03*
X139850000Y-142150000D03*
X139850000Y-144150000D03*
X139850000Y-146150000D03*
X146525000Y-142100000D03*
X146525000Y-144100000D03*
X146525000Y-146100000D03*
X172212000Y-55468000D03*
X172212000Y-52928000D03*
X172212000Y-50388000D03*
X172212000Y-47848000D03*
X172212000Y-45308000D03*
X172212000Y-42768000D03*
X172212000Y-40228000D03*
X172212000Y-37688000D03*
X30360000Y-174137500D03*
X36140000Y-174137500D03*
X13400000Y-165400000D03*
X17700000Y-54450000D03*
X17700000Y-59530000D03*
X17700000Y-63590000D03*
X17700000Y-68670000D03*
X30200000Y-19350000D03*
X61200000Y-155650000D03*
X61200000Y-153150000D03*
X153200000Y-142150000D03*
X153200000Y-144150000D03*
X153200000Y-146150000D03*
X173550000Y-177200000D03*
X114430000Y-151700000D03*
X116970000Y-151700000D03*
X119510000Y-151700000D03*
X122050000Y-151700000D03*
X124590000Y-151700000D03*
X127130000Y-151700000D03*
X129670000Y-151700000D03*
X132210000Y-151700000D03*
X17700000Y-31150000D03*
X17700000Y-26150000D03*
X28265000Y-72845000D03*
X28285000Y-29345000D03*
X163765000Y-29345000D03*
X163775000Y-72855000D03*
X37385000Y-28735000D03*
X39925000Y-28735000D03*
X42465000Y-28735000D03*
X45005000Y-28735000D03*
X47545000Y-28735000D03*
X50085000Y-28735000D03*
X52625000Y-28735000D03*
X55165000Y-28735000D03*
X57705000Y-28735000D03*
X60245000Y-28735000D03*
X62785000Y-28735000D03*
X65325000Y-28735000D03*
X67865000Y-28735000D03*
X70405000Y-28735000D03*
X72945000Y-28735000D03*
X75485000Y-28735000D03*
X78025000Y-28735000D03*
X80565000Y-28735000D03*
X83105000Y-28735000D03*
X85645000Y-28735000D03*
X115900000Y-28750000D03*
X118440000Y-28750000D03*
X120980000Y-28750000D03*
X123520000Y-28750000D03*
X126060000Y-28750000D03*
X128600000Y-28750000D03*
X131140000Y-28750000D03*
X133680000Y-28750000D03*
X136220000Y-28750000D03*
X138760000Y-28750000D03*
X141300000Y-28750000D03*
X143840000Y-28750000D03*
X35110000Y-141300000D03*
X27490000Y-141300000D03*
D18*
X92382500Y-164495000D03*
X90547500Y-164495000D03*
X93300000Y-163577500D03*
X91465000Y-163577500D03*
X89630000Y-163577500D03*
X92382500Y-162660000D03*
X90547500Y-162660000D03*
X93300000Y-161742500D03*
X91465000Y-161742500D03*
X89630000Y-161742500D03*
X92382500Y-160825000D03*
X90547500Y-160825000D03*
D17*
X40300000Y-140600000D03*
X43800000Y-140600000D03*
X107200000Y-83200000D03*
X107200000Y-79700000D03*
X145770000Y-175020000D03*
X155930000Y-175020000D03*
X147670000Y-166130000D03*
X148940000Y-168670000D03*
X150210000Y-166130000D03*
X151480000Y-168670000D03*
X152750000Y-166130000D03*
X154020000Y-168670000D03*
X173150000Y-19300000D03*
X114918000Y-22843349D03*
X114918000Y-19343349D03*
X54350000Y-164100000D03*
X51850000Y-164100000D03*
X18350000Y-132500000D03*
X18350000Y-127500000D03*
X35040000Y-149350000D03*
X27420000Y-149350000D03*
X166400000Y-142150000D03*
X166400000Y-144150000D03*
X166400000Y-146150000D03*
X132995000Y-175125000D03*
X126495000Y-175125000D03*
X132995000Y-170625000D03*
X126495000Y-170625000D03*
X17650000Y-44550000D03*
X17650000Y-39550000D03*
X172800000Y-142150000D03*
X172800000Y-144150000D03*
X172800000Y-146150000D03*
X112295000Y-170625000D03*
X118795000Y-170625000D03*
X112295000Y-175125000D03*
X118795000Y-175125000D03*
X18250000Y-119190000D03*
X18250000Y-114110000D03*
X18250000Y-110050000D03*
X18250000Y-104970000D03*
X68640000Y-177950000D03*
X71180000Y-177950000D03*
X73720000Y-177950000D03*
X76260000Y-177950000D03*
X28265000Y-131995000D03*
X28285000Y-88495000D03*
X163765000Y-88495000D03*
X163775000Y-132005000D03*
X37385000Y-87885000D03*
X39925000Y-87885000D03*
X42465000Y-87885000D03*
X45005000Y-87885000D03*
X47545000Y-87885000D03*
X50085000Y-87885000D03*
X52625000Y-87885000D03*
X55165000Y-87885000D03*
X57705000Y-87885000D03*
X60245000Y-87885000D03*
X62785000Y-87885000D03*
X65325000Y-87885000D03*
X67865000Y-87885000D03*
X70405000Y-87885000D03*
X72945000Y-87885000D03*
X75485000Y-87885000D03*
X78025000Y-87885000D03*
X80565000Y-87885000D03*
X83105000Y-87885000D03*
X85645000Y-87885000D03*
X115900000Y-87900000D03*
X118440000Y-87900000D03*
X120980000Y-87900000D03*
X123520000Y-87900000D03*
X126060000Y-87900000D03*
X128600000Y-87900000D03*
X131140000Y-87900000D03*
X133680000Y-87900000D03*
X136220000Y-87900000D03*
X138760000Y-87900000D03*
X141300000Y-87900000D03*
X143840000Y-87900000D03*
X35060000Y-145350000D03*
X27440000Y-145350000D03*
X159800000Y-142150000D03*
X159800000Y-144150000D03*
X159800000Y-146150000D03*
D19*
X15300000Y-179050000D03*
X22450000Y-179050000D03*
D17*
X168800000Y-158780000D03*
X168800000Y-161320000D03*
X168800000Y-163860000D03*
X168800000Y-166400000D03*
X20700000Y-80850000D03*
X15700000Y-80850000D03*
X103797349Y-170250000D03*
X107297349Y-170250000D03*
X172212000Y-114904000D03*
X172212000Y-112364000D03*
X172212000Y-109824000D03*
X172212000Y-107284000D03*
X172212000Y-104744000D03*
X172212000Y-102204000D03*
X172212000Y-99664000D03*
X172212000Y-97124000D03*
M02*
