M48
; DRILL file {KiCad 7.0.1} date Mon Jun 17 10:29:34 2024
; FORMAT={-:-/ absolute / metric / decimal}
; #@! TF.CreationDate,2024-06-17T10:29:34+02:00
; #@! TF.GenerationSoftware,Kicad,Pcbnew,7.0.1
; #@! TF.FileFunction,Plated,1,2,PTH
FMAT,2
METRIC
; #@! TA.AperFunction,Plated,PTH,ComponentDrill
T1C0.200
; #@! TA.AperFunction,Plated,PTH,ViaDrill
T2C0.400
; #@! TA.AperFunction,Plated,PTH,ComponentDrill
T3C0.450
; #@! TA.AperFunction,Plated,PTH,ComponentDrill
T4C0.760
; #@! TA.AperFunction,Plated,PTH,ComponentDrill
T5C0.800
; #@! TA.AperFunction,Plated,PTH,ComponentDrill
T6C1.000
; #@! TA.AperFunction,Plated,PTH,ComponentDrill
T7C1.100
; #@! TA.AperFunction,Plated,PTH,ComponentDrill
T8C1.320
; #@! TA.AperFunction,Plated,PTH,ComponentDrill
T9C1.800
; #@! TA.AperFunction,Plated,PTH,ComponentDrill
T10C2.590
%
G90
G05
T1
X89.63Y-161.743
X89.63Y-163.577
X90.547Y-160.825
X90.547Y-162.66
X90.547Y-164.495
X91.465Y-161.743
X91.465Y-163.577
X92.382Y-160.825
X92.382Y-162.66
X92.382Y-164.495
X93.3Y-161.743
X93.3Y-163.577
T2
X19.65Y-167.3
X20.35Y-175.2
X25.65Y-175.55
X25.75Y-173.5
X26.2Y-168.35
X30.2Y-171.6
X30.95Y-168.25
X30.95Y-170.749
X31.05Y-175.9
X31.1Y-177.25
X35.05Y-170.2
X35.749Y-171.6
X36.595Y-156.2
X42.555Y-159.694
X42.7Y-176.45
X43.65Y-159.7
X43.65Y-160.7
X44.75Y-159.7
X48.5Y-166.2
X50.958Y-166.2
X53.417Y-166.2
X55.875Y-166.2
X58.333Y-166.2
X60.792Y-166.2
X63.25Y-166.2
X67.275Y-51.175
X69.25Y-160.3
X70.45Y-133.85
X71.5Y-157.5
X72.69Y-171.65
X73.54Y-167.6
X74.55Y-159.55
X75.3Y-160.8
X77.64Y-148.9
X77.75Y-49.6
X78.05Y-163.75
X79.39Y-167.6
X79.89Y-153.65
X79.94Y-163.8
X80.0Y-178.15
X81.29Y-145.6
X81.775Y-178.15
X83.55Y-178.15
X84.7Y-150.2
X85.09Y-170.53
X85.325Y-178.15
X85.725Y-157.83
X86.05Y-149.05
X87.1Y-178.15
X87.63Y-157.83
X88.875Y-178.15
X89.535Y-170.53
X90.17Y-157.83
X90.65Y-178.15
X92.425Y-178.15
X92.71Y-158.465
X92.71Y-170.53
X94.2Y-178.15
X94.615Y-157.83
X95.25Y-170.53
X95.975Y-178.15
X96.4Y-168.9
X97.75Y-178.15
X99.525Y-178.15
X100.3Y-66.4
X101.3Y-178.15
X101.44Y-155.1
X107.04Y-167.85
X113.55Y-40.45
X133.858Y-54.198
X133.858Y-111.856
X137.922Y-178.404
T4
X147.67Y-166.13
X148.94Y-168.67
X150.21Y-166.13
X151.48Y-168.67
X152.75Y-166.13
X154.02Y-168.67
T5
X27.42Y-149.35
X27.44Y-145.35
X27.49Y-141.3
X35.04Y-149.35
X35.06Y-145.35
X35.11Y-141.3
X40.3Y-140.6
X43.8Y-140.6
X51.85Y-164.1
X54.35Y-164.1
X61.2Y-153.15
X61.2Y-155.65
X103.797Y-170.25
X107.2Y-79.7
X107.2Y-83.2
X107.297Y-170.25
X114.918Y-19.343
X114.918Y-22.843
T6
X37.385Y-28.735
X37.385Y-87.885
X39.925Y-28.735
X39.925Y-87.885
X42.465Y-28.735
X42.465Y-87.885
X45.005Y-28.735
X45.005Y-87.885
X47.545Y-28.735
X47.545Y-87.885
X50.085Y-28.735
X50.085Y-87.885
X52.625Y-28.735
X52.625Y-87.885
X55.165Y-28.735
X55.165Y-87.885
X57.705Y-28.735
X57.705Y-87.885
X60.245Y-28.735
X60.245Y-87.885
X62.785Y-28.735
X62.785Y-87.885
X65.325Y-28.735
X65.325Y-87.885
X67.865Y-28.735
X67.865Y-87.885
X68.64Y-177.95
X70.405Y-28.735
X70.405Y-87.885
X71.18Y-177.95
X72.945Y-28.735
X72.945Y-87.885
X73.72Y-177.95
X75.485Y-28.735
X75.485Y-87.885
X76.26Y-177.95
X78.025Y-28.735
X78.025Y-87.885
X80.565Y-28.735
X80.565Y-87.885
X83.105Y-28.735
X83.105Y-87.885
X85.645Y-28.735
X85.645Y-87.885
X114.43Y-151.7
X115.9Y-28.75
X115.9Y-87.9
X116.97Y-151.7
X118.44Y-28.75
X118.44Y-87.9
X119.51Y-151.7
X120.98Y-28.75
X120.98Y-87.9
X122.05Y-151.7
X123.52Y-28.75
X123.52Y-87.9
X124.59Y-151.7
X126.06Y-28.75
X126.06Y-87.9
X127.13Y-151.7
X128.6Y-28.75
X128.6Y-87.9
X129.67Y-151.7
X131.14Y-28.75
X131.14Y-87.9
X132.21Y-151.7
X133.68Y-28.75
X133.68Y-87.9
X136.22Y-28.75
X136.22Y-87.9
X138.76Y-28.75
X138.76Y-87.9
X141.3Y-28.75
X141.3Y-87.9
X143.84Y-28.75
X143.84Y-87.9
X168.8Y-158.78
X168.8Y-161.32
X168.8Y-163.86
X168.8Y-166.4
X172.212Y-37.688
X172.212Y-40.228
X172.212Y-42.768
X172.212Y-45.308
X172.212Y-47.848
X172.212Y-50.388
X172.212Y-52.928
X172.212Y-55.468
X172.212Y-97.124
X172.212Y-99.664
X172.212Y-102.204
X172.212Y-104.744
X172.212Y-107.284
X172.212Y-109.824
X172.212Y-112.364
X172.212Y-114.904
T7
X112.295Y-170.625
X112.295Y-175.125
X118.795Y-170.625
X118.795Y-175.125
X126.495Y-170.625
X126.495Y-175.125
X132.995Y-170.625
X132.995Y-175.125
T8
X17.65Y-39.55
X17.65Y-44.55
X17.7Y-26.15
X17.7Y-31.15
X18.3Y-79.05
X18.3Y-84.05
X18.35Y-127.5
X18.35Y-132.5
T9
X15.586Y-92.178
X20.586Y-92.178
T10
X17.7Y-54.45
X17.7Y-59.53
X17.7Y-63.59
X17.7Y-68.67
X18.25Y-104.97
X18.25Y-110.05
X18.25Y-114.11
X18.25Y-119.19
T3
G00X15.3Y-179.45
M15
G01X15.3Y-178.65
M16
G05
G00X22.45Y-178.65
M15
G01X22.45Y-179.45
M16
G05
T0
M30
