%TF.GenerationSoftware,KiCad,Pcbnew,7.0.1*%
%TF.CreationDate,2024-06-25T12:01:32+02:00*%
%TF.ProjectId,ODRIVE_V1.0,4f445249-5645-45f5-9631-2e302e6b6963,rev?*%
%TF.SameCoordinates,Original*%
%TF.FileFunction,Legend,Bot*%
%TF.FilePolarity,Positive*%
%FSLAX46Y46*%
G04 Gerber Fmt 4.6, Leading zero omitted, Abs format (unit mm)*
G04 Created by KiCad (PCBNEW 7.0.1) date 2024-06-25 12:01:32*
%MOMM*%
%LPD*%
G01*
G04 APERTURE LIST*
%ADD10C,0.350000*%
%ADD11C,0.200000*%
%ADD12O,0.450000X1.250000*%
G04 APERTURE END LIST*
D10*
X94200000Y-178150000D03*
X60791665Y-166200000D03*
X25650000Y-175550000D03*
X87100000Y-178150000D03*
X69250000Y-160300000D03*
X80000000Y-178150000D03*
X43650000Y-159700000D03*
X48500000Y-166200000D03*
X25750000Y-173500000D03*
X92710000Y-170530000D03*
X92710000Y-158465000D03*
X95250000Y-170530000D03*
X31100000Y-177250000D03*
X50958333Y-166200000D03*
X88875000Y-178150000D03*
X83550000Y-178150000D03*
X90650000Y-178150000D03*
X42554589Y-159694034D03*
X85325000Y-178150000D03*
X55874999Y-166200000D03*
X53416666Y-166200000D03*
X92425000Y-178150000D03*
X63250000Y-166200000D03*
X85725000Y-157830000D03*
X85090000Y-170530000D03*
X71500000Y-157500000D03*
X97750000Y-178150000D03*
X31050000Y-175900000D03*
X87630000Y-157830000D03*
X43650000Y-160700000D03*
X58333332Y-166200000D03*
X20350000Y-175200000D03*
X99525000Y-178150000D03*
X95975000Y-178150000D03*
X101300000Y-178150000D03*
X90170000Y-157830000D03*
X94615000Y-157830000D03*
X81775000Y-178150000D03*
X44750000Y-159700000D03*
X89535000Y-170530000D03*
X137922000Y-178404000D03*
X42700000Y-176450000D03*
X36595000Y-156200000D03*
X15000000Y-101250000D03*
X13400000Y-99500000D03*
X13400000Y-101250000D03*
X13350000Y-103700000D03*
X22000000Y-104250000D03*
X14950000Y-106350000D03*
X14950000Y-103700000D03*
X13350000Y-106350000D03*
X13350000Y-108900000D03*
X22000000Y-105850000D03*
X15000000Y-99500000D03*
X14950000Y-108900000D03*
X73540000Y-167600000D03*
X72690000Y-171650000D03*
X107040000Y-167850000D03*
X104300000Y-155100000D03*
X79890000Y-153650000D03*
X133858000Y-54198000D03*
X86050000Y-149050000D03*
X100300000Y-66400000D03*
X84700000Y-150200000D03*
X79390000Y-167600000D03*
X77640000Y-148900000D03*
X81290000Y-145600000D03*
X79940000Y-163800000D03*
X96400000Y-168900000D03*
X78050000Y-163750000D03*
X101650000Y-160050000D03*
X101650000Y-157550000D03*
X102950000Y-156200000D03*
X103400000Y-153850000D03*
X74550000Y-159550000D03*
X75300000Y-160800000D03*
X70450000Y-133850000D03*
X21950000Y-117900000D03*
X18300000Y-123200000D03*
X22000000Y-116150000D03*
X21950000Y-120100000D03*
X21950000Y-126200000D03*
X20300000Y-123350000D03*
X18250000Y-125150000D03*
X16500000Y-125100000D03*
X16550000Y-123150000D03*
X22000000Y-122250000D03*
X21950000Y-124000000D03*
X20250000Y-125100000D03*
X14850000Y-56700000D03*
X14950000Y-52850000D03*
X17700000Y-48000000D03*
X20500000Y-52400000D03*
X17700000Y-50050000D03*
X15850000Y-50000000D03*
X15850000Y-47950000D03*
X19700000Y-48050000D03*
X14900000Y-54850000D03*
X20450000Y-54400000D03*
X19700000Y-50100000D03*
X20400000Y-56250000D03*
X35050000Y-170200000D03*
X30950000Y-168250000D03*
X30950000Y-170749500D03*
X26200000Y-168350000D03*
X19650000Y-167300000D03*
X30200000Y-171600000D03*
X35749500Y-171600000D03*
X77750000Y-49600000D03*
X113550000Y-40450000D03*
X67275000Y-51175000D03*
X133858000Y-111856000D03*
X111900000Y-155700000D03*
X102950000Y-151500000D03*
X12350000Y-68150000D03*
X16600000Y-72500000D03*
X14450000Y-74000000D03*
X18200000Y-72500000D03*
X12350000Y-72450000D03*
X14900000Y-77300000D03*
X13950000Y-68150000D03*
X16500000Y-77300000D03*
X13950000Y-70400000D03*
X13950000Y-72450000D03*
X16050000Y-74000000D03*
X12350000Y-70400000D03*
X20800000Y-95500000D03*
X15800000Y-95500000D03*
X139850000Y-142150000D03*
X139850000Y-144150000D03*
X139850000Y-146150000D03*
X146525000Y-142100000D03*
X146525000Y-144100000D03*
X146525000Y-146100000D03*
X172212000Y-55468000D03*
X172212000Y-52928000D03*
X172212000Y-50388000D03*
X172212000Y-47848000D03*
X172212000Y-45308000D03*
X172212000Y-42768000D03*
X172212000Y-40228000D03*
X172212000Y-37688000D03*
X30360000Y-174137500D03*
X36140000Y-174137500D03*
X13400000Y-165400000D03*
X17700000Y-54450000D03*
X17700000Y-59530000D03*
X17700000Y-63590000D03*
X17700000Y-68670000D03*
X30200000Y-19350000D03*
X61200000Y-155650000D03*
X61200000Y-153150000D03*
X153200000Y-142150000D03*
X153200000Y-144150000D03*
X153200000Y-146150000D03*
X173550000Y-177200000D03*
X114430000Y-151700000D03*
X116970000Y-151700000D03*
X119510000Y-151700000D03*
X122050000Y-151700000D03*
X124590000Y-151700000D03*
X127130000Y-151700000D03*
X129670000Y-151700000D03*
X132210000Y-151700000D03*
X17700000Y-31150000D03*
X17700000Y-26150000D03*
X28265000Y-72845000D03*
X28285000Y-29345000D03*
X163765000Y-29345000D03*
X163775000Y-72855000D03*
X37385000Y-28735000D03*
X39925000Y-28735000D03*
X42465000Y-28735000D03*
X45005000Y-28735000D03*
X47545000Y-28735000D03*
X50085000Y-28735000D03*
X52625000Y-28735000D03*
X55165000Y-28735000D03*
X57705000Y-28735000D03*
X60245000Y-28735000D03*
X62785000Y-28735000D03*
X65325000Y-28735000D03*
X67865000Y-28735000D03*
X70405000Y-28735000D03*
X72945000Y-28735000D03*
X75485000Y-28735000D03*
X78025000Y-28735000D03*
X80565000Y-28735000D03*
X83105000Y-28735000D03*
X85645000Y-28735000D03*
X115900000Y-28750000D03*
X118440000Y-28750000D03*
X120980000Y-28750000D03*
X123520000Y-28750000D03*
X126060000Y-28750000D03*
X128600000Y-28750000D03*
X131140000Y-28750000D03*
X133680000Y-28750000D03*
X136220000Y-28750000D03*
X138760000Y-28750000D03*
X141300000Y-28750000D03*
X143840000Y-28750000D03*
X35110000Y-141300000D03*
X27490000Y-141300000D03*
D11*
X92382500Y-164495000D03*
X90547500Y-164495000D03*
X93300000Y-163577500D03*
X91465000Y-163577500D03*
X89630000Y-163577500D03*
X92382500Y-162660000D03*
X90547500Y-162660000D03*
X93300000Y-161742500D03*
X91465000Y-161742500D03*
X89630000Y-161742500D03*
X92382500Y-160825000D03*
X90547500Y-160825000D03*
D10*
X40300000Y-140600000D03*
X43800000Y-140600000D03*
X107200000Y-83200000D03*
X107200000Y-79700000D03*
X145770000Y-175020000D03*
X155930000Y-175020000D03*
X147670000Y-166130000D03*
X148940000Y-168670000D03*
X150210000Y-166130000D03*
X151480000Y-168670000D03*
X152750000Y-166130000D03*
X154020000Y-168670000D03*
X173150000Y-19300000D03*
X114918000Y-22843349D03*
X114918000Y-19343349D03*
X54350000Y-164100000D03*
X51850000Y-164100000D03*
X18350000Y-132500000D03*
X18350000Y-127500000D03*
X35040000Y-149350000D03*
X27420000Y-149350000D03*
X166400000Y-142150000D03*
X166400000Y-144150000D03*
X166400000Y-146150000D03*
X132995000Y-175125000D03*
X126495000Y-175125000D03*
X132995000Y-170625000D03*
X126495000Y-170625000D03*
X17650000Y-44550000D03*
X17650000Y-39550000D03*
X172800000Y-142150000D03*
X172800000Y-144150000D03*
X172800000Y-146150000D03*
X112295000Y-170625000D03*
X118795000Y-170625000D03*
X112295000Y-175125000D03*
X118795000Y-175125000D03*
X18250000Y-119190000D03*
X18250000Y-114110000D03*
X18250000Y-110050000D03*
X18250000Y-104970000D03*
X68640000Y-177950000D03*
X71180000Y-177950000D03*
X73720000Y-177950000D03*
X76260000Y-177950000D03*
X28265000Y-131995000D03*
X28285000Y-88495000D03*
X163765000Y-88495000D03*
X163775000Y-132005000D03*
X37385000Y-87885000D03*
X39925000Y-87885000D03*
X42465000Y-87885000D03*
X45005000Y-87885000D03*
X47545000Y-87885000D03*
X50085000Y-87885000D03*
X52625000Y-87885000D03*
X55165000Y-87885000D03*
X57705000Y-87885000D03*
X60245000Y-87885000D03*
X62785000Y-87885000D03*
X65325000Y-87885000D03*
X67865000Y-87885000D03*
X70405000Y-87885000D03*
X72945000Y-87885000D03*
X75485000Y-87885000D03*
X78025000Y-87885000D03*
X80565000Y-87885000D03*
X83105000Y-87885000D03*
X85645000Y-87885000D03*
X115900000Y-87900000D03*
X118440000Y-87900000D03*
X120980000Y-87900000D03*
X123520000Y-87900000D03*
X126060000Y-87900000D03*
X128600000Y-87900000D03*
X131140000Y-87900000D03*
X133680000Y-87900000D03*
X136220000Y-87900000D03*
X138760000Y-87900000D03*
X141300000Y-87900000D03*
X143840000Y-87900000D03*
X35060000Y-145350000D03*
X27440000Y-145350000D03*
X159800000Y-142150000D03*
X159800000Y-144150000D03*
X159800000Y-146150000D03*
D12*
X15300000Y-179050000D03*
X22450000Y-179050000D03*
D10*
X168800000Y-158780000D03*
X168800000Y-161320000D03*
X168800000Y-163860000D03*
X168800000Y-166400000D03*
X20700000Y-80850000D03*
X15700000Y-80850000D03*
X103797349Y-170250000D03*
X107297349Y-170250000D03*
X172212000Y-114904000D03*
X172212000Y-112364000D03*
X172212000Y-109824000D03*
X172212000Y-107284000D03*
X172212000Y-104744000D03*
X172212000Y-102204000D03*
X172212000Y-99664000D03*
X172212000Y-97124000D03*
M02*
